happy-times-NG_italic_master.ufo.ufo
<glyph name="exclam" format="1">
  <advance width="280"/>
  <unicode hex="0021"/>
  <outline>
    <contour>
      <point x="128.029519659553" y="204" type="line"/>
      <point x="320.029519659553" y="750" type="line"/>
      <point x="320.029519659553" y="750"/>
      <point x="210.029519659553" y="750"/>
      <point x="210.029519659553" y="750" type="curve"/>
      <point x="90.02951965955297" y="204" type="line"/>
    </contour>
    <component base="period"/>
  </outline>
</glyph>
<glyph name="quotedbl" format="1">
  <advance width="276"/>
  <unicode hex="0022"/>
  <outline>
    <contour>
      <point x="241.029519659553" y="750" type="line"/>
      <point x="203.029519659553" y="750" type="line"/>
      <point x="134.029519659553" y="510" type="line"/>
      <point x="172.029519659553" y="510" type="line"/>
    </contour>
    <contour>
      <point x="359.029519659553" y="750" type="line"/>
      <point x="321.029519659553" y="750" type="line"/>
      <point x="252.029519659553" y="510" type="line"/>
      <point x="290.029519659553" y="510" type="line"/>
    </contour>
  </outline>
</glyph>
<glyph name="numbersign" format="1">
  <advance width="560"/>
  <unicode hex="0023"/>
  <outline>
    <contour>
      <point x="101.02951965955297" y="0" type="line"/>
      <point x="141.029519659553" y="0" type="line"/>
      <point x="328.029519659553" y="750" type="line"/>
      <point x="288.029519659553" y="750" type="line"/>
    </contour>
    <contour>
      <point x="303.029519659553" y="0" type="line"/>
      <point x="343.029519659553" y="0" type="line"/>
      <point x="530.029519659553" y="750" type="line"/>
      <point x="490.029519659553" y="750" type="line"/>
    </contour>
    <contour>
      <point x="107.02951965955297" y="500" type="line"/>
      <point x="98.02951965955297" y="466" type="line"/>
      <point x="578.029519659553" y="466" type="line"/>
      <point x="587.029519659553" y="500" type="line"/>
    </contour>
    <contour>
      <point x="53.029519659552975" y="284" type="line"/>
      <point x="44.029519659552975" y="250" type="line"/>
      <point x="524.029519659553" y="250" type="line"/>
      <point x="533.029519659553" y="284" type="line"/>
    </contour>
  </outline>
</glyph>
<glyph name="percent" format="1">
  <advance width="660"/>
  <unicode hex="0025"/>
  <outline>
    <contour>
      <point x="59.029519659552975" y="0" type="line"/>
      <point x="105.02951965955297" y="0" type="line"/>
      <point x="669.029519659553" y="750" type="line"/>
      <point x="623.029519659553" y="750" type="line"/>
    </contour>
    <contour>
      <point x="204.029519659553" y="750"/>
      <point x="103.02951965955297" y="581"/>
      <point x="103.02951965955297" y="468" type="curve"/>
      <point x="103.02951965955297" y="399"/>
      <point x="140.029519659553" y="370"/>
      <point x="190.029519659553" y="370" type="curve" smooth="yes"/>
      <point x="315.029519659553" y="370"/>
      <point x="407.029519659553" y="543"/>
      <point x="407.029519659553" y="654" type="curve"/>
      <point x="407.029519659553" y="686"/>
      <point x="404.029519659553" y="699"/>
      <point x="401.029519659553" y="706" type="curve"/>
      <point x="414.029519659553" y="716" type="line"/>
      <point x="583.029519659553" y="716" type="line"/>
      <point x="615.029519659553" y="716" type="line"/>
      <point x="623.029519659553" y="750" type="line"/>
      <point x="340.029519659553" y="750" type="line"/>
    </contour>
    <contour>
      <point x="322.029519659553" y="722" type="curve"/>
      <point x="353.029519659553" y="722"/>
      <point x="368.029519659553" y="700"/>
      <point x="368.029519659553" y="651" type="curve"/>
      <point x="368.029519659553" y="544"/>
      <point x="281.029519659553" y="404"/>
      <point x="201.029519659553" y="404" type="curve"/>
      <point x="174.029519659553" y="404"/>
      <point x="158.029519659553" y="423"/>
      <point x="158.029519659553" y="467" type="curve" smooth="yes"/>
      <point x="158.029519659553" y="567"/>
      <point x="240.029519659553" y="722"/>
    </contour>
    <contour>
      <point x="543.029519659553" y="380" type="curve"/>
      <point x="426.029519659553" y="380"/>
      <point x="321.029519659553" y="201"/>
      <point x="321.029519659553" y="88" type="curve" smooth="yes"/>
      <point x="321.029519659553" y="19"/>
      <point x="357.029519659553" y="-10"/>
      <point x="407.029519659553" y="-10" type="curve"/>
      <point x="533.029519659553" y="-10"/>
      <point x="625.029519659553" y="164"/>
      <point x="625.029519659553" y="274" type="curve"/>
      <point x="625.029519659553" y="331"/>
      <point x="607.029519659553" y="380"/>
    </contour>
    <contour>
      <point x="540.029519659553" y="342" type="curve" smooth="yes"/>
      <point x="570.029519659553" y="342"/>
      <point x="586.029519659553" y="320"/>
      <point x="586.029519659553" y="271" type="curve"/>
      <point x="586.029519659553" y="165"/>
      <point x="499.029519659553" y="24"/>
      <point x="419.029519659553" y="24" type="curve"/>
      <point x="392.029519659553" y="24"/>
      <point x="376.029519659553" y="43"/>
      <point x="376.029519659553" y="87" type="curve" smooth="yes"/>
      <point x="376.029519659553" y="187"/>
      <point x="458.029519659553" y="342"/>
    </contour>
    <contour>
      <point x="316.029519659553" y="748" type="move" name="top"/>
    </contour>
    <contour>
      <point x="222.029519659553" y="369" type="move" name="bottom"/>
    </contour>
  </outline>
</glyph>
<glyph name="ampersand" format="1">
  <advance width="790.0170629374254"/>
  <unicode hex="0026"/>
  <outline>
    <contour>
      <point x="532.029519659553" y="-10" type="curve" smooth="yes"/>
      <point x="622.029519659553" y="-10"/>
      <point x="688.029519659553" y="46"/>
      <point x="739.029519659553" y="122" type="curve"/>
      <point x="718.029519659553" y="150" type="line"/>
      <point x="679.029519659553" y="84"/>
      <point x="637.029519659553" y="54"/>
      <point x="583.029519659553" y="54" type="curve" smooth="yes"/>
      <point x="515.029519659553" y="54"/>
      <point x="486.029519659553" y="104"/>
      <point x="413.029519659553" y="292" type="curve" smooth="yes"/>
      <point x="382.029519659553" y="373"/>
      <point x="363.029519659553" y="436"/>
      <point x="363.029519659553" y="495" type="curve" smooth="yes"/>
      <point x="363.029519659553" y="606"/>
      <point x="422.029519659553" y="710"/>
      <point x="501.029519659553" y="710" type="curve" smooth="yes"/>
      <point x="539.029519659553" y="710"/>
      <point x="561.029519659553" y="688"/>
      <point x="561.029519659553" y="648" type="curve" smooth="yes"/>
      <point x="561.029519659553" y="546"/>
      <point x="387.029519659553" y="475"/>
      <point x="263.029519659553" y="415" type="curve" smooth="yes"/>
      <point x="194.029519659553" y="382"/>
      <point x="9.029519659552975" y="292"/>
      <point x="9.029519659552975" y="136" type="curve" smooth="yes"/>
      <point x="9.029519659552975" y="40"/>
      <point x="68.02951965955297" y="-10"/>
      <point x="170.029519659553" y="-10" type="curve" smooth="yes"/>
      <point x="418.029519659553" y="-10"/>
      <point x="560.029519659553" y="216"/>
      <point x="674.029519659553" y="432" type="curve"/>
      <point x="686.029519659553" y="442" type="line"/>
      <point x="792.029519659553" y="442" type="line"/>
      <point x="801.029519659553" y="476" type="line"/>
      <point x="550.029519659553" y="476" type="line"/>
      <point x="541.029519659553" y="442" type="line"/>
      <point x="621.029519659553" y="442" type="line"/>
      <point x="629.029519659553" y="432" type="line"/>
      <point x="535.029519659553" y="235"/>
      <point x="396.029519659553" y="66"/>
      <point x="251.029519659553" y="66" type="curve"/>
      <point x="172.029519659553" y="66"/>
      <point x="124.02951965955297" y="108"/>
      <point x="124.02951965955297" y="182" type="curve" smooth="yes"/>
      <point x="124.02951965955297" y="301"/>
      <point x="222.029519659553" y="354"/>
      <point x="316.029519659553" y="399" type="curve" smooth="yes"/>
      <point x="381.029519659553" y="430"/>
      <point x="620.029519659553" y="543"/>
      <point x="620.029519659553" y="663" type="curve" smooth="yes"/>
      <point x="620.029519659553" y="732"/>
      <point x="567.029519659553" y="760"/>
      <point x="509.029519659553" y="760" type="curve" smooth="yes"/>
      <point x="356.029519659553" y="760"/>
      <point x="262.029519659553" y="620"/>
      <point x="262.029519659553" y="469" type="curve" smooth="yes"/>
      <point x="262.029519659553" y="399"/>
      <point x="284.029519659553" y="322"/>
      <point x="318.029519659553" y="234" type="curve" smooth="yes"/>
      <point x="397.029519659553" y="32"/>
      <point x="450.029519659553" y="-10"/>
    </contour>
  </outline>
</glyph>
<glyph name="quotesingle" format="1">
  <advance width="158"/>
  <unicode hex="0027"/>
  <outline>
    <contour>
      <point x="241.029519659553" y="750" type="line"/>
      <point x="203.029519659553" y="750" type="line"/>
      <point x="134.029519659553" y="510" type="line"/>
      <point x="172.029519659553" y="510" type="line"/>
    </contour>
  </outline>
</glyph>
<glyph name="parenleft" format="1">
  <advance width="405.6719110390787"/>
  <unicode hex="0028"/>
  <outline>
    <contour>
      <point x="225.029519659553" y="-260" type="curve"/>
      <point x="246.029519659553" y="-236" type="line"/>
      <point x="177.029519659553" y="-186"/>
      <point x="108.02951965955297" y="-99"/>
      <point x="108.02951965955297" y="80" type="curve"/>
      <point x="108.02951965955297" y="399"/>
      <point x="334.029519659553" y="642"/>
      <point x="487.029519659553" y="736" type="curve"/>
      <point x="480.029519659553" y="760" type="line"/>
      <point x="303.029519659553" y="667"/>
      <point x="33.029519659552975" y="432"/>
      <point x="33.029519659552975" y="110" type="curve"/>
      <point x="33.029519659552975" y="-95"/>
      <point x="127.02951965955297" y="-206"/>
    </contour>
  </outline>
</glyph>
<glyph name="parenright" format="1">
  <advance width="405.6719110390787"/>
  <unicode hex="0029"/>
  <outline>
    <contour>
      <point x="180.029519659553" y="760" type="curve"/>
      <point x="159.029519659553" y="736" type="line"/>
      <point x="228.029519659553" y="686"/>
      <point x="297.029519659553" y="599"/>
      <point x="297.029519659553" y="420" type="curve"/>
      <point x="297.029519659553" y="101"/>
      <point x="71.02951965955297" y="-142"/>
      <point x="-81.97048034044703" y="-236" type="curve"/>
      <point x="-74.97048034044703" y="-260" type="line"/>
      <point x="102.02951965955297" y="-167"/>
      <point x="372.029519659553" y="68"/>
      <point x="372.029519659553" y="390" type="curve"/>
      <point x="372.029519659553" y="595"/>
      <point x="278.029519659553" y="706"/>
    </contour>
  </outline>
</glyph>
<glyph name="asterisk" format="1">
  <advance width="363"/>
  <unicode hex="002A"/>
  <outline>
    <contour>
      <point x="141.029519659553" y="540" type="line"/>
      <point x="157.029519659553" y="510" type="line"/>
      <point x="256.029519659553" y="570" type="line"/>
      <point x="266.029519659553" y="560" type="line"/>
      <point x="266.029519659553" y="448" type="line"/>
      <point x="300.029519659553" y="448" type="line"/>
      <point x="300.029519659553" y="560" type="line"/>
      <point x="310.029519659553" y="570" type="line"/>
      <point x="408.029519659553" y="509" type="line"/>
      <point x="424.029519659553" y="539" type="line"/>
      <point x="331.029519659553" y="598" type="line"/>
      <point x="331.029519659553" y="610" type="line"/>
      <point x="424.029519659553" y="669" type="line"/>
      <point x="408.029519659553" y="699" type="line"/>
      <point x="310.029519659553" y="638" type="line"/>
      <point x="300.029519659553" y="648" type="line"/>
      <point x="300.029519659553" y="760" type="line"/>
      <point x="266.029519659553" y="760" type="line"/>
      <point x="266.029519659553" y="648" type="line"/>
      <point x="256.029519659553" y="638" type="line"/>
      <point x="157.029519659553" y="698" type="line"/>
      <point x="141.029519659553" y="668" type="line"/>
      <point x="236.029519659553" y="610" type="line"/>
      <point x="236.029519659553" y="598" type="line"/>
    </contour>
  </outline>
</glyph>
<glyph name="plus" format="1">
  <advance width="583"/>
  <unicode hex="002B"/>
  <outline>
    <contour>
      <point x="564.029519659553" y="329" type="line"/>
      <point x="341.029519659553" y="329" type="line"/>
      <point x="334.029519659553" y="339" type="line"/>
      <point x="389.029519659553" y="562" type="line"/>
      <point x="353.029519659553" y="562" type="line"/>
      <point x="298.029519659553" y="339" type="line"/>
      <point x="285.029519659553" y="329" type="line"/>
      <point x="62.029519659552975" y="329" type="line"/>
      <point x="54.029519659552975" y="295" type="line"/>
      <point x="277.029519659553" y="295" type="line"/>
      <point x="284.029519659553" y="285" type="line"/>
      <point x="228.029519659553" y="62" type="line"/>
      <point x="264.029519659553" y="62" type="line"/>
      <point x="320.029519659553" y="285" type="line"/>
      <point x="333.029519659553" y="295" type="line"/>
      <point x="556.029519659553" y="295" type="line"/>
    </contour>
  </outline>
</glyph>
<glyph name="comma" format="1">
  <advance width="280"/>
  <unicode hex="002C"/>
  <outline>
    <contour>
      <point x="128.029519659553" y="20" type="curve"/>
      <point x="128.029519659553" y="120" type="line"/>
      <point x="8.029519659552975" y="120" type="line"/>
      <point x="8.029519659552975" y="0" type="line"/>
      <point x="82.02951965955297" y="0" type="line"/>
      <point x="92.02951965955297" y="-10" type="line"/>
      <point x="86.02951965955297" y="-56"/>
      <point x="60.029519659552975" y="-100"/>
      <point x="6.0295196595529745" y="-142" type="curve"/>
      <point x="20.029519659552975" y="-166" type="line"/>
      <point x="88.02951965955297" y="-118"/>
      <point x="128.029519659553" y="-54"/>
    </contour>
  </outline>
</glyph>
<glyph name="hyphen" format="1">
  <advance width="280"/>
  <unicode hex="002D"/>
  <outline>
    <contour>
      <point x="16.029519659552975" y="233" type="line"/>
      <point x="256.029519659553" y="233" type="line"/>
      <point x="264.029519659553" y="267" type="line"/>
      <point x="24.029519659552975" y="267" type="line"/>
    </contour>
  </outline>
</glyph>
<glyph name="period" format="1">
  <advance width="280"/>
  <unicode hex="002E"/>
  <outline>
    <contour>
      <point x="28.029519659552975" y="0" type="line"/>
      <point x="148.029519659553" y="0" type="line"/>
      <point x="148.029519659553" y="120" type="line"/>
      <point x="28.029519659552975" y="120" type="line"/>
    </contour>
  </outline>
</glyph>
<glyph name="zero" format="1">
  <advance width="592.5424811731441"/>
  <unicode hex="0030"/>
  <outline>
    <contour>
      <point x="249.029519659553" y="28" type="curve"/>
      <point x="201.029519659553" y="28"/>
      <point x="176.029519659553" y="80"/>
      <point x="176.029519659553" y="166" type="curve" smooth="yes"/>
      <point x="176.029519659553" y="360"/>
      <point x="284.029519659553" y="722"/>
      <point x="418.029519659553" y="722" type="curve"/>
      <point x="468.029519659553" y="722"/>
      <point x="493.029519659553" y="673"/>
      <point x="493.029519659553" y="590" type="curve" smooth="yes"/>
      <point x="493.029519659553" y="391"/>
      <point x="375.029519659553" y="28"/>
    </contour>
    <contour>
      <point x="236.029519659553" y="-10" type="curve" smooth="yes"/>
      <point x="441.029519659553" y="-10"/>
      <point x="602.029519659553" y="311"/>
      <point x="602.029519659553" y="545" type="curve" smooth="yes"/>
      <point x="602.029519659553" y="665"/>
      <point x="557.029519659553" y="760"/>
      <point x="431.029519659553" y="760" type="curve" smooth="yes"/>
      <point x="231.029519659553" y="760"/>
      <point x="67.02951965955297" y="476"/>
      <point x="67.02951965955297" y="212" type="curve" smooth="yes"/>
      <point x="67.02951965955297" y="93"/>
      <point x="110.02951965955297" y="-10"/>
    </contour>
    <contour>
      <point x="417.029519659553" y="748" type="move" name="top"/>
    </contour>
    <contour>
      <point x="228.029519659553" y="-11" type="move" name="bottom"/>
    </contour>
  </outline>
</glyph>
<glyph name="one" format="1">
  <advance width="459"/>
  <unicode hex="0031"/>
  <outline>
    <contour>
      <point x="193.029519659553" y="631" type="line"/>
      <point x="284.029519659553" y="669" type="line"/>
      <point x="291.029519659553" y="659" type="line"/>
      <point x="138.029519659553" y="44" type="line"/>
      <point x="125.02951965955297" y="34" type="line"/>
      <point x="35.029519659552975" y="34" type="line"/>
      <point x="27.029519659552975" y="0" type="line"/>
      <point x="327.029519659553" y="0" type="line"/>
      <point x="335.029519659553" y="34" type="line"/>
      <point x="245.029519659553" y="34" type="line"/>
      <point x="238.029519659553" y="44" type="line"/>
      <point x="238.029519659553" y="44" type="line"/>
      <point x="414.029519659553" y="750" type="line"/>
      <point x="407.029519659553" y="760" type="line"/>
      <point x="179.029519659553" y="665" type="line"/>
    </contour>
  </outline>
</glyph>
<glyph name="two" format="1">
  <advance width="529"/>
  <unicode hex="0032"/>
  <outline>
    <contour>
      <point x="-36.970480340447025" y="0" type="line"/>
      <point x="397.029519659553" y="0" type="line"/>
      <point x="449.029519659553" y="208" type="line"/>
      <point x="417.029519659553" y="208" type="line"/>
      <point x="412.029519659553" y="188" type="line" smooth="yes"/>
      <point x="390.029519659553" y="102"/>
      <point x="359.029519659553" y="84"/>
      <point x="282.029519659553" y="84" type="curve" smooth="yes"/>
      <point x="122.02951965955297" y="84" type="line"/>
      <point x="115.02951965955297" y="94" type="line"/>
      <point x="317.029519659553" y="246"/>
      <point x="524.029519659553" y="430"/>
      <point x="524.029519659553" y="602" type="curve"/>
      <point x="524.029519659553" y="694"/>
      <point x="471.029519659553" y="760"/>
      <point x="369.029519659553" y="760" type="curve"/>
      <point x="220.029519659553" y="760"/>
      <point x="130.029519659553" y="604"/>
      <point x="106.02951965955297" y="550" type="curve"/>
      <point x="124.02951965955297" y="534" type="line"/>
      <point x="161.029519659553" y="600"/>
      <point x="217.029519659553" y="666"/>
      <point x="311.029519659553" y="666" type="curve"/>
      <point x="391.029519659553" y="666"/>
      <point x="427.029519659553" y="617"/>
      <point x="427.029519659553" y="548" type="curve" smooth="yes"/>
      <point x="427.029519659553" y="410"/>
      <point x="266.029519659553" y="257"/>
      <point x="-36.970480340447025" y="10" type="curve"/>
    </contour>
    <contour>
      <point x="238.029519659553" y="216" type="move" name="top"/>
    </contour>
    <contour>
      <point x="371.029519659553" y="749" type="move" name="bottom"/>
    </contour>
  </outline>
</glyph>
<glyph name="three" format="1">
  <advance width="503.9948396897161"/>
  <unicode hex="0033"/>
  <outline>
    <contour>
      <point x="313.029519659553" y="-10"/>
      <point x="461.029519659553" y="153"/>
      <point x="461.029519659553" y="314" type="curve"/>
      <point x="461.029519659553" y="380"/>
      <point x="425.029519659553" y="422"/>
      <point x="372.029519659553" y="440" type="curve"/>
      <point x="372.029519659553" y="450" type="line"/>
      <point x="449.029519659553" y="490"/>
      <point x="516.029519659553" y="547"/>
      <point x="516.029519659553" y="636" type="curve"/>
      <point x="516.029519659553" y="707"/>
      <point x="461.029519659553" y="760"/>
      <point x="373.029519659553" y="760" type="curve"/>
      <point x="235.029519659553" y="760"/>
      <point x="162.029519659553" y="636"/>
      <point x="129.029519659553" y="572" type="curve"/>
      <point x="147.029519659553" y="556" type="line"/>
      <point x="185.029519659553" y="616"/>
      <point x="242.029519659553" y="678"/>
      <point x="326.029519659553" y="678" type="curve"/>
      <point x="387.029519659553" y="678"/>
      <point x="413.029519659553" y="643"/>
      <point x="413.029519659553" y="597" type="curve" smooth="yes"/>
      <point x="413.029519659553" y="495"/>
      <point x="307.029519659553" y="426"/>
      <point x="205.029519659553" y="414" type="curve"/>
      <point x="197.029519659553" y="380" type="line"/>
      <point x="299.029519659553" y="380"/>
      <point x="369.029519659553" y="341"/>
      <point x="369.029519659553" y="247" type="curve"/>
      <point x="369.029519659553" y="136"/>
      <point x="281.029519659553" y="46"/>
      <point x="191.029519659553" y="46" type="curve"/>
      <point x="149.029519659553" y="46"/>
      <point x="126.02951965955297" y="62"/>
      <point x="101.02951965955297" y="91" type="curve" smooth="yes"/>
      <point x="64.02951965955297" y="135" type="line"/>
      <point x="-22.970480340447025" y="67" type="line"/>
      <point x="-24.970480340447025" y="51" type="line"/>
      <point x="-6.9704803404470255" y="20"/>
      <point x="30.029519659552975" y="-10"/>
      <point x="112.02951965955297" y="-10" type="curve"/>
    </contour>
    <contour>
      <point x="214.029519659553" y="216.0" type="move" name="top"/>
    </contour>
    <contour>
      <point x="347.029519659553" y="749.0" type="move" name="bottom"/>
    </contour>
  </outline>
</glyph>
<glyph name="four" format="1">
  <advance width="532.6653582488617"/>
  <unicode hex="0034"/>
  <outline>
    <contour>
      <point x="93.02951965955297" y="270" type="line"/>
      <point x="93.02951965955297" y="280" type="line"/>
      <point x="389.029519659553" y="580" type="line" smooth="yes"/>
      <point x="399.029519659553" y="580" type="line"/>
      <point x="322.029519659553" y="270" type="line"/>
    </contour>
    <contour>
      <point x="4.0295196595529745" y="186" type="line"/>
      <point x="301.029519659553" y="186" type="line"/>
      <point x="254.029519659553" y="0" type="line"/>
      <point x="344.029519659553" y="0" type="line"/>
      <point x="390.029519659553" y="186" type="line"/>
      <point x="494.029519659553" y="186" type="line"/>
      <point x="515.029519659553" y="270" type="line"/>
      <point x="411.029519659553" y="270" type="line"/>
      <point x="531.029519659553" y="750" type="line"/>
      <point x="491.029519659553" y="750" type="line"/>
      <point x="25.029519659552975" y="270" type="line"/>
    </contour>
  </outline>
</glyph>
<glyph name="five" format="1">
  <advance width="503.9948396897161"/>
  <unicode hex="0035"/>
  <outline>
    <contour>
      <point x="199.029519659553" y="46" type="curve"/>
      <point x="156.029519659553" y="46"/>
      <point x="136.029519659553" y="62"/>
      <point x="111.02951965955297" y="91" type="curve" smooth="yes"/>
      <point x="74.02951965955297" y="135" type="line"/>
      <point x="-12.970480340447025" y="67" type="line"/>
      <point x="-14.970480340447025" y="51" type="line"/>
      <point x="3.0295196595529745" y="20"/>
      <point x="40.029519659552975" y="-10"/>
      <point x="122.02951965955297" y="-10" type="curve"/>
      <point x="323.029519659553" y="-10"/>
      <point x="471.029519659553" y="153"/>
      <point x="471.029519659553" y="314" type="curve"/>
      <point x="471.029519659553" y="461"/>
      <point x="350.029519659553" y="526"/>
      <point x="244.029519659553" y="540" type="curve"/>
      <point x="237.029519659553" y="550" type="line"/>
      <point x="316.029519659553" y="666" type="line"/>
      <point x="526.029519659553" y="666" type="line"/>
      <point x="587.029519659553" y="750" type="line"/>
      <point x="323.029519659553" y="750" type="line"/>
      <point x="132.029519659553" y="466" type="line"/>
      <point x="139.029519659553" y="456" type="line"/>
      <point x="267.029519659553" y="456"/>
      <point x="379.029519659553" y="382"/>
      <point x="379.029519659553" y="250" type="curve"/>
      <point x="379.029519659553" y="135"/>
      <point x="295.029519659553" y="46"/>
    </contour>
  </outline>
</glyph>
<glyph name="six" format="1">
  <advance width="540.2396397098727"/>
  <unicode hex="0036"/>
  <outline>
    <contour>
      <point x="222.029519659553" y="-10" type="curve"/>
      <point x="379.029519659553" y="-10"/>
      <point x="509.029519659553" y="175"/>
      <point x="509.029519659553" y="321" type="curve"/>
      <point x="509.029519659553" y="428"/>
      <point x="446.029519659553" y="480"/>
      <point x="368.029519659553" y="480" type="curve"/>
      <point x="304.029519659553" y="480"/>
      <point x="259.029519659553" y="444"/>
      <point x="241.029519659553" y="428" type="curve"/>
      <point x="205.029519659553" y="428" type="line"/>
      <point x="188.029519659553" y="362" type="line"/>
      <point x="207.029519659553" y="385"/>
      <point x="256.029519659553" y="424"/>
      <point x="312.029519659553" y="424" type="curve" smooth="yes"/>
      <point x="366.029519659553" y="424"/>
      <point x="392.029519659553" y="392"/>
      <point x="392.029519659553" y="330" type="curve" smooth="yes"/>
      <point x="392.029519659553" y="228"/>
      <point x="334.029519659553" y="28"/>
      <point x="226.029519659553" y="28" type="curve"/>
      <point x="183.029519659553" y="28"/>
      <point x="156.029519659553" y="70"/>
      <point x="156.029519659553" y="146" type="curve" smooth="yes"/>
      <point x="156.029519659553" y="367"/>
      <point x="313.029519659553" y="664"/>
      <point x="629.029519659553" y="740" type="curve"/>
      <point x="622.029519659553" y="770" type="line"/>
      <point x="306.029519659553" y="706"/>
      <point x="46.029519659552975" y="426"/>
      <point x="46.029519659552975" y="184" type="curve"/>
      <point x="46.029519659552975" y="52"/>
      <point x="113.02951965955297" y="-10"/>
    </contour>
  </outline>
</glyph>
<glyph name="seven" format="1">
  <advance width="519.8084145384821"/>
  <unicode hex="0037"/>
  <outline>
    <contour>
      <point x="332.029519659553" y="666" type="curve" smooth="yes"/>
      <point x="546.029519659553" y="666" type="line"/>
      <point x="553.029519659553" y="656" type="line"/>
      <point x="92.02951965955297" y="0" type="line"/>
      <point x="222.029519659553" y="0" type="line"/>
      <point x="640.029519659553" y="740" type="line"/>
      <point x="633.029519659553" y="750" type="line"/>
      <point x="183.029519659553" y="750" type="line"/>
      <point x="131.029519659553" y="540" type="line"/>
      <point x="169.029519659553" y="540" type="line"/>
      <point x="176.029519659553" y="568" type="line"/>
      <point x="198.029519659553" y="656"/>
      <point x="228.029519659553" y="666"/>
    </contour>
  </outline>
</glyph>
<glyph name="eight" format="1">
  <advance width="506.4709360516535"/>
  <unicode hex="0038"/>
  <outline>
    <contour>
      <point x="233.029519659553" y="661"/>
      <point x="290.029519659553" y="722"/>
      <point x="366.029519659553" y="722" type="curve"/>
      <point x="429.029519659553" y="722"/>
      <point x="459.029519659553" y="675"/>
      <point x="459.029519659553" y="618" type="curve"/>
      <point x="459.029519659553" y="525"/>
      <point x="381.029519659553" y="472"/>
      <point x="280.029519659553" y="416" type="curve"/>
      <point x="326.029519659553" y="416" type="line"/>
      <point x="246.029519659553" y="481"/>
      <point x="233.029519659553" y="520"/>
      <point x="233.029519659553" y="573" type="curve"/>
    </contour>
    <contour>
      <point x="119.02951965955297" y="320"/>
      <point x="11.029519659552975" y="245"/>
      <point x="11.029519659552975" y="129" type="curve"/>
      <point x="11.029519659552975" y="43"/>
      <point x="79.02951965955297" y="-10"/>
      <point x="188.029519659553" y="-10" type="curve"/>
      <point x="354.029519659553" y="-10"/>
      <point x="450.029519659553" y="107"/>
      <point x="450.029519659553" y="214" type="curve"/>
      <point x="450.029519659553" y="298"/>
      <point x="394.029519659553" y="352"/>
      <point x="333.029519659553" y="406" type="curve"/>
      <point x="333.029519659553" y="416" type="line"/>
      <point x="433.029519659553" y="458"/>
      <point x="537.029519659553" y="513"/>
      <point x="537.029519659553" y="630" type="curve"/>
      <point x="537.029519659553" y="712"/>
      <point x="475.029519659553" y="760"/>
      <point x="381.029519659553" y="760" type="curve" smooth="yes"/>
      <point x="237.029519659553" y="760"/>
      <point x="135.029519659553" y="646"/>
      <point x="135.029519659553" y="538" type="curve"/>
      <point x="135.029519659553" y="457"/>
      <point x="190.029519659553" y="406"/>
      <point x="221.029519659553" y="376" type="curve"/>
      <point x="221.029519659553" y="366" type="line"/>
    </contour>
    <contour>
      <point x="207.029519659553" y="28" type="curve"/>
      <point x="143.029519659553" y="28"/>
      <point x="99.02951965955297" y="65"/>
      <point x="99.02951965955297" y="141" type="curve"/>
      <point x="99.02951965955297" y="241"/>
      <point x="169.029519659553" y="311"/>
      <point x="273.029519659553" y="366" type="curve"/>
      <point x="227.029519659553" y="366" type="line"/>
      <point x="319.029519659553" y="288"/>
      <point x="351.029519659553" y="244"/>
      <point x="351.029519659553" y="173" type="curve"/>
      <point x="351.029519659553" y="88"/>
      <point x="281.029519659553" y="28"/>
    </contour>
  </outline>
</glyph>
<glyph name="nine" format="1">
  <advance width="544.8547390641063"/>
  <unicode hex="0039"/>
  <outline>
    <contour>
      <point x="391.029519659553" y="760" type="curve"/>
      <point x="229.029519659553" y="760"/>
      <point x="106.02951965955297" y="587"/>
      <point x="106.02951965955297" y="440" type="curve"/>
      <point x="106.02951965955297" y="340"/>
      <point x="170.029519659553" y="286"/>
      <point x="249.029519659553" y="286" type="curve"/>
      <point x="317.029519659553" y="286"/>
      <point x="371.029519659553" y="324"/>
      <point x="390.029519659553" y="338" type="curve"/>
      <point x="410.029519659553" y="338" type="line"/>
      <point x="429.029519659553" y="404" type="line"/>
      <point x="410.029519659553" y="382"/>
      <point x="366.029519659553" y="346"/>
      <point x="320.029519659553" y="346" type="curve"/>
      <point x="263.029519659553" y="346"/>
      <point x="228.029519659553" y="386"/>
      <point x="228.029519659553" y="471" type="curve"/>
      <point x="228.029519659553" y="584"/>
      <point x="282.029519659553" y="722"/>
      <point x="374.029519659553" y="722" type="curve"/>
      <point x="426.029519659553" y="722"/>
      <point x="456.029519659553" y="676"/>
      <point x="456.029519659553" y="591" type="curve"/>
      <point x="456.029519659553" y="329"/>
      <point x="298.029519659553" y="96"/>
      <point x="-15.970480340447025" y="10" type="curve"/>
      <point x="-8.970480340447025" y="-20" type="line"/>
      <point x="307.029519659553" y="54"/>
      <point x="567.029519659553" y="306"/>
      <point x="567.029519659553" y="556" type="curve"/>
      <point x="567.029519659553" y="688"/>
      <point x="500.029519659553" y="760"/>
    </contour>
  </outline>
</glyph>
<glyph name="colon" format="1">
  <advance width="280"/>
  <unicode hex="003A"/>
  <outline>
    <contour>
      <point x="8.029519659552975" y="0" type="line"/>
      <point x="128.029519659553" y="0" type="line"/>
      <point x="128.029519659553" y="120" type="line"/>
      <point x="8.029519659552975" y="120" type="line"/>
    </contour>
    <contour>
      <point x="151.029519659553" y="380" type="line"/>
      <point x="271.029519659553" y="380" type="line"/>
      <point x="271.029519659553" y="500" type="line"/>
      <point x="151.029519659553" y="500" type="line"/>
    </contour>
  </outline>
</glyph>
<glyph name="less" format="1">
  <advance width="524.089239940542"/>
  <unicode hex="003C"/>
  <outline>
    <contour>
      <point x="433.029519659553" y="52" type="line"/>
      <point x="443.029519659553" y="94" type="line"/>
      <point x="111.02951965955297" y="305" type="line"/>
      <point x="113.02951965955297" y="315" type="line"/>
      <point x="551.029519659553" y="526" type="line"/>
      <point x="563.029519659553" y="572" type="line"/>
      <point x="33.029519659552975" y="317" type="line"/>
      <point x="31.029519659552975" y="307" type="line"/>
    </contour>
  </outline>
</glyph>
<glyph name="greater" format="1">
  <advance width="524"/>
  <unicode hex="003E"/>
  <outline>
    <contour>
      <point x="126.02951965955297" y="572" type="line"/>
      <point x="116.02951965955297" y="530" type="line"/>
      <point x="448.029519659553" y="319" type="line"/>
      <point x="446.029519659553" y="309" type="line"/>
      <point x="8.029519659552975" y="98" type="line"/>
      <point x="-3.9704803404470255" y="52" type="line"/>
      <point x="526.029519659553" y="307" type="line"/>
      <point x="528.029519659553" y="317" type="line"/>
    </contour>
  </outline>
</glyph>
<glyph name="question" format="1">
  <advance width="501.1350143284723"/>
  <unicode hex="003F"/>
  <outline>
    <contour>
      <point x="387.029519659553" y="760" type="curve"/>
      <point x="504.029519659553" y="760"/>
      <point x="579.029519659553" y="706"/>
      <point x="579.029519659553" y="612" type="curve"/>
      <point x="579.029519659553" y="462"/>
      <point x="380.029519659553" y="361"/>
      <point x="279.029519659553" y="326" type="curve"/>
      <point x="244.029519659553" y="204" type="line"/>
      <point x="206.029519659553" y="204" type="line"/>
      <point x="244.029519659553" y="338" type="line"/>
      <point x="257.029519659553" y="348" type="line"/>
      <point x="326.029519659553" y="370"/>
      <point x="467.029519659553" y="464"/>
      <point x="467.029519659553" y="603" type="curve"/>
      <point x="467.029519659553" y="668"/>
      <point x="433.029519659553" y="722"/>
      <point x="359.029519659553" y="722" type="curve"/>
      <point x="309.029519659553" y="722"/>
      <point x="279.029519659553" y="702"/>
      <point x="255.029519659553" y="656" type="curve" smooth="yes"/>
      <point x="208.029519659553" y="568" type="line"/>
      <point x="98.02951965955297" y="556" type="line"/>
      <point x="90.02951965955297" y="566" type="line"/>
      <point x="134.029519659553" y="654"/>
      <point x="231.029519659553" y="760"/>
    </contour>
    <component base="period" xOffset="108.99999999999999"/>
  </outline>
</glyph>
<glyph name="at" format="1">
  <advance width="949.0166660431371"/>
  <unicode hex="0040"/>
  <outline>
    <contour>
      <point x="331.029519659553" y="102" type="curve"/>
      <point x="331.029519659553" y="216"/>
      <point x="475.029519659553" y="478"/>
      <point x="587.029519659553" y="478" type="curve"/>
      <point x="619.029519659553" y="478"/>
      <point x="648.029519659553" y="462"/>
      <point x="648.029519659553" y="420" type="curve" smooth="yes"/>
      <point x="648.029519659553" y="310"/>
      <point x="469.029519659553" y="52"/>
      <point x="375.029519659553" y="52" type="curve"/>
      <point x="350.029519659553" y="52"/>
      <point x="331.029519659553" y="65"/>
    </contour>
    <contour>
      <point x="889.029519659553" y="310" type="curve"/>
      <point x="889.029519659553" y="508"/>
      <point x="759.029519659553" y="664"/>
      <point x="516.029519659553" y="664" type="curve"/>
      <point x="270.029519659553" y="664"/>
      <point x="70.02951965955297" y="478"/>
      <point x="70.02951965955297" y="218" type="curve"/>
      <point x="70.02951965955297" y="-52"/>
      <point x="269.029519659553" y="-187"/>
      <point x="489.029519659553" y="-187" type="curve" smooth="yes"/>
      <point x="502.029519659553" y="-187"/>
      <point x="515.029519659553" y="-186"/>
      <point x="528.029519659553" y="-185" type="curve"/>
      <point x="528.029519659553" y="-151" type="line"/>
      <point x="515.029519659553" y="-152"/>
      <point x="502.029519659553" y="-153"/>
      <point x="489.029519659553" y="-153" type="curve" smooth="yes"/>
      <point x="289.029519659553" y="-153"/>
      <point x="150.029519659553" y="-32"/>
      <point x="150.029519659553" y="218" type="curve"/>
      <point x="150.029519659553" y="448"/>
      <point x="290.029519659553" y="630"/>
      <point x="516.029519659553" y="630" type="curve"/>
      <point x="739.029519659553" y="630"/>
      <point x="851.029519659553" y="488"/>
      <point x="851.029519659553" y="310" type="curve"/>
      <point x="851.029519659553" y="113"/>
      <point x="722.029519659553" y="39"/>
      <point x="638.029519659553" y="39" type="curve"/>
      <point x="627.029519659553" y="49" type="line"/>
      <point x="761.029519659553" y="510" type="line"/>
      <point x="675.029519659553" y="510" type="line"/>
      <point x="668.029519659553" y="488" type="line"/>
      <point x="658.029519659553" y="488" type="line"/>
      <point x="652.029519659553" y="494"/>
      <point x="633.029519659553" y="510"/>
      <point x="589.029519659553" y="510" type="curve"/>
      <point x="418.029519659553" y="510"/>
      <point x="231.029519659553" y="246"/>
      <point x="231.029519659553" y="88" type="curve"/>
      <point x="231.029519659553" y="16"/>
      <point x="273.029519659553" y="-10"/>
      <point x="331.029519659553" y="-10" type="curve"/>
      <point x="426.029519659553" y="-10"/>
      <point x="515.029519659553" y="80"/>
      <point x="599.029519659553" y="230" type="curve"/>
      <point x="613.029519659553" y="230" type="line"/>
      <point x="568.029519659553" y="116" type="line" smooth="yes"/>
      <point x="548.029519659553" y="65"/>
      <point x="536.029519659553" y="18"/>
      <point x="568.029519659553" y="0" type="curve"/>
      <point x="628.029519659553" y="0" type="line"/>
      <point x="727.029519659553" y="0"/>
      <point x="889.029519659553" y="82"/>
    </contour>
  </outline>
</glyph>
<glyph name="A" format="1">
  <advance width="816"/>
  <unicode hex="0041"/>
  <outline>
    <contour>
      <point x="611.029519659553" y="299" type="line"/>
      <point x="571.029519659553" y="299" type="line"/>
      <point x="558.029519659553" y="289" type="line"/>
      <point x="304.029519659553" y="289" type="line"/>
      <point x="304.029519659553" y="299" type="line"/>
      <point x="263.029519659553" y="299" type="line"/>
      <point x="247.029519659553" y="235" type="line"/>
      <point x="595.029519659553" y="235" type="line"/>
    </contour>
    <contour>
      <point x="7.0295196595529745" y="44" type="line"/>
      <point x="79.02951965955297" y="44" type="line"/>
      <point x="563.029519659553" y="592" type="line"/>
      <point x="573.029519659553" y="592" type="line"/>
      <point x="568.029519659553" y="44" type="line"/>
      <point x="671.029519659553" y="44" type="line"/>
      <point x="671.029519659553" y="760" type="line"/>
      <point x="643.029519659553" y="760" type="line"/>
    </contour>
    <contour>
      <point x="79.02951965955297" y="44" type="line"/>
      <point x="7.0295196595529745" y="44" type="line"/>
      <point x="-5.9704803404470255" y="34" type="line"/>
      <point x="-61.970480340447025" y="34" type="line"/>
      <point x="-69.97048034044703" y="0" type="line"/>
      <point x="-69.97048034044703" y="0"/>
      <point x="166.029519659553" y="0"/>
      <point x="166.029519659553" y="0" type="curve"/>
      <point x="174.029519659553" y="34" type="line"/>
      <point x="86.02951965955297" y="34" type="line"/>
    </contour>
    <contour>
      <point x="671.029519659553" y="44" type="line"/>
      <point x="568.029519659553" y="44" type="line"/>
      <point x="555.029519659553" y="34" type="line"/>
      <point x="467.029519659553" y="34" type="line"/>
      <point x="459.029519659553" y="0" type="line"/>
      <point x="459.029519659553" y="0"/>
      <point x="730.029519659553" y="0"/>
      <point x="730.029519659553" y="0" type="curve"/>
      <point x="738.029519659553" y="34" type="line"/>
      <point x="678.029519659553" y="34" type="line"/>
    </contour>
    <contour>
      <point x="656.029519659553" y="760" type="move" name="top"/>
    </contour>
  </outline>
</glyph>
<glyph name="B" format="1">
  <advance width="740.7275971761044"/>
  <unicode hex="0042"/>
  <outline>
    <contour>
      <point x="189.029519659553" y="716" type="line"/>
      <point x="279.029519659553" y="716" type="line"/>
      <point x="286.029519659553" y="706" type="line"/>
      <point x="121.02951965955297" y="44" type="line"/>
      <point x="108.02951965955297" y="34" type="line"/>
      <point x="18.029519659552975" y="34" type="line"/>
      <point x="10.029519659552975" y="0" type="line"/>
      <point x="332.029519659553" y="0" type="line" smooth="yes"/>
      <point x="524.029519659553" y="0"/>
      <point x="683.029519659553" y="104"/>
      <point x="683.029519659553" y="222" type="curve"/>
      <point x="683.029519659553" y="316"/>
      <point x="610.029519659553" y="364"/>
      <point x="526.029519659553" y="382" type="curve"/>
      <point x="528.029519659553" y="392" type="line"/>
      <point x="611.029519659553" y="410"/>
      <point x="740.029519659553" y="475"/>
      <point x="740.029519659553" y="591" type="curve"/>
      <point x="740.029519659553" y="698"/>
      <point x="650.029519659553" y="750"/>
      <point x="507.029519659553" y="750" type="curve" smooth="yes"/>
      <point x="197.029519659553" y="750" type="line"/>
    </contour>
    <contour>
      <point x="388.029519659553" y="696" type="line"/>
      <point x="478.029519659553" y="696" type="line" smooth="yes"/>
      <point x="561.029519659553" y="696"/>
      <point x="620.029519659553" y="668"/>
      <point x="620.029519659553" y="586" type="curve"/>
      <point x="620.029519659553" y="482"/>
      <point x="531.029519659553" y="408"/>
      <point x="406.029519659553" y="408" type="curve" smooth="yes"/>
      <point x="316.029519659553" y="408" type="line"/>
    </contour>
    <contour>
      <point x="424.029519659553" y="354" type="line" smooth="yes"/>
      <point x="507.029519659553" y="354"/>
      <point x="562.029519659553" y="320"/>
      <point x="562.029519659553" y="237" type="curve"/>
      <point x="562.029519659553" y="116"/>
      <point x="473.029519659553" y="54"/>
      <point x="349.029519659553" y="54" type="curve" smooth="yes"/>
      <point x="227.029519659553" y="54" type="line"/>
      <point x="302.029519659553" y="354" type="line"/>
    </contour>
  </outline>
</glyph>
<glyph name="C" format="1">
  <advance width="781.5183767058265"/>
  <unicode hex="0043"/>
  <outline>
    <contour>
      <point x="730.029519659553" y="190" type="curve"/>
      <point x="709.029519659553" y="218" type="line"/>
      <point x="625.029519659553" y="126"/>
      <point x="533.029519659553" y="50"/>
      <point x="393.029519659553" y="50" type="curve"/>
      <point x="266.029519659553" y="50"/>
      <point x="198.029519659553" y="141"/>
      <point x="198.029519659553" y="285" type="curve"/>
      <point x="198.029519659553" y="506"/>
      <point x="354.029519659553" y="710"/>
      <point x="584.029519659553" y="710" type="curve"/>
      <point x="680.029519659553" y="710"/>
      <point x="774.029519659553" y="667"/>
      <point x="774.029519659553" y="571" type="curve" smooth="yes"/>
      <point x="774.029519659553" y="557"/>
      <point x="772.029519659553" y="543"/>
      <point x="769.029519659553" y="528" type="curve" smooth="yes"/>
      <point x="759.029519659553" y="488" type="line"/>
      <point x="797.029519659553" y="488" type="line"/>
      <point x="862.029519659553" y="750" type="line"/>
      <point x="862.029519659553" y="750"/>
      <point x="824.029519659553" y="750"/>
      <point x="824.029519659553" y="750" type="curve"/>
      <point x="813.029519659553" y="706" type="line"/>
      <point x="802.029519659553" y="706" type="line"/>
      <point x="780.029519659553" y="720"/>
      <point x="699.029519659553" y="760"/>
      <point x="591.029519659553" y="760" type="curve"/>
      <point x="309.029519659553" y="760"/>
      <point x="75.02951965955297" y="514"/>
      <point x="75.02951965955297" y="265" type="curve"/>
      <point x="75.02951965955297" y="80"/>
      <point x="182.029519659553" y="-10"/>
      <point x="355.029519659553" y="-10" type="curve"/>
      <point x="526.029519659553" y="-10"/>
      <point x="637.029519659553" y="86"/>
    </contour>
    <contour>
      <point x="526.029519659553" y="759" type="move" name="top"/>
    </contour>
    <contour>
      <point x="381.029519659553" y="-10" type="move" name="bottom"/>
    </contour>
  </outline>
</glyph>
<glyph name="D" format="1">
  <advance width="877.3794876977481"/>
  <unicode hex="0044"/>
  <outline>
    <contour>
      <point x="189.029519659553" y="716" type="line"/>
      <point x="279.029519659553" y="716" type="line"/>
      <point x="286.029519659553" y="706" type="line"/>
      <point x="121.02951965955297" y="44" type="line"/>
      <point x="108.02951965955297" y="34" type="line"/>
      <point x="18.029519659552975" y="34" type="line"/>
      <point x="10.029519659552975" y="0" type="line"/>
      <point x="330.029519659553" y="0" type="line" smooth="yes"/>
      <point x="661.029519659553" y="0"/>
      <point x="869.029519659553" y="233"/>
      <point x="869.029519659553" y="467" type="curve"/>
      <point x="869.029519659553" y="661"/>
      <point x="720.029519659553" y="750"/>
      <point x="499.029519659553" y="750" type="curve" smooth="yes"/>
      <point x="197.029519659553" y="750" type="line"/>
    </contour>
    <contour>
      <point x="388.029519659553" y="696" type="line"/>
      <point x="482.029519659553" y="696" type="line" smooth="yes"/>
      <point x="656.029519659553" y="696"/>
      <point x="746.029519659553" y="619"/>
      <point x="746.029519659553" y="457" type="curve"/>
      <point x="746.029519659553" y="247"/>
      <point x="605.029519659553" y="54"/>
      <point x="333.029519659553" y="54" type="curve" smooth="yes"/>
      <point x="227.029519659553" y="54" type="line"/>
    </contour>
  </outline>
</glyph>
<glyph name="E" format="1">
  <advance width="750.0"/>
  <unicode hex="0045"/>
  <outline>
    <contour>
      <point x="304.029519659553" y="360" type="line"/>
      <point x="536.029519659553" y="360" type="line"/>
      <point x="543.029519659553" y="350" type="line"/>
      <point x="525.029519659553" y="278" type="line"/>
      <point x="563.029519659553" y="278" type="line"/>
      <point x="618.029519659553" y="496" type="line"/>
      <point x="580.029519659553" y="496" type="line"/>
      <point x="562.029519659553" y="424" type="line"/>
      <point x="549.029519659553" y="414" type="line"/>
      <point x="317.029519659553" y="414" type="line"/>
      <point x="386.029519659553" y="688" type="line"/>
      <point x="622.029519659553" y="688" type="line" smooth="yes"/>
      <point x="707.3628529928864" y="688.0"/>
      <point x="727.029519659553" y="668"/>
      <point x="705.029519659553" y="580" type="curve" smooth="yes"/>
      <point x="695.029519659553" y="540" type="line"/>
      <point x="733.029519659553" y="540" type="line"/>
      <point x="787.029519659553" y="750" type="line"/>
      <point x="197.029519659553" y="750" type="line"/>
      <point x="189.029519659553" y="716" type="line"/>
      <point x="279.029519659553" y="716" type="line"/>
      <point x="286.029519659553" y="706" type="line"/>
      <point x="121.02951965955297" y="45" type="line"/>
      <point x="107.02951965955297" y="34" type="line"/>
      <point x="17.029519659552975" y="34" type="line"/>
      <point x="9.029519659552975" y="0" type="line"/>
      <point x="624.029519659553" y="0" type="line"/>
      <point x="681.029519659553" y="220" type="line"/>
      <point x="643.029519659553" y="220" type="line"/>
      <point x="629.029519659553" y="170" type="line" smooth="yes"/>
      <point x="605.029519659553" y="85"/>
      <point x="579.029519659553" y="62"/>
      <point x="493.029519659553" y="62" type="curve" smooth="yes"/>
      <point x="229.029519659553" y="62" type="line"/>
    </contour>
    <contour>
      <point x="500.029519659553" y="760" type="move" name="top"/>
    </contour>
  </outline>
</glyph>
<glyph name="F" format="1">
  <advance width="712.1574916902437"/>
  <unicode hex="0046"/>
  <outline>
    <contour>
      <point x="304.029519659553" y="360" type="line"/>
      <point x="576.029519659553" y="360" type="line"/>
      <point x="583.029519659553" y="350" type="line"/>
      <point x="565.029519659553" y="278" type="line"/>
      <point x="603.029519659553" y="278" type="line"/>
      <point x="658.029519659553" y="496" type="line"/>
      <point x="620.029519659553" y="496" type="line"/>
      <point x="602.029519659553" y="424" type="line"/>
      <point x="589.029519659553" y="414" type="line"/>
      <point x="317.029519659553" y="414" type="line"/>
      <point x="386.029519659553" y="688" type="line"/>
      <point x="672.029519659553" y="688" type="line" smooth="yes"/>
      <point x="736.029519659553" y="688"/>
      <point x="761.029519659553" y="676"/>
      <point x="761.029519659553" y="634" type="curve" smooth="yes"/>
      <point x="761.029519659553" y="620"/>
      <point x="758.029519659553" y="602"/>
      <point x="753.029519659553" y="580" type="curve"/>
      <point x="743.029519659553" y="540" type="line"/>
      <point x="781.029519659553" y="540" type="line"/>
      <point x="833.029519659553" y="750" type="line"/>
      <point x="197.029519659553" y="750" type="line"/>
      <point x="189.029519659553" y="716" type="line"/>
      <point x="279.029519659553" y="716" type="line"/>
      <point x="286.029519659553" y="706" type="line"/>
      <point x="121.02951965955297" y="44" type="line"/>
      <point x="225.029519659553" y="44" type="line"/>
    </contour>
    <contour>
      <point x="225.029519659553" y="44" type="line"/>
      <point x="121.02951965955297" y="44" type="line"/>
      <point x="108.02951965955297" y="34" type="line"/>
      <point x="18.029519659552975" y="34" type="line"/>
      <point x="10.029519659552975" y="0" type="line"/>
      <point x="10.029519659552975" y="0"/>
      <point x="344.029519659553" y="0"/>
      <point x="344.029519659553" y="0" type="curve"/>
      <point x="352.029519659553" y="34" type="line"/>
      <point x="232.029519659553" y="34" type="line"/>
    </contour>
  </outline>
</glyph>
<glyph name="G" format="1">
  <advance width="847.8005319280758"/>
  <unicode hex="0047"/>
  <outline>
    <contour>
      <point x="668.029519659553" y="90" type="line"/>
      <point x="646.029519659553" y="0" type="line"/>
      <point x="684.029519659553" y="0" type="line"/>
      <point x="774.029519659553" y="322" type="line"/>
      <point x="787.029519659553" y="332" type="line"/>
      <point x="847.029519659553" y="332" type="line"/>
      <point x="855.029519659553" y="366" type="line"/>
      <point x="601.029519659553" y="366" type="line"/>
      <point x="593.029519659553" y="332" type="line"/>
      <point x="683.029519659553" y="332" type="line"/>
      <point x="690.029519659553" y="322" type="line"/>
      <point x="669.029519659553" y="250" type="line" smooth="yes"/>
      <point x="637.029519659553" y="139"/>
      <point x="538.029519659553" y="40"/>
      <point x="403.029519659553" y="40" type="curve"/>
      <point x="265.029519659553" y="40"/>
      <point x="198.029519659553" y="141"/>
      <point x="198.029519659553" y="285" type="curve"/>
      <point x="198.029519659553" y="505"/>
      <point x="353.029519659553" y="710"/>
      <point x="585.029519659553" y="710" type="curve"/>
      <point x="681.029519659553" y="710"/>
      <point x="775.029519659553" y="667"/>
      <point x="775.029519659553" y="571" type="curve" smooth="yes"/>
      <point x="775.029519659553" y="557"/>
      <point x="773.029519659553" y="543"/>
      <point x="770.029519659553" y="528" type="curve" smooth="yes"/>
      <point x="760.029519659553" y="488" type="line"/>
      <point x="798.029519659553" y="488" type="line"/>
      <point x="863.029519659553" y="750" type="line"/>
      <point x="825.029519659553" y="750" type="line"/>
      <point x="814.029519659553" y="706" type="line"/>
      <point x="803.029519659553" y="706" type="line"/>
      <point x="780.029519659553" y="720"/>
      <point x="701.029519659553" y="760"/>
      <point x="591.029519659553" y="760" type="curve"/>
      <point x="308.029519659553" y="760"/>
      <point x="75.02951965955297" y="514"/>
      <point x="75.02951965955297" y="265" type="curve"/>
      <point x="75.02951965955297" y="79"/>
      <point x="189.029519659553" y="-10"/>
      <point x="355.029519659553" y="-10" type="curve"/>
      <point x="523.029519659553" y="-10"/>
      <point x="621.029519659553" y="65"/>
      <point x="658.029519659553" y="90" type="curve"/>
    </contour>
  </outline>
</glyph>
<glyph name="H" format="1">
  <advance width="924.0"/>
  <unicode hex="0048"/>
  <outline>
    <contour>
      <point x="732.029519659553" y="402" type="line"/>
      <point x="261.029519659553" y="402" type="line"/>
      <point x="248.029519659553" y="348" type="line"/>
      <point x="719.029519659553" y="348" type="line"/>
    </contour>
    <contour>
      <point x="225.029519659553" y="44" type="line"/>
      <point x="390.029519659553" y="706" type="line"/>
      <point x="390.029519659553" y="706"/>
      <point x="286.029519659553" y="706"/>
      <point x="286.029519659553" y="706" type="curve"/>
      <point x="121.02951965955297" y="44" type="line"/>
    </contour>
    <contour>
      <point x="225.029519659553" y="44" type="line"/>
      <point x="121.02951965955297" y="44" type="line"/>
      <point x="108.02951965955297" y="34" type="line"/>
      <point x="18.029519659552975" y="34" type="line"/>
      <point x="10.029519659552975" y="0" type="line"/>
      <point x="10.029519659552975" y="0"/>
      <point x="308.029519659553" y="0"/>
      <point x="308.029519659553" y="0" type="curve"/>
      <point x="316.029519659553" y="34" type="line"/>
      <point x="232.029519659553" y="34" type="line"/>
    </contour>
    <contour>
      <point x="390.029519659553" y="706" type="line"/>
      <point x="403.029519659553" y="716" type="line"/>
      <point x="487.029519659553" y="716" type="line"/>
      <point x="495.029519659553" y="750" type="line"/>
      <point x="495.029519659553" y="750"/>
      <point x="197.029519659553" y="750"/>
      <point x="197.029519659553" y="750" type="curve"/>
      <point x="189.029519659553" y="716" type="line"/>
      <point x="279.029519659553" y="716" type="line"/>
      <point x="286.029519659553" y="706" type="line"/>
    </contour>
    <contour>
      <point x="709.029519659553" y="44" type="line"/>
      <point x="874.029519659553" y="706" type="line"/>
      <point x="874.029519659553" y="706"/>
      <point x="770.029519659553" y="706"/>
      <point x="770.029519659553" y="706" type="curve"/>
      <point x="605.029519659553" y="44" type="line"/>
    </contour>
    <contour>
      <point x="709.029519659553" y="44" type="line"/>
      <point x="605.029519659553" y="44" type="line"/>
      <point x="592.029519659553" y="34" type="line"/>
      <point x="508.029519659553" y="34" type="line"/>
      <point x="500.029519659553" y="0" type="line"/>
      <point x="500.029519659553" y="0"/>
      <point x="798.029519659553" y="0"/>
      <point x="798.029519659553" y="0" type="curve"/>
      <point x="806.029519659553" y="34" type="line"/>
      <point x="716.029519659553" y="34" type="line"/>
    </contour>
    <contour>
      <point x="874.029519659553" y="706" type="line"/>
      <point x="887.029519659553" y="716" type="line"/>
      <point x="977.029519659553" y="716" type="line"/>
      <point x="985.029519659553" y="750" type="line"/>
      <point x="985.029519659553" y="750"/>
      <point x="687.029519659553" y="750"/>
      <point x="687.029519659553" y="750" type="curve"/>
      <point x="679.029519659553" y="716" type="line"/>
      <point x="763.029519659553" y="716" type="line"/>
      <point x="770.029519659553" y="706" type="line"/>
    </contour>
  </outline>
</glyph>
<glyph name="I" format="1">
  <advance width="440.0"/>
  <unicode hex="0049"/>
  <outline>
    <contour>
      <point x="225.029519659553" y="44" type="line"/>
      <point x="390.029519659553" y="706" type="line"/>
      <point x="390.029519659553" y="706"/>
      <point x="286.029519659553" y="706"/>
      <point x="286.029519659553" y="706" type="curve"/>
      <point x="121.02951965955297" y="44" type="line"/>
    </contour>
    <contour>
      <point x="225.029519659553" y="44" type="line"/>
      <point x="121.02951965955297" y="44" type="line"/>
      <point x="108.02951965955297" y="34" type="line"/>
      <point x="18.029519659552975" y="34" type="line"/>
      <point x="10.029519659552975" y="0" type="line"/>
      <point x="10.029519659552975" y="0"/>
      <point x="314.029519659553" y="0"/>
      <point x="314.029519659553" y="0" type="curve"/>
      <point x="322.029519659553" y="34" type="line"/>
      <point x="232.029519659553" y="34" type="line"/>
    </contour>
    <contour>
      <point x="390.029519659553" y="706" type="line"/>
      <point x="403.029519659553" y="716" type="line"/>
      <point x="493.029519659553" y="716" type="line"/>
      <point x="501.029519659553" y="750" type="line"/>
      <point x="501.029519659553" y="750"/>
      <point x="197.029519659553" y="750"/>
      <point x="197.029519659553" y="750" type="curve"/>
      <point x="189.029519659553" y="716" type="line"/>
      <point x="279.029519659553" y="716" type="line"/>
      <point x="286.029519659553" y="706" type="line"/>
    </contour>
    <contour>
      <point x="355.029519659553" y="760" type="move" name="top"/>
    </contour>
  </outline>
</glyph>
<glyph name="J" format="1">
  <advance width="355.6903037966935"/>
  <unicode hex="004A"/>
  <outline>
    <contour>
      <point x="234.029519659553" y="194" type="curve" smooth="yes"/>
      <point x="362.029519659553" y="706" type="line"/>
      <point x="375.029519659553" y="716" type="line"/>
      <point x="455.029519659553" y="716" type="line"/>
      <point x="463.029519659553" y="750" type="line"/>
      <point x="165.029519659553" y="750" type="line"/>
      <point x="157.029519659553" y="716" type="line"/>
      <point x="251.029519659553" y="716" type="line"/>
      <point x="258.029519659553" y="706" type="line"/>
      <point x="117.02951965955297" y="140" type="line" smooth="yes"/>
      <point x="90.02951965955297" y="34"/>
      <point x="34.029519659552975" y="-32"/>
      <point x="-72.97048034044703" y="-52" type="curve" smooth="yes"/>
      <point x="-93.97048034044703" y="-56" type="line"/>
      <point x="-89.97048034044703" y="-88" type="line"/>
      <point x="-76.97048034044703" y="-86" type="line" smooth="yes"/>
      <point x="111.02951965955297" y="-56"/>
      <point x="196.029519659553" y="40"/>
    </contour>
  </outline>
</glyph>
<glyph name="K" format="1">
  <advance width="810.0"/>
  <unicode hex="004B"/>
  <outline>
    <contour>
      <point x="225.029519659553" y="44" type="line"/>
      <point x="305.029519659553" y="364" type="line"/>
      <point x="315.029519659553" y="364" type="line"/>
      <point x="560.029519659553" y="0" type="line"/>
      <point x="724.029519659553" y="0" type="line"/>
      <point x="732.029519659553" y="34" type="line"/>
      <point x="673.029519659553" y="34" type="line"/>
      <point x="409.029519659553" y="406" type="line"/>
      <point x="811.029519659553" y="716" type="line"/>
      <point x="871.029519659553" y="716" type="line"/>
      <point x="879.029519659553" y="750" type="line"/>
      <point x="639.029519659553" y="750" type="line"/>
      <point x="631.029519659553" y="716" type="line"/>
      <point x="707.029519659553" y="716" type="line"/>
      <point x="714.029519659553" y="706" type="line"/>
      <point x="323.029519659553" y="398" type="line"/>
      <point x="313.029519659553" y="398" type="line"/>
      <point x="390.029519659553" y="706" type="line"/>
      <point x="403.029519659553" y="716" type="line"/>
      <point x="487.029519659553" y="716" type="line"/>
      <point x="495.029519659553" y="750" type="line"/>
      <point x="197.029519659553" y="750" type="line"/>
      <point x="189.029519659553" y="716" type="line"/>
      <point x="279.029519659553" y="716" type="line"/>
      <point x="286.029519659553" y="706" type="line"/>
      <point x="121.02951965955297" y="44" type="line"/>
      <point x="108.02951965955297" y="34" type="line"/>
      <point x="18.029519659552975" y="34" type="line"/>
      <point x="10.029519659552975" y="0" type="line"/>
      <point x="318.029519659553" y="0" type="line"/>
      <point x="326.029519659553" y="34" type="line"/>
      <point x="232.029519659553" y="34" type="line"/>
    </contour>
  </outline>
</glyph>
<glyph name="L" format="1">
  <advance width="710.0"/>
  <unicode hex="004C"/>
  <outline>
    <contour>
      <point x="390.029519659553" y="706" type="line"/>
      <point x="286.029519659553" y="706" type="line"/>
      <point x="121.02951965955297" y="45" type="line"/>
      <point x="107.02951965955297" y="34" type="line"/>
      <point x="17.029519659552975" y="34" type="line"/>
      <point x="9.029519659552975" y="0" type="line"/>
      <point x="604.029519659553" y="0" type="line"/>
      <point x="659.029519659553" y="220" type="line"/>
      <point x="621.029519659553" y="220" type="line"/>
      <point x="608.029519659553" y="170" type="line" smooth="yes"/>
      <point x="587.029519659553" y="84"/>
      <point x="551.029519659553" y="62"/>
      <point x="465.029519659553" y="62" type="curve" smooth="yes"/>
      <point x="229.029519659553" y="62" type="line"/>
    </contour>
    <contour>
      <point x="390.029519659553" y="706" type="line"/>
      <point x="403.029519659553" y="716" type="line"/>
      <point x="513.029519659553" y="716" type="line"/>
      <point x="521.029519659553" y="750" type="line"/>
      <point x="521.029519659553" y="750"/>
      <point x="197.029519659553" y="750"/>
      <point x="197.029519659553" y="750" type="curve"/>
      <point x="189.029519659553" y="716" type="line"/>
      <point x="279.029519659553" y="716" type="line"/>
      <point x="286.029519659553" y="706" type="line"/>
    </contour>
  </outline>
</glyph>
<glyph name="M" format="1">
  <advance width="1101.0"/>
  <unicode hex="004D"/>
  <outline>
    <contour>
      <point x="527.029519659553" y="162" type="line"/>
      <point x="516.029519659553" y="162" type="line"/>
      <point x="417.029519659553" y="750" type="line"/>
      <point x="197.029519659553" y="750" type="line"/>
      <point x="189.029519659553" y="716" type="line"/>
      <point x="279.029519659553" y="716" type="line"/>
      <point x="286.029519659553" y="706" type="line"/>
      <point x="113.02951965955297" y="44" type="line"/>
      <point x="100.02951965955297" y="34" type="line"/>
      <point x="10.029519659552975" y="34" type="line"/>
      <point x="2.0295196595529745" y="0" type="line"/>
      <point x="268.029519659553" y="0" type="line"/>
      <point x="276.029519659553" y="34" type="line"/>
      <point x="182.029519659553" y="34" type="line"/>
      <point x="175.029519659553" y="44" type="line"/>
      <point x="322.029519659553" y="621" type="line"/>
      <point x="332.029519659553" y="621" type="line"/>
      <point x="444.029519659553" y="-11" type="line"/>
      <point x="466.029519659553" y="-11" type="line"/>
      <point x="912.029519659553" y="604" type="line"/>
      <point x="922.029519659553" y="604" type="line"/>
      <point x="789.029519659553" y="45" type="line"/>
      <point x="775.029519659553" y="34" type="line"/>
      <point x="681.029519659553" y="34" type="line"/>
      <point x="673.029519659553" y="0" type="line"/>
      <point x="983.029519659553" y="0" type="line"/>
      <point x="991.029519659553" y="34" type="line"/>
      <point x="901.029519659553" y="34" type="line"/>
      <point x="893.029519659553" y="45" type="line"/>
      <point x="1050.029519659553" y="705" type="line"/>
      <point x="1064.029519659553" y="716" type="line"/>
      <point x="1154.029519659553" y="716" type="line"/>
      <point x="1162.029519659553" y="750" type="line"/>
      <point x="947.029519659553" y="750" type="line"/>
    </contour>
  </outline>
</glyph>
<glyph name="N" format="1">
  <advance width="873.6903037966936"/>
  <unicode hex="004E"/>
  <outline>
    <contour>
      <point x="314.029519659553" y="588" type="line"/>
      <point x="324.029519659553" y="588" type="line"/>
      <point x="670.029519659553" y="0" type="line"/>
      <point x="704.029519659553" y="0" type="line"/>
      <point x="880.029519659553" y="706" type="line"/>
      <point x="893.029519659553" y="716" type="line"/>
      <point x="973.029519659553" y="716" type="line"/>
      <point x="981.029519659553" y="750" type="line"/>
      <point x="725.029519659553" y="750" type="line"/>
      <point x="717.029519659553" y="716" type="line"/>
      <point x="811.029519659553" y="716" type="line"/>
      <point x="818.029519659553" y="706" type="line"/>
      <point x="693.029519659553" y="193" type="line"/>
      <point x="683.029519659553" y="193" type="line"/>
      <point x="353.029519659553" y="750" type="line"/>
      <point x="167.029519659553" y="750" type="line"/>
      <point x="159.029519659553" y="716" type="line"/>
      <point x="221.029519659553" y="716" type="line"/>
      <point x="271.029519659553" y="646" type="line"/>
      <point x="121.02951965955297" y="44" type="line"/>
      <point x="108.02951965955297" y="34" type="line"/>
      <point x="14.029519659552975" y="34" type="line"/>
      <point x="6.0295196595529745" y="0" type="line"/>
      <point x="276.029519659553" y="0" type="line"/>
      <point x="284.029519659553" y="34" type="line"/>
      <point x="190.029519659553" y="34" type="line"/>
      <point x="183.029519659553" y="44" type="line"/>
    </contour>
    <contour>
      <point x="579.029519659553" y="760" type="move" name="top"/>
    </contour>
  </outline>
</glyph>
<glyph name="O" format="1">
  <advance width="834.0498285581252"/>
  <unicode hex="004F"/>
  <outline>
    <contour>
      <point x="377.029519659553" y="34" type="curve"/>
      <point x="265.029519659553" y="34"/>
      <point x="197.029519659553" y="117"/>
      <point x="197.029519659553" y="262" type="curve"/>
      <point x="197.029519659553" y="477"/>
      <point x="335.029519659553" y="716"/>
      <point x="528.029519659553" y="716" type="curve"/>
      <point x="640.029519659553" y="716"/>
      <point x="708.029519659553" y="633"/>
      <point x="708.029519659553" y="488" type="curve"/>
      <point x="708.029519659553" y="273"/>
      <point x="570.029519659553" y="34"/>
    </contour>
    <contour>
      <point x="347.029519659553" y="-10" type="curve"/>
      <point x="621.029519659553" y="-10"/>
      <point x="831.029519659553" y="250"/>
      <point x="831.029519659553" y="491" type="curve"/>
      <point x="831.029519659553" y="653"/>
      <point x="726.029519659553" y="760"/>
      <point x="558.029519659553" y="760" type="curve"/>
      <point x="284.029519659553" y="760"/>
      <point x="74.02951965955297" y="500"/>
      <point x="74.02951965955297" y="259" type="curve"/>
      <point x="74.02951965955297" y="97"/>
      <point x="179.029519659553" y="-10"/>
    </contour>
    <contour>
      <point x="548.029519659553" y="759" type="move" name="top"/>
    </contour>
  </outline>
</glyph>
<glyph name="P" format="1">
  <advance width="694.2822671983921"/>
  <unicode hex="0050"/>
  <outline>
    <contour>
      <point x="288.029519659553" y="335" type="line"/>
      <point x="301.029519659553" y="389" type="line"/>
      <point x="415.029519659553" y="389" type="line" smooth="yes"/>
      <point x="530.029519659553" y="389"/>
      <point x="626.029519659553" y="446"/>
      <point x="626.029519659553" y="576" type="curve"/>
      <point x="626.029519659553" y="661"/>
      <point x="573.029519659553" y="696"/>
      <point x="492.029519659553" y="696" type="curve" smooth="yes"/>
      <point x="378.029519659553" y="696" type="line"/>
      <point x="391.029519659553" y="750" type="line"/>
      <point x="517.029519659553" y="750" type="line" smooth="yes"/>
      <point x="659.029519659553" y="750"/>
      <point x="746.029519659553" y="690"/>
      <point x="746.029519659553" y="578" type="curve"/>
      <point x="746.029519659553" y="440"/>
      <point x="606.029519659553" y="335"/>
      <point x="414.029519659553" y="335" type="curve" smooth="yes"/>
    </contour>
    <contour>
      <point x="401.029519659553" y="750" type="line"/>
      <point x="225.029519659553" y="44" type="line"/>
      <point x="232.029519659553" y="34" type="line"/>
      <point x="350.029519659553" y="34" type="line"/>
      <point x="342.029519659553" y="0" type="line"/>
      <point x="10.029519659552975" y="0" type="line"/>
      <point x="18.029519659552975" y="34" type="line"/>
      <point x="108.02951965955297" y="34" type="line"/>
      <point x="121.02951965955297" y="44" type="line"/>
      <point x="286.029519659553" y="706" type="line"/>
      <point x="279.029519659553" y="716" type="line"/>
      <point x="189.029519659553" y="716" type="line"/>
      <point x="197.029519659553" y="750" type="line"/>
    </contour>
  </outline>
</glyph>
<glyph name="Q" format="1">
  <advance width="834.0498285581252"/>
  <unicode hex="0051"/>
  <outline>
    <contour>
      <point x="427.029519659553" y="194" type="line"/>
      <point x="666.029519659553" y="-44" type="line"/>
      <point x="700.029519659553" y="-10" type="line"/>
      <point x="580.029519659553" y="110" type="line"/>
      <point x="570.029519659553" y="129" type="line"/>
      <point x="560.029519659553" y="129" type="line"/>
      <point x="461.029519659553" y="228" type="line"/>
    </contour>
    <component base="O"/>
  </outline>
</glyph>
<glyph name="R" format="1">
  <advance width="816.0"/>
  <unicode hex="0052"/>
  <outline>
    <contour>
      <point x="304.029519659553" y="360" type="line"/>
      <point x="380.029519659553" y="360" type="line"/>
      <point x="575.029519659553" y="0" type="line"/>
      <point x="750.029519659553" y="0" type="line"/>
      <point x="758.029519659553" y="34" type="line"/>
      <point x="682.029519659553" y="34" type="line"/>
      <point x="493.029519659553" y="360" type="line"/>
      <point x="493.029519659553" y="370" type="line"/>
      <point x="619.029519659553" y="388"/>
      <point x="751.029519659553" y="465"/>
      <point x="751.029519659553" y="592" type="curve"/>
      <point x="751.029519659553" y="691"/>
      <point x="675.029519659553" y="750"/>
      <point x="529.029519659553" y="750" type="curve" smooth="yes"/>
      <point x="197.029519659553" y="750" type="line"/>
      <point x="189.029519659553" y="716" type="line"/>
      <point x="279.029519659553" y="716" type="line"/>
      <point x="286.029519659553" y="706" type="line"/>
      <point x="121.02951965955297" y="44" type="line"/>
      <point x="108.02951965955297" y="34" type="line"/>
      <point x="18.029519659552975" y="34" type="line"/>
      <point x="10.029519659552975" y="0" type="line"/>
      <point x="322.029519659553" y="0" type="line"/>
      <point x="330.029519659553" y="34" type="line"/>
      <point x="232.029519659553" y="34" type="line"/>
      <point x="225.029519659553" y="44" type="line"/>
    </contour>
    <contour>
      <point x="388.029519659553" y="696" type="line"/>
      <point x="488.029519659553" y="696" type="line" smooth="yes"/>
      <point x="574.029519659553" y="696"/>
      <point x="631.029519659553" y="669"/>
      <point x="631.029519659553" y="590" type="curve"/>
      <point x="631.029519659553" y="480"/>
      <point x="510.029519659553" y="394"/>
      <point x="312.029519659553" y="394" type="curve"/>
    </contour>
  </outline>
</glyph>
<glyph name="S" format="1">
  <advance width="611.8985204709862"/>
  <unicode hex="0053"/>
  <outline>
    <contour>
      <point x="266.029519659553" y="760"/>
      <point x="158.029519659553" y="672"/>
      <point x="158.029519659553" y="549" type="curve"/>
      <point x="158.029519659553" y="477"/>
      <point x="200.029519659553" y="435"/>
      <point x="243.029519659553" y="398" type="curve" smooth="yes"/>
      <point x="350.029519659553" y="306" type="line" smooth="yes"/>
      <point x="402.029519659553" y="261"/>
      <point x="422.029519659553" y="223"/>
      <point x="422.029519659553" y="172" type="curve"/>
      <point x="422.029519659553" y="92"/>
      <point x="364.029519659553" y="34"/>
      <point x="253.029519659553" y="34" type="curve" smooth="yes"/>
      <point x="123.71373018586876" y="34.0"/>
      <point x="82.02951965955297" y="140"/>
      <point x="98.02951965955297" y="226" type="curve" smooth="yes"/>
      <point x="104.02951965955297" y="258" type="line"/>
      <point x="66.02951965955297" y="258" type="line"/>
      <point x="6.0295196595529745" y="-1" type="line"/>
      <point x="6.0295196595529745" y="-1"/>
      <point x="44.029519659552975" y="-1"/>
      <point x="44.029519659552975" y="-1" type="curve"/>
      <point x="55.029519659552975" y="43" type="line"/>
      <point x="66.02951965955297" y="43" type="line"/>
      <point x="91.02951965955297" y="28"/>
      <point x="155.029519659553" y="-10"/>
      <point x="263.029519659553" y="-10" type="curve"/>
      <point x="453.029519659553" y="-10"/>
      <point x="537.029519659553" y="111"/>
      <point x="537.029519659553" y="211" type="curve"/>
      <point x="537.029519659553" y="281"/>
      <point x="489.029519659553" y="336"/>
      <point x="437.029519659553" y="380" type="curve" smooth="yes"/>
      <point x="332.029519659553" y="470" type="line" smooth="yes"/>
      <point x="290.029519659553" y="506"/>
      <point x="260.029519659553" y="534"/>
      <point x="260.029519659553" y="591" type="curve"/>
      <point x="260.029519659553" y="663"/>
      <point x="319.029519659553" y="716"/>
      <point x="407.029519659553" y="716" type="curve"/>
      <point x="529.5761863262196" y="716.0"/>
      <point x="575.029519659553" y="626"/>
      <point x="548.029519659553" y="524" type="curve" smooth="yes"/>
      <point x="539.029519659553" y="490" type="line"/>
      <point x="577.029519659553" y="490" type="line"/>
      <point x="642.029519659553" y="750" type="line"/>
      <point x="642.029519659553" y="750"/>
      <point x="604.029519659553" y="750"/>
      <point x="604.029519659553" y="750" type="curve"/>
      <point x="593.029519659553" y="706" type="line"/>
      <point x="583.029519659553" y="706" type="line"/>
      <point x="557.029519659553" y="724"/>
      <point x="505.029519659553" y="760"/>
      <point x="405.029519659553" y="760" type="curve"/>
    </contour>
  </outline>
</glyph>
<glyph name="T" format="1">
  <advance width="692.1574916902437"/>
  <unicode hex="0054"/>
  <outline>
    <contour>
      <point x="361.029519659553" y="44" type="line"/>
      <point x="522.029519659553" y="688" type="line"/>
      <point x="522.029519659553" y="688"/>
      <point x="418.029519659553" y="688"/>
      <point x="418.029519659553" y="688" type="curve"/>
      <point x="257.029519659553" y="44" type="line"/>
    </contour>
    <contour>
      <point x="361.029519659553" y="44" type="line"/>
      <point x="257.029519659553" y="44" type="line"/>
      <point x="244.029519659553" y="34" type="line"/>
      <point x="154.029519659553" y="34" type="line"/>
      <point x="146.029519659553" y="0" type="line"/>
      <point x="146.029519659553" y="0"/>
      <point x="450.029519659553" y="0"/>
      <point x="450.029519659553" y="0" type="curve"/>
      <point x="458.029519659553" y="34" type="line"/>
      <point x="368.029519659553" y="34" type="line"/>
    </contour>
    <contour>
      <point x="153.029519659553" y="580" type="line" smooth="yes"/>
      <point x="174.029519659553" y="666"/>
      <point x="202.029519659553" y="688"/>
      <point x="288.029519659553" y="688" type="curve" smooth="yes"/>
      <point x="652.029519659553" y="688" type="line" smooth="yes"/>
      <point x="716.029519659553" y="688"/>
      <point x="741.029519659553" y="676"/>
      <point x="741.029519659553" y="634" type="curve" smooth="yes"/>
      <point x="741.029519659553" y="620"/>
      <point x="738.029519659553" y="602"/>
      <point x="733.029519659553" y="580" type="curve" smooth="yes"/>
      <point x="723.029519659553" y="540" type="line"/>
      <point x="761.029519659553" y="540" type="line"/>
      <point x="813.029519659553" y="750" type="line"/>
      <point x="157.029519659553" y="750" type="line"/>
      <point x="105.02951965955297" y="540" type="line"/>
      <point x="143.029519659553" y="540" type="line"/>
    </contour>
  </outline>
</glyph>
<glyph name="U" format="1">
  <advance width="812"/>
  <unicode hex="0055"/>
  <outline>
    <contour>
      <point x="356.029519659553" y="-10" type="curve"/>
      <point x="538.029519659553" y="-10"/>
      <point x="664.029519659553" y="88"/>
      <point x="717.029519659553" y="300" type="curve" smooth="yes"/>
      <point x="818.029519659553" y="706" type="line"/>
      <point x="831.029519659553" y="716" type="line"/>
      <point x="911.029519659553" y="716" type="line"/>
      <point x="919.029519659553" y="750" type="line"/>
      <point x="663.029519659553" y="750" type="line"/>
      <point x="655.029519659553" y="716" type="line"/>
      <point x="749.029519659553" y="716" type="line"/>
      <point x="756.029519659553" y="706" type="line"/>
      <point x="655.029519659553" y="300" type="line" smooth="yes"/>
      <point x="609.029519659553" y="115"/>
      <point x="514.029519659553" y="60"/>
      <point x="398.029519659553" y="60" type="curve"/>
      <point x="304.029519659553" y="60"/>
      <point x="241.029519659553" y="96"/>
      <point x="241.029519659553" y="189" type="curve" smooth="yes"/>
      <point x="241.029519659553" y="214"/>
      <point x="245.029519659553" y="244"/>
      <point x="253.029519659553" y="278" type="curve" smooth="yes"/>
      <point x="360.029519659553" y="706" type="line"/>
      <point x="360.029519659553" y="706"/>
      <point x="256.029519659553" y="706"/>
      <point x="256.029519659553" y="706" type="curve"/>
      <point x="149.029519659553" y="276" type="line" smooth="yes"/>
      <point x="139.029519659553" y="235"/>
      <point x="134.029519659553" y="200"/>
      <point x="134.029519659553" y="169" type="curve" smooth="yes"/>
      <point x="134.029519659553" y="43"/>
      <point x="221.029519659553" y="-10"/>
    </contour>
    <contour>
      <point x="360.029519659553" y="706" type="line"/>
      <point x="373.029519659553" y="716" type="line"/>
      <point x="467.029519659553" y="716" type="line"/>
      <point x="475.029519659553" y="750" type="line"/>
      <point x="475.029519659553" y="750"/>
      <point x="177.029519659553" y="750"/>
      <point x="177.029519659553" y="750" type="curve"/>
      <point x="169.029519659553" y="716" type="line"/>
      <point x="249.029519659553" y="716" type="line"/>
      <point x="256.029519659553" y="706" type="line"/>
    </contour>
    <contour>
      <point x="551.029519659553" y="760" type="move" name="top"/>
    </contour>
  </outline>
</glyph>
<glyph name="V" format="1">
  <advance width="815.6903037966936"/>
  <unicode hex="0056"/>
  <outline>
    <contour>
      <point x="880.029519659553" y="706" type="line"/>
      <point x="808.029519659553" y="706" type="line"/>
      <point x="324.029519659553" y="154" type="line"/>
      <point x="314.029519659553" y="154" type="line"/>
      <point x="319.029519659553" y="706" type="line"/>
      <point x="216.029519659553" y="706" type="line"/>
      <point x="216.029519659553" y="-10" type="line"/>
      <point x="244.029519659553" y="-10" type="line"/>
    </contour>
    <contour>
      <point x="808.029519659553" y="706" type="line"/>
      <point x="880.029519659553" y="706" type="line"/>
      <point x="893.029519659553" y="716" type="line"/>
      <point x="949.029519659553" y="716" type="line"/>
      <point x="957.029519659553" y="750" type="line"/>
      <point x="957.029519659553" y="750"/>
      <point x="721.029519659553" y="750"/>
      <point x="721.029519659553" y="750" type="curve"/>
      <point x="713.029519659553" y="716" type="line"/>
      <point x="801.029519659553" y="716" type="line"/>
    </contour>
    <contour>
      <point x="216.029519659553" y="706" type="line"/>
      <point x="319.029519659553" y="706" type="line"/>
      <point x="332.029519659553" y="716" type="line"/>
      <point x="420.029519659553" y="716" type="line"/>
      <point x="428.029519659553" y="750" type="line"/>
      <point x="428.029519659553" y="750"/>
      <point x="157.029519659553" y="750"/>
      <point x="157.029519659553" y="750" type="curve"/>
      <point x="149.029519659553" y="716" type="line"/>
      <point x="209.029519659553" y="716" type="line"/>
    </contour>
  </outline>
</glyph>
<glyph name="W" format="1">
  <advance width="1165.6903037966936"/>
  <unicode hex="0057"/>
  <outline>
    <contour>
      <point x="216.029519659553" y="706" type="line"/>
      <point x="319.029519659553" y="706" type="line"/>
      <point x="332.029519659553" y="716" type="line"/>
      <point x="420.029519659553" y="716" type="line"/>
      <point x="428.029519659553" y="750" type="line"/>
      <point x="428.029519659553" y="750"/>
      <point x="157.029519659553" y="750"/>
      <point x="157.029519659553" y="750" type="curve"/>
      <point x="149.029519659553" y="716" type="line"/>
      <point x="209.029519659553" y="716" type="line"/>
    </contour>
    <contour>
      <point x="1230.029519659553" y="706" type="line"/>
      <point x="1158.029519659553" y="706" type="line"/>
      <point x="674.029519659553" y="154" type="line"/>
      <point x="664.029519659553" y="154" type="line"/>
      <point x="669.029519659553" y="706" type="line"/>
      <point x="566.029519659553" y="706" type="line"/>
      <point x="566.029519659553" y="-10" type="line"/>
      <point x="594.029519659553" y="-10" type="line"/>
    </contour>
    <contour>
      <point x="1158.029519659553" y="706" type="line"/>
      <point x="1230.029519659553" y="706" type="line"/>
      <point x="1243.029519659553" y="716" type="line"/>
      <point x="1299.029519659553" y="716" type="line"/>
      <point x="1307.029519659553" y="750" type="line"/>
      <point x="1307.029519659553" y="750"/>
      <point x="1071.029519659553" y="750"/>
      <point x="1071.029519659553" y="750" type="curve"/>
      <point x="1063.029519659553" y="716" type="line"/>
      <point x="1151.029519659553" y="716" type="line"/>
    </contour>
    <contour>
      <point x="566.029519659553" y="706" type="line"/>
      <point x="669.029519659553" y="706" type="line"/>
      <point x="682.029519659553" y="716" type="line"/>
      <point x="770.029519659553" y="716" type="line"/>
      <point x="778.029519659553" y="750" type="line"/>
      <point x="778.029519659553" y="750"/>
      <point x="507.029519659553" y="750"/>
      <point x="507.029519659553" y="750" type="curve"/>
      <point x="499.029519659553" y="716" type="line"/>
      <point x="559.029519659553" y="716" type="line"/>
    </contour>
    <contour>
      <point x="578.029519659553" y="446" type="line"/>
      <point x="324.029519659553" y="154" type="line"/>
      <point x="314.029519659553" y="154" type="line"/>
      <point x="319.029519659553" y="706" type="line"/>
      <point x="216.029519659553" y="706" type="line"/>
      <point x="216.029519659553" y="-10" type="line"/>
      <point x="244.029519659553" y="-10" type="line"/>
      <point x="556.029519659553" y="352" type="line"/>
      <point x="566.029519659553" y="352" type="line"/>
      <point x="649.029519659553" y="446" type="line"/>
    </contour>
  </outline>
</glyph>
<glyph name="X" format="1">
  <advance width="844.0"/>
  <unicode hex="0058"/>
  <outline>
    <contour>
      <point x="752.029519659553" y="706" type="line"/>
      <point x="826.029519659553" y="706" type="line"/>
      <point x="839.029519659553" y="716" type="line"/>
      <point x="909.029519659553" y="716" type="line"/>
      <point x="917.029519659553" y="750" type="line"/>
      <point x="917.029519659553" y="750"/>
      <point x="673.029519659553" y="750"/>
      <point x="673.029519659553" y="750" type="curve"/>
      <point x="665.029519659553" y="716" type="line"/>
      <point x="745.029519659553" y="716" type="line"/>
    </contour>
    <contour>
      <point x="244.029519659553" y="706" type="line"/>
      <point x="362.029519659553" y="706" type="line"/>
      <point x="375.029519659553" y="716" type="line"/>
      <point x="483.029519659553" y="716" type="line"/>
      <point x="491.029519659553" y="750" type="line"/>
      <point x="491.029519659553" y="750"/>
      <point x="157.029519659553" y="750"/>
      <point x="157.029519659553" y="750" type="curve"/>
      <point x="149.029519659553" y="716" type="line"/>
      <point x="237.029519659553" y="716" type="line"/>
    </contour>
    <contour>
      <point x="670.029519659553" y="44" type="line"/>
      <point x="362.029519659553" y="706" type="line"/>
      <point x="244.029519659553" y="706" type="line"/>
      <point x="553.029519659553" y="44" type="line"/>
    </contour>
    <contour>
      <point x="826.029519659553" y="706" type="line"/>
      <point x="752.029519659553" y="706" type="line"/>
      <point x="490.029519659553" y="451" type="line"/>
      <point x="480.029519659553" y="451" type="line"/>
      <point x="444.029519659553" y="418" type="line"/>
      <point x="45.029519659552975" y="44" type="line"/>
      <point x="119.02951965955297" y="44" type="line"/>
      <point x="412.029519659553" y="327" type="line"/>
      <point x="422.029519659553" y="327" type="line"/>
      <point x="467.029519659553" y="376" type="line"/>
    </contour>
    <contour>
      <point x="670.029519659553" y="44" type="line"/>
      <point x="553.029519659553" y="44" type="line"/>
      <point x="540.029519659553" y="34" type="line"/>
      <point x="431.029519659553" y="34" type="line"/>
      <point x="423.029519659553" y="0" type="line"/>
      <point x="423.029519659553" y="0"/>
      <point x="758.029519659553" y="0"/>
      <point x="758.029519659553" y="0" type="curve"/>
      <point x="766.029519659553" y="34" type="line"/>
      <point x="677.029519659553" y="34" type="line"/>
    </contour>
    <contour>
      <point x="119.02951965955297" y="44" type="line"/>
      <point x="45.029519659552975" y="44" type="line"/>
      <point x="32.029519659552975" y="34" type="line"/>
      <point x="-37.970480340447025" y="34" type="line"/>
      <point x="-45.970480340447025" y="0" type="line"/>
      <point x="-45.970480340447025" y="0"/>
      <point x="198.029519659553" y="0"/>
      <point x="198.029519659553" y="0" type="curve"/>
      <point x="206.029519659553" y="34" type="line"/>
      <point x="126.02951965955297" y="34" type="line"/>
    </contour>
  </outline>
</glyph>
<glyph name="Y" format="1">
  <advance width="799.6903037966936"/>
  <unicode hex="0059"/>
  <outline>
    <contour>
      <point x="421.029519659553" y="44" type="line"/>
      <point x="488.029519659553" y="314" type="line"/>
      <point x="836.029519659553" y="706" type="line"/>
      <point x="849.029519659553" y="716" type="line"/>
      <point x="919.029519659553" y="716" type="line"/>
      <point x="927.029519659553" y="750" type="line"/>
      <point x="691.029519659553" y="750" type="line"/>
      <point x="683.029519659553" y="716" type="line"/>
      <point x="763.029519659553" y="716" type="line"/>
      <point x="770.029519659553" y="706" type="line"/>
      <point x="476.029519659553" y="366" type="line"/>
      <point x="466.029519659553" y="366" type="line"/>
      <point x="338.029519659553" y="706" type="line"/>
      <point x="351.029519659553" y="716" type="line"/>
      <point x="449.029519659553" y="716" type="line"/>
      <point x="457.029519659553" y="750" type="line"/>
      <point x="157.029519659553" y="750" type="line"/>
      <point x="149.029519659553" y="716" type="line"/>
      <point x="219.029519659553" y="716" type="line"/>
      <point x="226.029519659553" y="706" type="line"/>
      <point x="384.029519659553" y="314" type="line"/>
      <point x="317.029519659553" y="44" type="line"/>
      <point x="304.029519659553" y="34" type="line"/>
      <point x="214.029519659553" y="34" type="line"/>
      <point x="206.029519659553" y="0" type="line"/>
      <point x="510.029519659553" y="0" type="line"/>
      <point x="518.029519659553" y="34" type="line"/>
      <point x="428.029519659553" y="34" type="line"/>
    </contour>
    <contour>
      <point x="559.029519659553" y="760" type="move" name="top"/>
    </contour>
  </outline>
</glyph>
<glyph name="Z" format="1">
  <advance width="694.0"/>
  <unicode hex="005A"/>
  <outline>
    <contour>
      <point x="763.029519659553" y="716" type="line"/>
      <point x="614.029519659553" y="696" type="line"/>
      <point x="611.029519659553" y="686" type="line"/>
      <point x="-27.970480340447025" y="34" type="line"/>
      <point x="121.02951965955297" y="54" type="line"/>
      <point x="124.02951965955297" y="64" type="line"/>
    </contour>
    <contour>
      <point x="614.029519659553" y="696" type="line"/>
      <point x="763.029519659553" y="716" type="line"/>
      <point x="771.029519659553" y="750" type="line"/>
      <point x="197.029519659553" y="750" type="line"/>
      <point x="145.029519659553" y="540" type="line"/>
      <point x="183.029519659553" y="540" type="line"/>
      <point x="196.029519659553" y="594" type="line" smooth="yes"/>
      <point x="217.029519659553" y="677"/>
      <point x="250.029519659553" y="696"/>
      <point x="354.029519659553" y="696" type="curve" smooth="yes"/>
    </contour>
    <contour>
      <point x="121.02951965955297" y="54" type="line"/>
      <point x="-27.970480340447025" y="34" type="line"/>
      <point x="-35.970480340447025" y="0" type="line"/>
      <point x="588.029519659553" y="0" type="line"/>
      <point x="645.029519659553" y="230" type="line"/>
      <point x="607.029519659553" y="230" type="line"/>
      <point x="592.029519659553" y="170" type="line"/>
      <point x="569.029519659553" y="78"/>
      <point x="535.029519659553" y="54"/>
      <point x="431.029519659553" y="54" type="curve" smooth="yes"/>
    </contour>
  </outline>
</glyph>
<glyph name="bracketleft" format="1">
  <advance width="317.686346439702"/>
  <unicode hex="005B"/>
  <outline>
    <contour>
      <point x="-45.970480340447025" y="-250" type="line"/>
      <point x="154.029519659553" y="-250" type="line"/>
      <point x="162.029519659553" y="-216" type="line"/>
      <point x="12.029519659552975" y="-216" type="line"/>
      <point x="5.0295196595529745" y="-206" type="line"/>
      <point x="232.029519659553" y="706" type="line"/>
      <point x="245.029519659553" y="716" type="line"/>
      <point x="395.029519659553" y="716" type="line"/>
      <point x="403.029519659553" y="750" type="line"/>
      <point x="203.029519659553" y="750" type="line"/>
    </contour>
  </outline>
</glyph>
<glyph name="backslash" format="1">
  <advance width="158"/>
  <unicode hex="005C"/>
  <outline>
    <contour>
      <point x="60.029519659552975" y="750" type="line"/>
      <point x="60.029519659552975" y="-250" type="line"/>
      <point x="98.02951965955297" y="-250" type="line"/>
      <point x="98.02951965955297" y="750" type="line"/>
    </contour>
  </outline>
</glyph>
<glyph name="bracketright" format="1">
  <advance width="317.686346439702"/>
  <unicode hex="005D"/>
  <outline>
    <contour>
      <point x="363.029519659553" y="750" type="line"/>
      <point x="163.029519659553" y="750" type="line"/>
      <point x="155.029519659553" y="716" type="line"/>
      <point x="305.029519659553" y="716" type="line"/>
      <point x="312.029519659553" y="706" type="line"/>
      <point x="85.02951965955297" y="-206" type="line"/>
      <point x="72.02951965955297" y="-216" type="line"/>
      <point x="-77.97048034044703" y="-216" type="line"/>
      <point x="-85.97048034044703" y="-250" type="line"/>
      <point x="114.02951965955297" y="-250" type="line"/>
    </contour>
  </outline>
</glyph>
<glyph name="asciicircum" format="1">
  <advance width="280"/>
  <unicode hex="005E"/>
  <outline>
    <contour>
      <point x="-8.970480340447025" y="207" type="line"/>
      <point x="132.029519659553" y="329" type="line"/>
      <point x="142.029519659553" y="329" type="line"/>
      <point x="263.029519659553" y="207" type="line"/>
      <point x="291.029519659553" y="221" type="line"/>
      <point x="196.029519659553" y="417" type="line"/>
      <point x="164.029519659553" y="417" type="line"/>
      <point x="-28.970480340447025" y="221" type="line"/>
    </contour>
    <contour>
      <point x="217.029519659553" y="520.0" type="move" name="_top"/>
    </contour>
  </outline>
</glyph>
<glyph name="grave" format="1">
  <advance width="280"/>
  <unicode hex="0060"/>
  <outline>
    <contour>
      <point x="347.029519659553" y="540" type="line"/>
      <point x="120.02951965955297" y="696" type="line"/>
      <point x="219.029519659553" y="750" type="line"/>
      <point x="374.029519659553" y="554" type="line"/>
    </contour>
    <contour>
      <point x="217.029519659553" y="520" type="move" name="_top"/>
    </contour>
  </outline>
</glyph>
<glyph name="a" format="1">
  <advance width="596"/>
  <unicode hex="0061"/>
  <outline>
    <contour>
      <point x="356.029519659553" y="116" type="line" smooth="yes"/>
      <point x="336.029519659553" y="65"/>
      <point x="324.029519659553" y="18"/>
      <point x="356.029519659553" y="0" type="curve"/>
      <point x="416.029519659553" y="0" type="line"/>
      <point x="455.029519659553" y="30"/>
      <point x="513.029519659553" y="104"/>
      <point x="557.029519659553" y="158" type="curve"/>
      <point x="517.029519659553" y="158" type="line"/>
      <point x="482.029519659553" y="114"/>
      <point x="444.029519659553" y="70"/>
      <point x="432.029519659553" y="58" type="curve"/>
      <point x="421.029519659553" y="68" type="line"/>
      <point x="549.029519659553" y="510" type="line"/>
      <point x="463.029519659553" y="510" type="line"/>
      <point x="456.029519659553" y="488" type="line"/>
      <point x="446.029519659553" y="488" type="line"/>
      <point x="440.029519659553" y="494"/>
      <point x="421.029519659553" y="510"/>
      <point x="377.029519659553" y="510" type="curve"/>
      <point x="206.029519659553" y="510"/>
      <point x="19.029519659552975" y="246"/>
      <point x="19.029519659552975" y="88" type="curve"/>
      <point x="19.029519659552975" y="16"/>
      <point x="61.029519659552975" y="-10"/>
      <point x="119.02951965955297" y="-10" type="curve"/>
      <point x="214.029519659553" y="-10"/>
      <point x="303.029519659553" y="80"/>
      <point x="387.029519659553" y="230" type="curve"/>
      <point x="401.029519659553" y="230" type="line"/>
    </contour>
    <contour>
      <point x="119.02951965955297" y="102" type="curve"/>
      <point x="119.02951965955297" y="216"/>
      <point x="263.029519659553" y="478"/>
      <point x="375.029519659553" y="478" type="curve"/>
      <point x="407.029519659553" y="478"/>
      <point x="436.029519659553" y="462"/>
      <point x="436.029519659553" y="420" type="curve" smooth="yes"/>
      <point x="436.029519659553" y="310"/>
      <point x="257.029519659553" y="52"/>
      <point x="163.029519659553" y="52" type="curve"/>
      <point x="138.029519659553" y="52"/>
      <point x="119.02951965955297" y="65"/>
    </contour>
    <contour>
      <point x="674.029519659553" y="959.0" type="move" name="top"/>
    </contour>
    <contour>
      <point x="389.029519659553" y="540.0" type="move" name="top"/>
    </contour>
  </outline>
</glyph>
<glyph name="b" format="1">
  <advance width="566"/>
  <unicode hex="0062"/>
  <outline>
    <contour>
      <point x="449.029519659553" y="398" type="curve"/>
      <point x="449.029519659553" y="284"/>
      <point x="305.029519659553" y="22"/>
      <point x="193.029519659553" y="22" type="curve"/>
      <point x="161.029519659553" y="22"/>
      <point x="132.029519659553" y="38"/>
      <point x="132.029519659553" y="81" type="curve" smooth="yes"/>
      <point x="132.029519659553" y="191"/>
      <point x="311.029519659553" y="448"/>
      <point x="405.029519659553" y="448" type="curve"/>
      <point x="430.029519659553" y="448"/>
      <point x="449.029519659553" y="436"/>
    </contour>
    <contour>
      <point x="93.02951965955297" y="66" type="line"/>
      <point x="99.02951965955297" y="22"/>
      <point x="133.029519659553" y="-10"/>
      <point x="191.029519659553" y="-10" type="curve"/>
      <point x="362.029519659553" y="-10"/>
      <point x="549.029519659553" y="255"/>
      <point x="549.029519659553" y="412" type="curve"/>
      <point x="549.029519659553" y="482"/>
      <point x="507.029519659553" y="510"/>
      <point x="453.029519659553" y="510" type="curve"/>
      <point x="354.029519659553" y="510"/>
      <point x="263.029519659553" y="423"/>
      <point x="181.029519659553" y="270" type="curve"/>
      <point x="167.029519659553" y="270" type="line"/>
      <point x="336.029519659553" y="750" type="line"/>
      <point x="137.029519659553" y="750" type="line"/>
      <point x="127.02951965955297" y="716" type="line"/>
      <point x="217.029519659553" y="716" type="line"/>
      <point x="228.029519659553" y="706" type="line"/>
      <point x="23.029519659552975" y="-10" type="line"/>
      <point x="93.02951965955297" y="-10" type="line"/>
      <point x="117.02951965955297" y="66" type="line"/>
    </contour>
  </outline>
</glyph>
<glyph name="c" format="1">
  <advance width="471.69422905010833"/>
  <unicode hex="0063"/>
  <outline>
    <contour>
      <point x="363.029519659553" y="510" type="curve" smooth="yes"/>
      <point x="185.029519659553" y="510"/>
      <point x="29.029519659552975" y="298"/>
      <point x="29.029519659552975" y="136" type="curve"/>
      <point x="29.029519659552975" y="27"/>
      <point x="89.02951965955297" y="-10"/>
      <point x="173.029519659553" y="-10" type="curve"/>
      <point x="303.029519659553" y="-10"/>
      <point x="385.029519659553" y="106"/>
      <point x="425.029519659553" y="158" type="curve"/>
      <point x="385.029519659553" y="158" type="line"/>
      <point x="351.029519659553" y="118"/>
      <point x="283.029519659553" y="38"/>
      <point x="209.029519659553" y="38" type="curve"/>
      <point x="154.029519659553" y="38"/>
      <point x="129.029519659553" y="71"/>
      <point x="129.029519659553" y="138" type="curve"/>
      <point x="129.029519659553" y="309"/>
      <point x="230.029519659553" y="468"/>
      <point x="325.029519659553" y="468" type="curve"/>
      <point x="363.029519659553" y="468"/>
      <point x="376.029519659553" y="443"/>
      <point x="372.029519659553" y="384" type="curve" smooth="yes"/>
      <point x="369.029519659553" y="338" type="line"/>
      <point x="467.029519659553" y="350" type="line"/>
      <point x="475.029519659553" y="364" type="line"/>
      <point x="483.029519659553" y="454"/>
      <point x="458.029519659553" y="510"/>
    </contour>
    <contour>
      <point x="224.029519659553" y="518" type="move" name="top"/>
    </contour>
    <contour>
      <point x="165.029519659553" y="-10" type="move" name="bottom"/>
    </contour>
  </outline>
</glyph>
<glyph name="d" format="1">
  <advance width="596"/>
  <unicode hex="0064"/>
  <outline>
    <contour>
      <point x="354.029519659553" y="116" type="line" smooth="yes"/>
      <point x="333.029519659553" y="64"/>
      <point x="322.029519659553" y="18"/>
      <point x="354.029519659553" y="0" type="curve"/>
      <point x="414.029519659553" y="0" type="line"/>
      <point x="453.029519659553" y="30"/>
      <point x="511.029519659553" y="104"/>
      <point x="555.029519659553" y="158" type="curve"/>
      <point x="515.029519659553" y="158" type="line"/>
      <point x="480.029519659553" y="114"/>
      <point x="442.029519659553" y="70"/>
      <point x="430.029519659553" y="58" type="curve"/>
      <point x="419.029519659553" y="68" type="line"/>
      <point x="615.029519659553" y="750" type="line"/>
      <point x="424.029519659553" y="750" type="line"/>
      <point x="414.029519659553" y="716" type="line"/>
      <point x="504.029519659553" y="716" type="line"/>
      <point x="515.029519659553" y="706" type="line"/>
      <point x="457.029519659553" y="484" type="line"/>
      <point x="447.029519659553" y="484" type="line"/>
      <point x="440.029519659553" y="490"/>
      <point x="418.029519659553" y="510"/>
      <point x="375.029519659553" y="510" type="curve"/>
      <point x="204.029519659553" y="510"/>
      <point x="17.029519659552975" y="246"/>
      <point x="17.029519659552975" y="88" type="curve"/>
      <point x="17.029519659552975" y="16"/>
      <point x="59.029519659552975" y="-10"/>
      <point x="117.02951965955297" y="-10" type="curve"/>
      <point x="212.029519659553" y="-10"/>
      <point x="304.029519659553" y="77"/>
      <point x="385.029519659553" y="230" type="curve"/>
      <point x="399.029519659553" y="230" type="line"/>
    </contour>
    <contour>
      <point x="117.02951965955297" y="102" type="curve"/>
      <point x="117.02951965955297" y="216"/>
      <point x="261.029519659553" y="478"/>
      <point x="373.029519659553" y="478" type="curve"/>
      <point x="405.029519659553" y="478"/>
      <point x="434.029519659553" y="462"/>
      <point x="434.029519659553" y="420" type="curve" smooth="yes"/>
      <point x="434.029519659553" y="310"/>
      <point x="255.029519659553" y="52"/>
      <point x="161.029519659553" y="52" type="curve"/>
      <point x="136.029519659553" y="52"/>
      <point x="117.02951965955297" y="65"/>
    </contour>
  </outline>
</glyph>
<glyph name="e" format="1">
  <advance width="475"/>
  <unicode hex="0065"/>
  <outline>
    <contour>
      <point x="355.029519659553" y="510" type="curve"/>
      <point x="187.029519659553" y="510"/>
      <point x="29.029519659552975" y="298"/>
      <point x="29.029519659552975" y="136" type="curve" smooth="yes"/>
      <point x="29.029519659552975" y="27"/>
      <point x="87.02951965955297" y="-10"/>
      <point x="174.029519659553" y="-10" type="curve"/>
      <point x="303.029519659553" y="-10"/>
      <point x="385.029519659553" y="106"/>
      <point x="425.029519659553" y="158" type="curve"/>
      <point x="385.029519659553" y="158" type="line"/>
      <point x="352.029519659553" y="118"/>
      <point x="283.029519659553" y="38"/>
      <point x="209.029519659553" y="38" type="curve" smooth="yes"/>
      <point x="156.029519659553" y="38"/>
      <point x="129.029519659553" y="71"/>
      <point x="129.029519659553" y="138" type="curve"/>
      <point x="128.029519659553" y="309"/>
      <point x="239.029519659553" y="480"/>
      <point x="333.029519659553" y="480" type="curve"/>
      <point x="367.029519659553" y="480"/>
      <point x="383.029519659553" y="460"/>
      <point x="383.029519659553" y="428" type="curve"/>
      <point x="383.029519659553" y="372"/>
      <point x="357.029519659553" y="320"/>
      <point x="159.029519659553" y="264" type="curve"/>
      <point x="148.029519659553" y="274" type="line"/>
      <point x="139.029519659553" y="236" type="line"/>
      <point x="386.029519659553" y="282"/>
      <point x="467.029519659553" y="330"/>
      <point x="467.029519659553" y="418" type="curve"/>
      <point x="467.029519659553" y="468"/>
      <point x="433.029519659553" y="510"/>
    </contour>
    <contour>
      <point x="366.029519659553" y="540" type="move" name="top"/>
    </contour>
  </outline>
</glyph>
<glyph name="f" format="1">
  <advance width="347"/>
  <unicode hex="0066"/>
  <outline>
    <contour>
      <point x="34.029519659552975" y="460" type="line"/>
      <point x="394.029519659553" y="460" type="line"/>
      <point x="405.029519659553" y="500" type="line"/>
      <point x="45.029519659552975" y="500" type="line"/>
    </contour>
    <contour>
      <point x="173.029519659553" y="70" type="curve" smooth="yes"/>
      <point x="281.029519659553" y="500" type="line"/>
      <point x="292.029519659553" y="610" type="line" smooth="yes"/>
      <point x="296.029519659553" y="654"/>
      <point x="324.029519659553" y="671"/>
      <point x="369.029519659553" y="671" type="curve" smooth="yes"/>
      <point x="467.029519659553" y="671" type="line"/>
      <point x="490.029519659553" y="750" type="line"/>
      <point x="483.029519659553" y="760" type="line"/>
      <point x="437.029519659553" y="758" type="line" smooth="yes"/>
      <point x="316.029519659553" y="753"/>
      <point x="249.029519659553" y="640"/>
      <point x="190.029519659553" y="512" type="curve"/>
      <point x="173.029519659553" y="500" type="line"/>
      <point x="179.029519659553" y="486" type="line"/>
      <point x="60.029519659552975" y="-73" type="line" smooth="yes"/>
      <point x="46.029519659552975" y="-138"/>
      <point x="14.029519659552975" y="-161"/>
      <point x="-40.970480340447025" y="-161" type="curve" smooth="yes"/>
      <point x="-126.97048034044703" y="-161" type="line"/>
      <point x="-149.970480340447" y="-240" type="line"/>
      <point x="-141.970480340447" y="-250" type="line"/>
      <point x="-114.97048034044703" y="-248" type="line"/>
      <point x="25.029519659552975" y="-243"/>
      <point x="137.029519659553" y="-73"/>
    </contour>
  </outline>
</glyph>
<glyph name="g" format="1">
  <advance width="510"/>
  <unicode hex="0067"/>
  <outline>
    <contour>
      <point x="-80.97048034044703" y="-122" type="curve" smooth="yes"/>
      <point x="-80.97048034044703" y="-203"/>
      <point x="-2.9704803404470255" y="-250"/>
      <point x="134.029519659553" y="-250" type="curve" smooth="yes"/>
      <point x="309.029519659553" y="-250"/>
      <point x="400.029519659553" y="-162"/>
      <point x="400.029519659553" y="-71" type="curve"/>
      <point x="400.029519659553" y="-14"/>
      <point x="363.029519659553" y="31"/>
      <point x="279.029519659553" y="53" type="curve" smooth="yes"/>
      <point x="200.029519659553" y="74" type="line" smooth="yes"/>
      <point x="165.029519659553" y="83"/>
      <point x="140.029519659553" y="96"/>
      <point x="140.029519659553" y="116" type="curve"/>
      <point x="140.029519659553" y="127"/>
      <point x="152.029519659553" y="138"/>
      <point x="171.029519659553" y="145" type="curve" smooth="yes"/>
      <point x="225.029519659553" y="164" type="line"/>
      <point x="225.029519659553" y="171" type="line"/>
      <point x="164.029519659553" y="171" type="line"/>
      <point x="164.029519659553" y="160" type="line"/>
      <point x="119.02951965955297" y="150"/>
      <point x="65.02951965955297" y="126"/>
      <point x="65.02951965955297" y="84" type="curve" smooth="yes"/>
      <point x="65.02951965955297" y="60"/>
      <point x="81.02951965955297" y="48"/>
      <point x="93.02951965955297" y="40" type="curve"/>
      <point x="93.02951965955297" y="30" type="line"/>
      <point x="21.029519659552975" y="7"/>
      <point x="-80.97048034044703" y="-38"/>
    </contour>
    <contour>
      <point x="302.029519659553" y="-53"/>
      <point x="321.029519659553" y="-76"/>
      <point x="321.029519659553" y="-106" type="curve"/>
      <point x="321.029519659553" y="-156"/>
      <point x="270.029519659553" y="-207"/>
      <point x="162.029519659553" y="-207" type="curve" smooth="yes"/>
      <point x="43.029519659552975" y="-207"/>
      <point x="-10.970480340447025" y="-174"/>
      <point x="-10.970480340447025" y="-114" type="curve"/>
      <point x="-10.970480340447025" y="-60"/>
      <point x="50.029519659552975" y="-20"/>
      <point x="125.02951965955297" y="19" type="curve"/>
      <point x="268.029519659553" y="-39" type="line" smooth="yes"/>
    </contour>
    <contour>
      <point x="160.029519659553" y="507"/>
      <point x="64.02951965955297" y="388"/>
      <point x="64.02951965955297" y="296" type="curve" smooth="yes"/>
      <point x="64.02951965955297" y="202"/>
      <point x="132.029519659553" y="163"/>
      <point x="214.029519659553" y="163" type="curve" smooth="yes"/>
      <point x="355.029519659553" y="163"/>
      <point x="470.029519659553" y="276"/>
      <point x="470.029519659553" y="368" type="curve" smooth="yes"/>
      <point x="470.029519659553" y="453"/>
      <point x="407.029519659553" y="507"/>
      <point x="295.029519659553" y="507" type="curve" smooth="yes"/>
    </contour>
    <contour>
      <point x="163.029519659553" y="361"/>
      <point x="217.029519659553" y="472"/>
      <point x="303.029519659553" y="472" type="curve" smooth="yes"/>
      <point x="349.029519659553" y="472"/>
      <point x="373.029519659553" y="439"/>
      <point x="373.029519659553" y="390" type="curve" smooth="yes"/>
      <point x="373.029519659553" y="294"/>
      <point x="303.029519659553" y="198"/>
      <point x="225.029519659553" y="198" type="curve" smooth="yes"/>
      <point x="184.029519659553" y="198"/>
      <point x="163.029519659553" y="226"/>
      <point x="163.029519659553" y="278" type="curve" smooth="yes"/>
    </contour>
    <contour>
      <point x="359.029519659553" y="450" type="line"/>
      <point x="440.029519659553" y="450" type="line"/>
      <point x="440.029519659553" y="460" type="line"/>
      <point x="563.029519659553" y="460" type="line"/>
      <point x="574.029519659553" y="500" type="line"/>
      <point x="359.029519659553" y="500" type="line"/>
    </contour>
  </outline>
</glyph>
<glyph name="h" format="1">
  <advance width="589"/>
  <unicode hex="0068"/>
  <outline>
    <contour>
      <point x="447.029519659553" y="510" type="curve"/>
      <point x="318.029519659553" y="510"/>
      <point x="214.029519659553" y="328"/>
      <point x="174.029519659553" y="235" type="curve"/>
      <point x="160.029519659553" y="235" type="line"/>
      <point x="336.029519659553" y="750" type="line"/>
      <point x="137.029519659553" y="750" type="line"/>
      <point x="127.02951965955297" y="716" type="line"/>
      <point x="217.029519659553" y="716" type="line"/>
      <point x="228.029519659553" y="706" type="line"/>
      <point x="26.029519659552975" y="0" type="line"/>
      <point x="102.02951965955297" y="0" type="line"/>
      <point x="163.029519659553" y="202"/>
      <point x="311.029519659553" y="444"/>
      <point x="392.029519659553" y="444" type="curve"/>
      <point x="412.029519659553" y="444"/>
      <point x="419.029519659553" y="430"/>
      <point x="419.029519659553" y="410" type="curve" smooth="yes"/>
      <point x="419.029519659553" y="392"/>
      <point x="407.029519659553" y="358"/>
      <point x="397.029519659553" y="330" type="curve" smooth="yes"/>
      <point x="328.029519659553" y="127" type="line" smooth="yes"/>
      <point x="315.029519659553" y="89"/>
      <point x="307.029519659553" y="63"/>
      <point x="307.029519659553" y="42" type="curve" smooth="yes"/>
      <point x="307.029519659553" y="24"/>
      <point x="317.029519659553" y="6"/>
      <point x="330.029519659553" y="0" type="curve"/>
      <point x="390.029519659553" y="0" type="line"/>
      <point x="433.029519659553" y="30"/>
      <point x="506.029519659553" y="109"/>
      <point x="548.029519659553" y="158" type="curve"/>
      <point x="508.029519659553" y="158" type="line"/>
      <point x="471.029519659553" y="119"/>
      <point x="423.029519659553" y="68"/>
      <point x="406.029519659553" y="58" type="curve"/>
      <point x="395.029519659553" y="68" type="line"/>
      <point x="480.029519659553" y="310" type="line" smooth="yes"/>
      <point x="500.029519659553" y="367"/>
      <point x="517.029519659553" y="412"/>
      <point x="517.029519659553" y="442" type="curve" smooth="yes"/>
      <point x="517.029519659553" y="478"/>
      <point x="493.029519659553" y="510"/>
    </contour>
  </outline>
</glyph>
<glyph name="i" format="1">
  <advance width="335.69422905010833"/>
  <unicode hex="0069"/>
  <outline>
    <contour>
      <point x="240.029519659553" y="640" type="line"/>
      <point x="350.029519659553" y="640" type="line"/>
      <point x="350.029519659553" y="750" type="line"/>
      <point x="240.029519659553" y="750" type="line"/>
    </contour>
    <contour>
      <point x="133.029519659553" y="60" type="line"/>
      <point x="263.029519659553" y="394" type="line" smooth="yes"/>
      <point x="275.029519659553" y="424"/>
      <point x="279.029519659553" y="442"/>
      <point x="279.029519659553" y="460" type="curve" smooth="yes"/>
      <point x="279.029519659553" y="482"/>
      <point x="265.029519659553" y="495"/>
      <point x="253.029519659553" y="500" type="curve"/>
      <point x="193.029519659553" y="500" type="line"/>
      <point x="156.029519659553" y="476"/>
      <point x="99.02951965955297" y="418"/>
      <point x="33.029519659552975" y="330" type="curve"/>
      <point x="73.02951965955297" y="330" type="line"/>
      <point x="138.029519659553" y="408"/>
      <point x="166.029519659553" y="435"/>
      <point x="174.029519659553" y="442" type="curve"/>
      <point x="185.029519659553" y="432" type="line"/>
      <point x="67.02951965955297" y="116" type="line" smooth="yes"/>
      <point x="46.029519659552975" y="60"/>
      <point x="48.029519659552975" y="18"/>
      <point x="75.02951965955297" y="0" type="curve"/>
      <point x="135.029519659553" y="0" type="line"/>
      <point x="180.029519659553" y="31"/>
      <point x="257.029519659553" y="110"/>
      <point x="299.029519659553" y="158" type="curve"/>
      <point x="259.029519659553" y="158" type="line"/>
      <point x="224.029519659553" y="118"/>
      <point x="162.029519659553" y="62"/>
      <point x="144.029519659553" y="50" type="curve"/>
    </contour>
  </outline>
</glyph>
<glyph name="j" format="1">
  <advance width="307"/>
  <unicode hex="006A"/>
  <outline>
    <contour>
      <point x="221.029519659553" y="640" type="line"/>
      <point x="331.029519659553" y="640" type="line"/>
      <point x="331.029519659553" y="750" type="line"/>
      <point x="221.029519659553" y="750" type="line"/>
    </contour>
    <contour>
      <point x="262.029519659553" y="394" type="line" smooth="yes"/>
      <point x="271.029519659553" y="424"/>
      <point x="275.029519659553" y="442"/>
      <point x="275.029519659553" y="460" type="curve" smooth="yes"/>
      <point x="275.029519659553" y="482"/>
      <point x="261.029519659553" y="495"/>
      <point x="248.029519659553" y="500" type="curve"/>
      <point x="184.029519659553" y="500" type="line"/>
      <point x="147.029519659553" y="476"/>
      <point x="91.02951965955297" y="418"/>
      <point x="34.029519659552975" y="330" type="curve"/>
      <point x="74.02951965955297" y="330" type="line"/>
      <point x="129.029519659553" y="408"/>
      <point x="157.029519659553" y="435"/>
      <point x="165.029519659553" y="442" type="curve"/>
      <point x="176.029519659553" y="432" type="line"/>
      <point x="44.029519659552975" y="-99" type="line" smooth="yes"/>
      <point x="33.029519659552975" y="-144"/>
      <point x="18.029519659552975" y="-161"/>
      <point x="-26.970480340447025" y="-161" type="curve" smooth="yes"/>
      <point x="-134.970480340447" y="-161" type="line"/>
      <point x="-156.970480340447" y="-240" type="line"/>
      <point x="-148.970480340447" y="-250" type="line"/>
      <point x="-101.97048034044703" y="-244" type="line" smooth="yes"/>
      <point x="26.029519659552975" y="-228"/>
      <point x="107.02951965955297" y="-113"/>
      <point x="153.029519659553" y="38" type="curve" smooth="yes"/>
    </contour>
  </outline>
</glyph>
<glyph name="k" format="1">
  <advance width="544"/>
  <unicode hex="006B"/>
  <outline>
    <contour>
      <point x="25.029519659552975" y="0" type="line"/>
      <point x="111.02951965955297" y="0" type="line"/>
      <point x="167.029519659553" y="188" type="line"/>
      <point x="220.029519659553" y="234" type="line"/>
      <point x="230.029519659553" y="234" type="line"/>
      <point x="276.029519659553" y="43" type="line" smooth="yes"/>
      <point x="283.029519659553" y="17"/>
      <point x="289.029519659553" y="7"/>
      <point x="302.029519659553" y="0" type="curve"/>
      <point x="362.029519659553" y="0" type="line"/>
      <point x="401.029519659553" y="31"/>
      <point x="466.029519659553" y="110"/>
      <point x="503.029519659553" y="158" type="curve"/>
      <point x="463.029519659553" y="158" type="line"/>
      <point x="433.029519659553" y="118"/>
      <point x="391.029519659553" y="71"/>
      <point x="378.029519659553" y="58" type="curve"/>
      <point x="367.029519659553" y="58" type="line"/>
      <point x="298.029519659553" y="294" type="line"/>
      <point x="378.029519659553" y="360"/>
      <point x="421.029519659553" y="398"/>
      <point x="497.029519659553" y="466" type="curve"/>
      <point x="561.029519659553" y="466" type="line"/>
      <point x="571.029519659553" y="500" type="line"/>
      <point x="365.029519659553" y="500" type="line"/>
      <point x="355.029519659553" y="466" type="line"/>
      <point x="409.029519659553" y="466" type="line"/>
      <point x="420.029519659553" y="456" type="line"/>
      <point x="360.029519659553" y="403"/>
      <point x="260.029519659553" y="312"/>
      <point x="180.029519659553" y="235" type="curve"/>
      <point x="169.029519659553" y="235" type="line"/>
      <point x="335.029519659553" y="750" type="line"/>
      <point x="137.029519659553" y="750" type="line"/>
      <point x="127.02951965955297" y="716" type="line"/>
      <point x="216.029519659553" y="716" type="line"/>
      <point x="227.029519659553" y="706" type="line"/>
    </contour>
  </outline>
</glyph>
<glyph name="l" format="1">
  <advance width="326"/>
  <unicode hex="006C"/>
  <outline>
    <contour>
      <point x="132.029519659553" y="68" type="line"/>
      <point x="336.029519659553" y="750" type="line"/>
      <point x="137.029519659553" y="750" type="line"/>
      <point x="127.02951965955297" y="716" type="line"/>
      <point x="217.029519659553" y="716" type="line"/>
      <point x="228.029519659553" y="706" type="line"/>
      <point x="63.029519659552975" y="128" type="line" smooth="yes"/>
      <point x="52.029519659552975" y="89"/>
      <point x="44.029519659552975" y="63"/>
      <point x="44.029519659552975" y="42" type="curve" smooth="yes"/>
      <point x="44.029519659552975" y="24"/>
      <point x="54.029519659552975" y="6"/>
      <point x="67.02951965955297" y="0" type="curve"/>
      <point x="127.02951965955297" y="0" type="line"/>
      <point x="170.029519659553" y="30"/>
      <point x="243.029519659553" y="109"/>
      <point x="285.029519659553" y="158" type="curve"/>
      <point x="245.029519659553" y="158" type="line"/>
      <point x="208.029519659553" y="119"/>
      <point x="160.029519659553" y="68"/>
      <point x="143.029519659553" y="58" type="curve"/>
    </contour>
  </outline>
</glyph>
<glyph name="m" format="1">
  <advance width="847.6942290501083"/>
  <unicode hex="006D"/>
  <outline>
    <contour>
      <point x="371.029519659553" y="0" type="line"/>
      <point x="445.029519659553" y="210"/>
      <point x="571.029519659553" y="444"/>
      <point x="651.029519659553" y="444" type="curve"/>
      <point x="671.029519659553" y="444"/>
      <point x="678.029519659553" y="430"/>
      <point x="678.029519659553" y="410" type="curve" smooth="yes"/>
      <point x="678.029519659553" y="392"/>
      <point x="667.029519659553" y="358"/>
      <point x="657.029519659553" y="330" type="curve" smooth="yes"/>
      <point x="587.029519659553" y="127" type="line" smooth="yes"/>
      <point x="574.029519659553" y="89"/>
      <point x="566.029519659553" y="63"/>
      <point x="566.029519659553" y="42" type="curve" smooth="yes"/>
      <point x="566.029519659553" y="24"/>
      <point x="576.029519659553" y="6"/>
      <point x="589.029519659553" y="0" type="curve"/>
      <point x="649.029519659553" y="0" type="line"/>
      <point x="692.029519659553" y="30"/>
      <point x="765.029519659553" y="109"/>
      <point x="807.029519659553" y="158" type="curve"/>
      <point x="767.029519659553" y="158" type="line"/>
      <point x="730.029519659553" y="119"/>
      <point x="682.029519659553" y="68"/>
      <point x="665.029519659553" y="58" type="curve"/>
      <point x="654.029519659553" y="68" type="line"/>
      <point x="739.029519659553" y="310" type="line" smooth="yes"/>
      <point x="759.029519659553" y="367"/>
      <point x="776.029519659553" y="412"/>
      <point x="776.029519659553" y="442" type="curve" smooth="yes"/>
      <point x="776.029519659553" y="478"/>
      <point x="758.029519659553" y="510"/>
      <point x="708.029519659553" y="510" type="curve"/>
      <point x="585.029519659553" y="510"/>
      <point x="493.029519659553" y="332"/>
      <point x="448.029519659553" y="235" type="curve"/>
      <point x="434.029519659553" y="235" type="line"/>
      <point x="480.029519659553" y="347"/>
      <point x="505.029519659553" y="404"/>
      <point x="505.029519659553" y="442" type="curve" smooth="yes"/>
      <point x="505.029519659553" y="478"/>
      <point x="492.029519659553" y="510"/>
      <point x="442.029519659553" y="510" type="curve"/>
      <point x="326.029519659553" y="510"/>
      <point x="237.029519659553" y="328"/>
      <point x="198.029519659553" y="235" type="curve"/>
      <point x="184.029519659553" y="235" type="line"/>
      <point x="232.029519659553" y="361" type="line" smooth="yes"/>
      <point x="269.029519659553" y="459"/>
      <point x="261.029519659553" y="486"/>
      <point x="240.029519659553" y="500" type="curve"/>
      <point x="180.029519659553" y="500" type="line"/>
      <point x="149.029519659553" y="477"/>
      <point x="84.02951965955297" y="405"/>
      <point x="37.029519659552975" y="332" type="curve"/>
      <point x="77.02951965955297" y="332" type="line"/>
      <point x="122.02951965955297" y="398"/>
      <point x="159.029519659553" y="435"/>
      <point x="167.029519659553" y="442" type="curve"/>
      <point x="178.029519659553" y="432" type="line"/>
      <point x="54.029519659552975" y="0" type="line"/>
      <point x="130.029519659553" y="0" type="line"/>
      <point x="192.029519659553" y="210"/>
      <point x="317.029519659553" y="444"/>
      <point x="398.029519659553" y="444" type="curve"/>
      <point x="418.029519659553" y="444"/>
      <point x="425.029519659553" y="430"/>
      <point x="425.029519659553" y="412" type="curve"/>
      <point x="425.029519659553" y="392"/>
      <point x="413.029519659553" y="358"/>
      <point x="404.029519659553" y="330" type="curve" smooth="yes"/>
      <point x="295.029519659553" y="0" type="line"/>
    </contour>
  </outline>
</glyph>
<glyph name="n" format="1">
  <advance width="615.6942290501083"/>
  <unicode hex="006E"/>
  <outline>
    <contour>
      <point x="357.029519659553" y="0" type="curve"/>
      <point x="417.029519659553" y="0" type="line"/>
      <point x="460.029519659553" y="30"/>
      <point x="533.029519659553" y="109"/>
      <point x="575.029519659553" y="158" type="curve"/>
      <point x="535.029519659553" y="158" type="line"/>
      <point x="498.029519659553" y="119"/>
      <point x="450.029519659553" y="68"/>
      <point x="433.029519659553" y="58" type="curve"/>
      <point x="422.029519659553" y="68" type="line"/>
      <point x="507.029519659553" y="310" type="line" smooth="yes"/>
      <point x="527.029519659553" y="367"/>
      <point x="544.029519659553" y="412"/>
      <point x="544.029519659553" y="442" type="curve" smooth="yes"/>
      <point x="544.029519659553" y="478"/>
      <point x="520.029519659553" y="510"/>
      <point x="474.029519659553" y="510" type="curve"/>
      <point x="347.029519659553" y="510"/>
      <point x="241.029519659553" y="328"/>
      <point x="202.029519659553" y="235" type="curve"/>
      <point x="188.029519659553" y="235" type="line"/>
      <point x="235.029519659553" y="361" type="line" smooth="yes"/>
      <point x="272.029519659553" y="460"/>
      <point x="261.029519659553" y="486"/>
      <point x="240.029519659553" y="500" type="curve"/>
      <point x="180.029519659553" y="500" type="line"/>
      <point x="149.029519659553" y="477"/>
      <point x="84.02951965955297" y="405"/>
      <point x="37.029519659552975" y="332" type="curve"/>
      <point x="77.02951965955297" y="332" type="line"/>
      <point x="122.02951965955297" y="398"/>
      <point x="159.029519659553" y="435"/>
      <point x="167.029519659553" y="442" type="curve"/>
      <point x="178.029519659553" y="432" type="line"/>
      <point x="54.029519659552975" y="0" type="line"/>
      <point x="130.029519659553" y="0" type="line"/>
      <point x="192.029519659553" y="210"/>
      <point x="343.029519659553" y="444"/>
      <point x="419.029519659553" y="444" type="curve"/>
      <point x="439.029519659553" y="444"/>
      <point x="446.029519659553" y="430"/>
      <point x="446.029519659553" y="410" type="curve" smooth="yes"/>
      <point x="446.029519659553" y="392"/>
      <point x="435.029519659553" y="358"/>
      <point x="425.029519659553" y="330" type="curve" smooth="yes"/>
      <point x="355.029519659553" y="127" type="line" smooth="yes"/>
      <point x="342.029519659553" y="89"/>
      <point x="334.029519659553" y="63"/>
      <point x="334.029519659553" y="42" type="curve" smooth="yes"/>
      <point x="334.029519659553" y="24"/>
      <point x="344.029519659553" y="6"/>
    </contour>
    <contour>
      <point x="357.029519659553" y="540" type="move" name="top"/>
    </contour>
  </outline>
</glyph>
<glyph name="o" format="1">
  <advance width="520.1913666655779"/>
  <unicode hex="006F"/>
  <outline>
    <contour>
      <point x="167.029519659553" y="510"/>
      <point x="27.029519659552975" y="305"/>
      <point x="27.029519659552975" y="152" type="curve"/>
      <point x="27.029519659552975" y="42"/>
      <point x="78.02951965955297" y="-10"/>
      <point x="174.029519659553" y="-10" type="curve"/>
      <point x="341.029519659553" y="-10"/>
      <point x="492.029519659553" y="194"/>
      <point x="492.029519659553" y="342" type="curve"/>
      <point x="492.029519659553" y="458"/>
      <point x="440.029519659553" y="510"/>
      <point x="337.029519659553" y="510" type="curve"/>
    </contour>
    <contour>
      <point x="127.02951965955297" y="286"/>
      <point x="209.029519659553" y="470"/>
      <point x="313.029519659553" y="470" type="curve"/>
      <point x="367.029519659553" y="470"/>
      <point x="392.029519659553" y="420"/>
      <point x="392.029519659553" y="344" type="curve" smooth="yes"/>
      <point x="392.029519659553" y="214"/>
      <point x="306.029519659553" y="30"/>
      <point x="201.029519659553" y="30" type="curve"/>
      <point x="150.029519659553" y="30"/>
      <point x="127.02951965955297" y="80"/>
      <point x="127.02951965955297" y="156" type="curve"/>
    </contour>
    <contour>
      <point x="347.029519659553" y="540" type="move" name="top"/>
    </contour>
  </outline>
</glyph>
<glyph name="p" format="1">
  <advance width="596"/>
  <unicode hex="0070"/>
  <outline>
    <contour>
      <point x="177.029519659553" y="-206" type="line"/>
      <point x="84.02951965955297" y="-206" type="line"/>
      <point x="77.02951965955297" y="-196" type="line"/>
      <point x="131.029519659553" y="24" type="line"/>
      <point x="141.029519659553" y="24" type="line"/>
      <point x="148.029519659553" y="12"/>
      <point x="176.029519659553" y="-10"/>
      <point x="220.029519659553" y="-10" type="curve"/>
      <point x="391.029519659553" y="-10"/>
      <point x="578.029519659553" y="255"/>
      <point x="578.029519659553" y="412" type="curve"/>
      <point x="578.029519659553" y="482"/>
      <point x="536.029519659553" y="510"/>
      <point x="482.029519659553" y="510" type="curve"/>
      <point x="383.029519659553" y="510"/>
      <point x="293" y="423"/>
      <point x="211" y="270" type="curve"/>
      <point x="197.029519659553" y="270" type="line"/>
      <point x="244.029519659553" y="384" type="line" smooth="yes"/>
      <point x="266.029519659553" y="438"/>
      <point x="275.029519659553" y="482"/>
      <point x="253.029519659553" y="500" type="curve"/>
      <point x="193.029519659553" y="500" type="line"/>
      <point x="154.029519659553" y="470"/>
      <point x="96.02951965955297" y="396"/>
      <point x="52.029519659552975" y="342" type="curve"/>
      <point x="92.02951965955297" y="342" type="line"/>
      <point x="127.02951965955297" y="386"/>
      <point x="165.029519659553" y="430"/>
      <point x="177.029519659553" y="442" type="curve"/>
      <point x="188.029519659553" y="432" type="line"/>
      <point x="-13.970480340447025" y="-196" type="line"/>
      <point x="-26.970480340447025" y="-206" type="line"/>
      <point x="-81.97048034044703" y="-206" type="line"/>
      <point x="-91.97048034044703" y="-240" type="line"/>
      <point x="167.029519659553" y="-240" type="line"/>
    </contour>
    <contour>
      <point x="478.029519659553" y="398" type="curve"/>
      <point x="478.029519659553" y="284"/>
      <point x="334.029519659553" y="22"/>
      <point x="222.029519659553" y="22" type="curve"/>
      <point x="190.029519659553" y="22"/>
      <point x="162.029519659553" y="38"/>
      <point x="162.029519659553" y="81" type="curve" smooth="yes"/>
      <point x="162.029519659553" y="191"/>
      <point x="340.029519659553" y="448"/>
      <point x="434.029519659553" y="448" type="curve"/>
      <point x="459.029519659553" y="448"/>
      <point x="478.029519659553" y="436"/>
    </contour>
  </outline>
</glyph>
<glyph name="q" format="1">
  <advance width="554.0695494663145"/>
  <unicode hex="0071"/>
  <outline>
    <contour>
      <point x="117.02951965955297" y="102" type="curve"/>
      <point x="117.02951965955297" y="216"/>
      <point x="261.029519659553" y="478"/>
      <point x="373.029519659553" y="478" type="curve"/>
      <point x="405.029519659553" y="478"/>
      <point x="434.029519659553" y="462"/>
      <point x="434.029519659553" y="420" type="curve" smooth="yes"/>
      <point x="434.029519659553" y="310"/>
      <point x="255.029519659553" y="52"/>
      <point x="161.029519659553" y="52" type="curve"/>
      <point x="136.029519659553" y="52"/>
      <point x="117.02951965955297" y="65"/>
    </contour>
    <contour>
      <point x="235.029519659553" y="-206" type="line"/>
      <point x="162.029519659553" y="-206" type="line"/>
      <point x="152.029519659553" y="-240" type="line"/>
      <point x="399.029519659553" y="-240" type="line"/>
      <point x="409.029519659553" y="-206" type="line"/>
      <point x="348.029519659553" y="-206" type="line"/>
      <point x="340.029519659553" y="-196" type="line"/>
      <point x="543.029519659553" y="510" type="line"/>
      <point x="461.029519659553" y="510" type="line"/>
      <point x="454.029519659553" y="488" type="line"/>
      <point x="444.029519659553" y="488" type="line"/>
      <point x="438.029519659553" y="494"/>
      <point x="419.029519659553" y="510"/>
      <point x="375.029519659553" y="510" type="curve"/>
      <point x="204.029519659553" y="510"/>
      <point x="17.029519659552975" y="246"/>
      <point x="17.029519659552975" y="88" type="curve"/>
      <point x="17.029519659552975" y="16"/>
      <point x="59.029519659552975" y="-10"/>
      <point x="117.02951965955297" y="-10" type="curve"/>
      <point x="212.029519659553" y="-10"/>
      <point x="303.029519659553" y="77"/>
      <point x="384.029519659553" y="230" type="curve"/>
      <point x="398.029519659553" y="230" type="line"/>
      <point x="248.029519659553" y="-195" type="line"/>
    </contour>
    <contour>
      <point x="667.029519659553" y="959" type="move" name="top"/>
    </contour>
  </outline>
</glyph>
<glyph name="r" format="1">
  <advance width="431.627307120596"/>
  <unicode hex="0072"/>
  <outline>
    <contour>
      <point x="427.029519659553" y="506" type="line" smooth="yes"/>
      <point x="350.029519659553" y="501"/>
      <point x="271.029519659553" y="394"/>
      <point x="205.029519659553" y="235" type="curve"/>
      <point x="187.029519659553" y="235" type="line"/>
      <point x="229.029519659553" y="360" type="line" smooth="yes"/>
      <point x="262.029519659553" y="459"/>
      <point x="261.029519659553" y="486"/>
      <point x="240.029519659553" y="500" type="curve"/>
      <point x="180.029519659553" y="500" type="line"/>
      <point x="149.029519659553" y="477"/>
      <point x="84.02951965955297" y="405"/>
      <point x="37.029519659552975" y="332" type="curve"/>
      <point x="77.02951965955297" y="332" type="line"/>
      <point x="122.02951965955297" y="398"/>
      <point x="159.029519659553" y="435"/>
      <point x="167.029519659553" y="442" type="curve"/>
      <point x="178.029519659553" y="432" type="line"/>
      <point x="57.029519659552975" y="0" type="line"/>
      <point x="133.029519659553" y="0" type="line"/>
      <point x="204.029519659553" y="214"/>
      <point x="303.029519659553" y="411"/>
      <point x="405.029519659553" y="411" type="curve" smooth="yes"/>
      <point x="465.029519659553" y="411" type="line"/>
      <point x="491.029519659553" y="500" type="line"/>
      <point x="483.029519659553" y="510" type="line"/>
    </contour>
  </outline>
</glyph>
<glyph name="s" format="1">
  <advance width="434"/>
  <unicode hex="0073"/>
  <outline>
    <contour>
      <point x="391.029519659553" y="350" type="line"/>
      <point x="437.029519659553" y="510" type="line"/>
      <point x="399.029519659553" y="510" type="line"/>
      <point x="393.029519659553" y="490" type="line"/>
      <point x="383.029519659553" y="490" type="line"/>
      <point x="364.029519659553" y="498"/>
      <point x="333.029519659553" y="510"/>
      <point x="279.029519659553" y="510" type="curve"/>
      <point x="173.029519659553" y="510"/>
      <point x="112.02951965955297" y="448"/>
      <point x="112.02951965955297" y="373" type="curve" smooth="yes"/>
      <point x="112.02951965955297" y="317"/>
      <point x="126.02951965955297" y="287"/>
      <point x="176.029519659553" y="230" type="curve" smooth="yes"/>
      <point x="219.029519659553" y="181"/>
      <point x="248.029519659553" y="154"/>
      <point x="248.029519659553" y="110" type="curve"/>
      <point x="248.029519659553" y="65"/>
      <point x="219.029519659553" y="22"/>
      <point x="161.029519659553" y="22" type="curve"/>
      <point x="89.02951965955297" y="22"/>
      <point x="54.029519659552975" y="83"/>
      <point x="74.02951965955297" y="159" type="curve" smooth="yes"/>
      <point x="80.02951965955297" y="180" type="line"/>
      <point x="42.029519659552975" y="180" type="line"/>
      <point x="-11.970480340447025" y="0" type="line"/>
      <point x="28.029519659552975" y="0" type="line"/>
      <point x="34.029519659552975" y="20" type="line"/>
      <point x="44.029519659552975" y="20" type="line"/>
      <point x="57.029519659552975" y="13"/>
      <point x="93.02951965955297" y="-10"/>
      <point x="166.029519659553" y="-10" type="curve"/>
      <point x="272.029519659553" y="-10"/>
      <point x="342.029519659553" y="61"/>
      <point x="342.029519659553" y="138" type="curve"/>
      <point x="342.029519659553" y="196"/>
      <point x="289.029519659553" y="246"/>
      <point x="250.029519659553" y="294" type="curve" smooth="yes"/>
      <point x="210.029519659553" y="343"/>
      <point x="197.029519659553" y="367"/>
      <point x="197.029519659553" y="400" type="curve" smooth="yes"/>
      <point x="197.029519659553" y="440"/>
      <point x="223.029519659553" y="478"/>
      <point x="278.029519659553" y="478" type="curve"/>
      <point x="348.029519659553" y="478"/>
      <point x="377.029519659553" y="433"/>
      <point x="363.029519659553" y="384" type="curve" smooth="yes"/>
      <point x="353.029519659553" y="350" type="line"/>
    </contour>
  </outline>
</glyph>
<glyph name="t" format="1">
  <advance width="351.82677519252024"/>
  <unicode hex="0074"/>
  <outline>
    <contour>
      <point x="184.029519659553" y="460" type="line"/>
      <point x="353.029519659553" y="460" type="line"/>
      <point x="364.029519659553" y="500" type="line"/>
      <point x="195.029519659553" y="500" type="line"/>
    </contour>
    <contour>
      <point x="294.029519659553" y="610" type="line"/>
      <point x="284.029519659553" y="610" type="line"/>
      <point x="74.02951965955297" y="466" type="line"/>
      <point x="85.02951965955297" y="456" type="line"/>
      <point x="169.029519659553" y="456" type="line"/>
      <point x="61.029519659552975" y="118" type="line" smooth="yes"/>
      <point x="43.029519659552975" y="60"/>
      <point x="39.029519659552975" y="18"/>
      <point x="71.02951965955297" y="0" type="curve"/>
      <point x="131.029519659553" y="0" type="line"/>
      <point x="175.029519659553" y="32"/>
      <point x="255.029519659553" y="118"/>
      <point x="298.029519659553" y="168" type="curve"/>
      <point x="258.029519659553" y="168" type="line"/>
      <point x="222.029519659553" y="130"/>
      <point x="163.029519659553" y="70"/>
      <point x="147.029519659553" y="58" type="curve"/>
      <point x="136.029519659553" y="68" type="line"/>
    </contour>
  </outline>
</glyph>
<glyph name="u" format="1">
  <advance width="616"/>
  <unicode hex="0075"/>
  <outline>
    <contour>
      <point x="259.029519659553" y="500" type="curve"/>
      <point x="199.029519659553" y="500" type="line"/>
      <point x="156.029519659553" y="470"/>
      <point x="83.02951965955297" y="391"/>
      <point x="41.029519659552975" y="342" type="curve"/>
      <point x="81.02951965955297" y="342" type="line"/>
      <point x="118.02951965955297" y="381"/>
      <point x="166.029519659553" y="432"/>
      <point x="183.029519659553" y="442" type="curve"/>
      <point x="194.029519659553" y="432" type="line"/>
      <point x="100.02951965955297" y="190" type="line" smooth="yes"/>
      <point x="78.02951965955297" y="133"/>
      <point x="63.029519659552975" y="88"/>
      <point x="63.029519659552975" y="58" type="curve" smooth="yes"/>
      <point x="63.029519659552975" y="22"/>
      <point x="87.02951965955297" y="-10"/>
      <point x="133.029519659553" y="-10" type="curve"/>
      <point x="240.029519659553" y="-10"/>
      <point x="356.029519659553" y="172"/>
      <point x="405.029519659553" y="265" type="curve"/>
      <point x="419.029519659553" y="265" type="line"/>
      <point x="371.029519659553" y="139" type="line" smooth="yes"/>
      <point x="334.029519659553" y="41"/>
      <point x="346.029519659553" y="14"/>
      <point x="367.029519659553" y="0" type="curve"/>
      <point x="427.029519659553" y="0" type="line"/>
      <point x="458.029519659553" y="23"/>
      <point x="523.029519659553" y="95"/>
      <point x="570.029519659553" y="168" type="curve"/>
      <point x="530.029519659553" y="168" type="line"/>
      <point x="485.029519659553" y="102"/>
      <point x="448.029519659553" y="65"/>
      <point x="440.029519659553" y="58" type="curve"/>
      <point x="429.029519659553" y="68" type="line"/>
      <point x="563.029519659553" y="500" type="line"/>
      <point x="487.029519659553" y="500" type="line"/>
      <point x="415.029519659553" y="290"/>
      <point x="244.029519659553" y="56"/>
      <point x="188.029519659553" y="56" type="curve"/>
      <point x="168.029519659553" y="56"/>
      <point x="161.029519659553" y="70"/>
      <point x="161.029519659553" y="90" type="curve" smooth="yes"/>
      <point x="161.029519659553" y="108"/>
      <point x="172.029519659553" y="142"/>
      <point x="183.029519659553" y="170" type="curve" smooth="yes"/>
      <point x="261.029519659553" y="373" type="line" smooth="yes"/>
      <point x="276.029519659553" y="411"/>
      <point x="282.029519659553" y="437"/>
      <point x="282.029519659553" y="458" type="curve" smooth="yes"/>
      <point x="282.029519659553" y="476"/>
      <point x="272.029519659553" y="494"/>
    </contour>
    <contour>
      <point x="259.029519659553" y="-18" type="move" name="top"/>
    </contour>
    <contour>
      <point x="387.029519659553" y="540" type="move" name="top"/>
    </contour>
  </outline>
</glyph>
<glyph name="v" format="1">
  <advance width="517.7056114297104"/>
  <unicode hex="0076"/>
  <outline>
    <contour>
      <point x="129.029519659553" y="442" type="line"/>
      <point x="149.029519659553" y="405"/>
      <point x="175.029519659553" y="276"/>
      <point x="151.029519659553" y="-10" type="curve"/>
      <point x="161.029519659553" y="-20" type="line"/>
      <point x="461.029519659553" y="253"/>
      <point x="525.029519659553" y="350"/>
      <point x="525.029519659553" y="442" type="curve" smooth="yes"/>
      <point x="525.029519659553" y="475"/>
      <point x="512.029519659553" y="500"/>
      <point x="468.029519659553" y="500" type="curve" smooth="yes"/>
      <point x="392.029519659553" y="500" type="line"/>
      <point x="369.029519659553" y="420" type="line"/>
      <point x="376.029519659553" y="410" type="line"/>
      <point x="418.029519659553" y="410" type="line" smooth="yes"/>
      <point x="434.029519659553" y="410"/>
      <point x="444.029519659553" y="400"/>
      <point x="444.029519659553" y="385" type="curve" smooth="yes"/>
      <point x="444.029519659553" y="350"/>
      <point x="433.029519659553" y="296"/>
      <point x="247.029519659553" y="100" type="curve"/>
      <point x="237.029519659553" y="110" type="line"/>
      <point x="259.029519659553" y="312"/>
      <point x="220.029519659553" y="482"/>
      <point x="198.029519659553" y="500" type="curve"/>
      <point x="138.029519659553" y="500" type="line"/>
      <point x="104.02951965955297" y="476"/>
      <point x="57.029519659552975" y="420"/>
      <point x="8.029519659552975" y="350" type="curve"/>
      <point x="48.029519659552975" y="350" type="line"/>
      <point x="88.02951965955297" y="408"/>
      <point x="111.02951965955297" y="435"/>
      <point x="119.02951965955297" y="442" type="curve"/>
    </contour>
  </outline>
</glyph>
<glyph name="w" format="1">
  <advance width="764.705284373929"/>
  <unicode hex="0077"/>
  <outline>
    <contour>
      <point x="129.029519659553" y="442" type="line"/>
      <point x="149.029519659553" y="405"/>
      <point x="175.029519659553" y="276"/>
      <point x="151.029519659553" y="-10" type="curve"/>
      <point x="161.029519659553" y="-20" type="line"/>
      <point x="418.029519659553" y="336" type="line"/>
      <point x="428.029519659553" y="336" type="line"/>
      <point x="436.029519659553" y="254"/>
      <point x="439.029519659553" y="134"/>
      <point x="425.029519659553" y="-10" type="curve"/>
      <point x="435.029519659553" y="-20" type="line"/>
      <point x="693.029519659553" y="252"/>
      <point x="773.029519659553" y="350"/>
      <point x="773.029519659553" y="442" type="curve" smooth="yes"/>
      <point x="773.029519659553" y="475"/>
      <point x="756.029519659553" y="500"/>
      <point x="716.029519659553" y="500" type="curve" smooth="yes"/>
      <point x="640.029519659553" y="500" type="line"/>
      <point x="617.029519659553" y="420" type="line"/>
      <point x="624.029519659553" y="410" type="line"/>
      <point x="666.029519659553" y="410" type="line" smooth="yes"/>
      <point x="682.029519659553" y="410"/>
      <point x="691.029519659553" y="400"/>
      <point x="692.029519659553" y="385" type="curve" smooth="yes"/>
      <point x="692.029519659553" y="359"/>
      <point x="681.029519659553" y="294"/>
      <point x="525.029519659553" y="118" type="curve"/>
      <point x="515.029519659553" y="128" type="line"/>
      <point x="536.029519659553" y="312"/>
      <point x="494.029519659553" y="482"/>
      <point x="472.029519659553" y="500" type="curve"/>
      <point x="473.029519659553" y="500" type="line"/>
      <point x="443.029519659553" y="500" type="line"/>
      <point x="245.029519659553" y="136" type="line"/>
      <point x="235.029519659553" y="146" type="line"/>
      <point x="260.029519659553" y="318"/>
      <point x="220.029519659553" y="482"/>
      <point x="198.029519659553" y="500" type="curve"/>
      <point x="138.029519659553" y="500" type="line"/>
      <point x="104.02951965955297" y="476"/>
      <point x="57.029519659552975" y="420"/>
      <point x="8.029519659552975" y="350" type="curve"/>
      <point x="48.029519659552975" y="350" type="line"/>
      <point x="88.02951965955297" y="408"/>
      <point x="111.02951965955297" y="435"/>
      <point x="119.02951965955297" y="442" type="curve"/>
    </contour>
  </outline>
</glyph>
<glyph name="x" format="1">
  <advance width="528.0"/>
  <unicode hex="0078"/>
  <outline>
    <contour>
      <point x="291.029519659553" y="250" type="line"/>
      <point x="368.029519659553" y="382"/>
      <point x="414.029519659553" y="420"/>
      <point x="463.029519659553" y="420" type="curve" smooth="yes"/>
      <point x="533.029519659553" y="420" type="line"/>
      <point x="556.029519659553" y="500" type="line"/>
      <point x="547.029519659553" y="510" type="line"/>
      <point x="496.029519659553" y="508" type="line" smooth="yes"/>
      <point x="406.029519659553" y="504"/>
      <point x="331.029519659553" y="378"/>
      <point x="294.029519659553" y="304" type="curve"/>
      <point x="284.029519659553" y="304" type="line"/>
    </contour>
    <contour>
      <point x="231.029519659553" y="182" type="curve"/>
      <point x="241.029519659553" y="182" type="line"/>
      <point x="233.029519659553" y="238" type="line"/>
      <point x="170.029519659553" y="121"/>
      <point x="126.02951965955297" y="80"/>
      <point x="69.02951965955297" y="80" type="curve" smooth="yes"/>
      <point x="-0.9704803404470255" y="80" type="line"/>
      <point x="-23.970480340447025" y="0" type="line"/>
      <point x="-14.970480340447025" y="-10" type="line"/>
      <point x="36.029519659552975" y="-8" type="line" smooth="yes"/>
      <point x="119.02951965955297" y="-5"/>
      <point x="199.029519659553" y="113"/>
    </contour>
    <contour>
      <point x="378.029519659553" y="60" type="line"/>
      <point x="231.029519659553" y="454" type="line" smooth="yes"/>
      <point x="223.029519659553" y="474"/>
      <point x="212.029519659553" y="493"/>
      <point x="202.029519659553" y="500" type="curve"/>
      <point x="142.029519659553" y="500" type="line"/>
      <point x="123.02951965955297" y="478"/>
      <point x="101.02951965955297" y="420"/>
      <point x="72.02951965955297" y="330" type="curve"/>
      <point x="108.02951965955297" y="330" type="line"/>
      <point x="126.02951965955297" y="392"/>
      <point x="136.029519659553" y="419"/>
      <point x="140.029519659553" y="426" type="curve"/>
      <point x="150.029519659553" y="426" type="line"/>
      <point x="278.029519659553" y="83" type="line" smooth="yes"/>
      <point x="298.029519659553" y="28"/>
      <point x="304.029519659553" y="14"/>
      <point x="330.029519659553" y="0" type="curve"/>
      <point x="390.029519659553" y="0" type="line"/>
      <point x="411.029519659553" y="25"/>
      <point x="438.029519659553" y="80"/>
      <point x="468.029519659553" y="160" type="curve"/>
      <point x="430.029519659553" y="160" type="line"/>
      <point x="410.029519659553" y="101"/>
      <point x="393.029519659553" y="68"/>
      <point x="388.029519659553" y="60" type="curve"/>
    </contour>
  </outline>
</glyph>
<glyph name="y" format="1">
  <advance width="519.4833240443113"/>
  <unicode hex="0079"/>
  <outline>
    <contour>
      <point x="164.029519659553" y="10" type="curve"/>
      <point x="73.02951965955297" y="-87"/>
      <point x="-20.970480340447025" y="-156"/>
      <point x="-106.97048034044703" y="-156" type="curve" smooth="yes"/>
      <point x="-166.970480340447" y="-156" type="line"/>
      <point x="-190.970480340447" y="-240" type="line"/>
      <point x="-182.970480340447" y="-250" type="line"/>
      <point x="-135.970480340447" y="-246" type="line" smooth="yes"/>
      <point x="-49.970480340447025" y="-238"/>
      <point x="-13.970480340447025" y="-212"/>
      <point x="179.029519659553" y="-20" type="curve" smooth="yes"/>
      <point x="461.029519659553" y="260"/>
      <point x="527.029519659553" y="350"/>
      <point x="527.029519659553" y="442" type="curve" smooth="yes"/>
      <point x="527.029519659553" y="475"/>
      <point x="514.029519659553" y="500"/>
      <point x="470.029519659553" y="500" type="curve" smooth="yes"/>
      <point x="394.029519659553" y="500" type="line"/>
      <point x="371.029519659553" y="420" type="line"/>
      <point x="378.029519659553" y="410" type="line"/>
      <point x="420.029519659553" y="410" type="line" smooth="yes"/>
      <point x="436.029519659553" y="410"/>
      <point x="446.029519659553" y="400"/>
      <point x="446.029519659553" y="385" type="curve" smooth="yes"/>
      <point x="446.029519659553" y="359"/>
      <point x="439.029519659553" y="300"/>
      <point x="254.029519659553" y="102" type="curve"/>
      <point x="244.029519659553" y="112" type="line"/>
      <point x="265.029519659553" y="316"/>
      <point x="230.029519659553" y="482"/>
      <point x="200.029519659553" y="500" type="curve"/>
      <point x="140.029519659553" y="500" type="line"/>
      <point x="106.02951965955297" y="476"/>
      <point x="59.029519659552975" y="420"/>
      <point x="10.029519659552975" y="350" type="curve"/>
      <point x="50.029519659552975" y="350" type="line"/>
      <point x="90.02951965955297" y="408"/>
      <point x="113.02951965955297" y="435"/>
      <point x="121.02951965955297" y="442" type="curve"/>
      <point x="131.029519659553" y="442" type="line"/>
      <point x="151.029519659553" y="406"/>
      <point x="175.029519659553" y="314"/>
    </contour>
    <contour>
      <point x="332.029519659553" y="540" type="move" name="top"/>
    </contour>
  </outline>
</glyph>
<glyph name="z" format="1">
  <advance width="462"/>
  <unicode hex="007A"/>
  <outline>
    <contour>
      <point x="85.02951965955297" y="78" type="line"/>
      <point x="485.029519659553" y="490" type="line"/>
      <point x="485.029519659553" y="500" type="line"/>
      <point x="121.02951965955297" y="500" type="line"/>
      <point x="79.02951965955297" y="353" type="line"/>
      <point x="113.02951965955297" y="353" type="line"/>
      <point x="143.029519659553" y="419"/>
      <point x="180.029519659553" y="432"/>
      <point x="239.029519659553" y="432" type="curve" smooth="yes"/>
      <point x="363.029519659553" y="432" type="line"/>
      <point x="363.029519659553" y="422" type="line"/>
      <point x="-38.970480340447025" y="10" type="line"/>
      <point x="-38.970480340447025" y="0" type="line"/>
      <point x="333.029519659553" y="0" type="line"/>
      <point x="379.029519659553" y="162" type="line"/>
      <point x="345.029519659553" y="162" type="line"/>
      <point x="310.029519659553" y="81"/>
      <point x="277.029519659553" y="68"/>
      <point x="213.029519659553" y="68" type="curve" smooth="yes"/>
      <point x="85.02951965955297" y="68" type="line"/>
    </contour>
  </outline>
</glyph>
<glyph name="braceleft" format="1">
  <advance width="384"/>
  <unicode hex="007B"/>
  <outline>
    <contour>
      <point x="230.029519659553" y="-250" type="curve"/>
      <point x="238.029519659553" y="-216" type="line"/>
      <point x="167.029519659553" y="-216"/>
      <point x="140.029519659553" y="-177"/>
      <point x="140.029519659553" y="-111" type="curve" smooth="yes"/>
      <point x="140.029519659553" y="-65"/>
      <point x="153.029519659553" y="-6"/>
      <point x="172.029519659553" y="62" type="curve" smooth="yes"/>
      <point x="184.029519659553" y="101"/>
      <point x="190.029519659553" y="131"/>
      <point x="190.029519659553" y="155" type="curve" smooth="yes"/>
      <point x="190.029519659553" y="210"/>
      <point x="156.029519659553" y="230"/>
      <point x="74.02951965955297" y="245" type="curve"/>
      <point x="75.02951965955297" y="250" type="line"/>
      <point x="10.029519659552975" y="250" type="line"/>
      <point x="6.0295196595529745" y="233" type="line"/>
      <point x="87.02951965955297" y="226"/>
      <point x="116.02951965955297" y="193"/>
      <point x="116.02951965955297" y="138" type="curve" smooth="yes"/>
      <point x="116.02951965955297" y="109"/>
      <point x="107.02951965955297" y="73"/>
      <point x="95.02951965955297" y="32" type="curve" smooth="yes"/>
      <point x="80.02951965955297" y="-17"/>
      <point x="69.02951965955297" y="-66"/>
      <point x="69.02951965955297" y="-109" type="curve" smooth="yes"/>
      <point x="69.02951965955297" y="-190"/>
      <point x="108.02951965955297" y="-250"/>
    </contour>
    <contour>
      <point x="479.029519659553" y="750" type="line"/>
      <point x="293.029519659553" y="750"/>
      <point x="231.029519659553" y="611"/>
      <point x="204.029519659553" y="468" type="curve" smooth="yes"/>
      <point x="180.029519659553" y="350"/>
      <point x="145.029519659553" y="278"/>
      <point x="15.029519659552975" y="267" type="curve"/>
      <point x="10.029519659552975" y="250" type="line"/>
      <point x="75.02951965955297" y="250" type="line"/>
      <point x="77.02951965955297" y="255" type="line"/>
      <point x="204.029519659553" y="277"/>
      <point x="239.029519659553" y="307"/>
      <point x="266.029519659553" y="438" type="curve" smooth="yes"/>
      <point x="301.029519659553" y="606"/>
      <point x="351.029519659553" y="716"/>
      <point x="471.029519659553" y="716" type="curve"/>
    </contour>
  </outline>
</glyph>
<glyph name="bar" format="1">
  <advance width="158"/>
  <unicode hex="007C"/>
  <outline>
    <contour>
      <point x="183.029519659553" y="750" type="line"/>
      <point x="-65.97048034044703" y="-250" type="line"/>
      <point x="-25.970480340447025" y="-250" type="line"/>
      <point x="223.029519659553" y="750" type="line"/>
    </contour>
  </outline>
</glyph>
<glyph name="braceright" format="1">
  <advance width="383.313653560298"/>
  <unicode hex="007D"/>
  <outline>
    <contour>
      <point x="153.029519659553" y="750" type="curve"/>
      <point x="145.029519659553" y="716" type="line"/>
      <point x="216.029519659553" y="716"/>
      <point x="243.029519659553" y="677"/>
      <point x="243.029519659553" y="611" type="curve" smooth="yes"/>
      <point x="243.029519659553" y="565"/>
      <point x="230.029519659553" y="506"/>
      <point x="211.029519659553" y="438" type="curve" smooth="yes"/>
      <point x="199.029519659553" y="399"/>
      <point x="193.029519659553" y="369"/>
      <point x="193.029519659553" y="345" type="curve" smooth="yes"/>
      <point x="193.029519659553" y="290"/>
      <point x="227.029519659553" y="270"/>
      <point x="309.029519659553" y="255" type="curve"/>
      <point x="308.029519659553" y="250" type="line"/>
      <point x="373.029519659553" y="250" type="line"/>
      <point x="377.029519659553" y="267" type="line"/>
      <point x="296.029519659553" y="274"/>
      <point x="267.029519659553" y="307"/>
      <point x="267.029519659553" y="362" type="curve" smooth="yes"/>
      <point x="267.029519659553" y="391"/>
      <point x="276.029519659553" y="427"/>
      <point x="288.029519659553" y="468" type="curve" smooth="yes"/>
      <point x="303.029519659553" y="517"/>
      <point x="314.029519659553" y="566"/>
      <point x="314.029519659553" y="609" type="curve" smooth="yes"/>
      <point x="314.029519659553" y="690"/>
      <point x="275.029519659553" y="750"/>
    </contour>
    <contour>
      <point x="-95.97048034044703" y="-250" type="line"/>
      <point x="90.02951965955297" y="-250"/>
      <point x="152.029519659553" y="-111"/>
      <point x="179.029519659553" y="32" type="curve" smooth="yes"/>
      <point x="203.029519659553" y="150"/>
      <point x="238.029519659553" y="222"/>
      <point x="368.029519659553" y="233" type="curve"/>
      <point x="373.029519659553" y="250" type="line"/>
      <point x="308.029519659553" y="250" type="line"/>
      <point x="306.029519659553" y="245" type="line"/>
      <point x="179.029519659553" y="223"/>
      <point x="144.029519659553" y="193"/>
      <point x="117.02951965955297" y="62" type="curve" smooth="yes"/>
      <point x="82.02951965955297" y="-106"/>
      <point x="32.029519659552975" y="-216"/>
      <point x="-87.97048034044703" y="-216" type="curve"/>
    </contour>
  </outline>
</glyph>
<glyph name="asciitilde" format="1">
  <advance width="280"/>
  <unicode hex="007E"/>
  <outline>
    <contour>
      <point x="327.029519659553" y="350" type="curve"/>
      <point x="307.029519659553" y="364" type="line"/>
      <point x="296.029519659553" y="337"/>
      <point x="273.029519659553" y="312"/>
      <point x="245.029519659553" y="312" type="curve"/>
      <point x="188.029519659553" y="312"/>
      <point x="177.029519659553" y="372"/>
      <point x="102.02951965955297" y="372" type="curve"/>
      <point x="44.029519659552975" y="372"/>
      <point x="5.0295196595529745" y="323"/>
      <point x="-11.970480340447025" y="274" type="curve"/>
      <point x="8.029519659552975" y="260" type="line"/>
      <point x="19.029519659552975" y="287"/>
      <point x="41.029519659552975" y="312"/>
      <point x="69.02951965955297" y="312" type="curve"/>
      <point x="126.02951965955297" y="312"/>
      <point x="136.029519659553" y="252"/>
      <point x="212.029519659553" y="252" type="curve"/>
      <point x="268.029519659553" y="252"/>
      <point x="309.029519659553" y="301"/>
    </contour>
    <contour>
      <point x="217.029519659553" y="520.0" type="move" name="_top"/>
    </contour>
  </outline>
</glyph>
<glyph name="cent" format="1">
  <advance width="510"/>
  <unicode hex="00A2"/>
  <outline>
    <contour>
      <point x="166.029519659553" y="0" type="line"/>
      <point x="206.029519659553" y="0" type="line"/>
      <point x="414.029519659553" y="750" type="line"/>
      <point x="376.029519659553" y="750" type="line"/>
    </contour>
    <component base="c" xOffset="36.0" yOffset="125"/>
  </outline>
</glyph>
<glyph name="sterling" format="1">
  <advance width="614.0"/>
  <unicode hex="00A3"/>
  <outline>
    <contour>
      <point x="425.029519659553" y="358" type="line"/>
      <point x="434.029519659553" y="392" type="line"/>
      <point x="74.02951965955297" y="392" type="line"/>
      <point x="65.02951965955297" y="358" type="line"/>
    </contour>
    <contour>
      <point x="488.029519659553" y="0" type="line"/>
      <point x="543.029519659553" y="220" type="line"/>
      <point x="505.029519659553" y="220" type="line"/>
      <point x="492.029519659553" y="170" type="line" smooth="yes"/>
      <point x="471.029519659553" y="84"/>
      <point x="443.029519659553" y="62"/>
      <point x="357.029519659553" y="62" type="curve" smooth="yes"/>
      <point x="127.02951965955297" y="62" type="line"/>
      <point x="130.029519659553" y="72" type="line"/>
      <point x="187.029519659553" y="100"/>
      <point x="297.029519659553" y="177"/>
      <point x="297.029519659553" y="352" type="curve" smooth="yes"/>
      <point x="297.029519659553" y="370"/>
      <point x="290.029519659553" y="428"/>
      <point x="290.029519659553" y="477" type="curve"/>
      <point x="290.029519659553" y="592"/>
      <point x="340.029519659553" y="710"/>
      <point x="469.029519659553" y="710" type="curve"/>
      <point x="545.029519659553" y="710"/>
      <point x="591.029519659553" y="675"/>
      <point x="591.029519659553" y="603" type="curve" smooth="yes"/>
      <point x="591.029519659553" y="581"/>
      <point x="588.029519659553" y="556"/>
      <point x="581.029519659553" y="528" type="curve" smooth="yes"/>
      <point x="571.029519659553" y="488" type="line"/>
      <point x="609.029519659553" y="488" type="line"/>
      <point x="674.029519659553" y="750" type="line"/>
      <point x="636.029519659553" y="750" type="line"/>
      <point x="625.029519659553" y="706" type="line"/>
      <point x="615.029519659553" y="706" type="line"/>
      <point x="594.029519659553" y="724"/>
      <point x="560.029519659553" y="760"/>
      <point x="466.029519659553" y="760" type="curve"/>
      <point x="300.029519659553" y="760"/>
      <point x="179.029519659553" y="633"/>
      <point x="179.029519659553" y="455" type="curve"/>
      <point x="179.029519659553" y="399"/>
      <point x="188.029519659553" y="345"/>
      <point x="188.029519659553" y="292" type="curve"/>
      <point x="188.029519659553" y="145"/>
      <point x="104.02951965955297" y="62"/>
      <point x="28.029519659552975" y="62" type="curve" smooth="yes"/>
      <point x="-8.970480340447025" y="62" type="line"/>
      <point x="-23.970480340447025" y="0" type="line"/>
    </contour>
    <contour>
      <point x="395.029519659553" y="521" type="move" name="top"/>
    </contour>
    <contour>
      <point x="262.029519659553" y="-11" type="move" name="bottom"/>
    </contour>
  </outline>
</glyph>
<glyph name="yen" format="1">
  <advance width="811.6903037966936"/>
  <unicode hex="00A5"/>
  <outline>
    <contour>
      <point x="669.029519659553" y="284" type="line"/>
      <point x="183.029519659553" y="284" type="line"/>
      <point x="183.029519659553" y="250" type="line"/>
      <point x="669.029519659553" y="250" type="line"/>
    </contour>
    <contour>
      <point x="385.029519659553" y="475" type="line"/>
      <point x="235.029519659553" y="475" type="line"/>
      <point x="235.029519659553" y="441" type="line"/>
      <point x="385.029519659553" y="441" type="line"/>
    </contour>
    <contour>
      <point x="581.029519659553" y="441" type="line"/>
      <point x="721.029519659553" y="441" type="line"/>
      <point x="721.029519659553" y="475" type="line"/>
      <point x="581.029519659553" y="475" type="line"/>
    </contour>
    <component base="Y"/>
  </outline>
</glyph>
<glyph name="brokenbar" format="1">
  <advance width="157.686346439702"/>
  <unicode hex="00A6"/>
  <outline>
    <contour>
      <point x="184.029519659553" y="750" type="line"/>
      <point x="90.02951965955297" y="375" type="line"/>
      <point x="130.029519659553" y="375" type="line"/>
      <point x="224.029519659553" y="750" type="line"/>
    </contour>
    <contour>
      <point x="28.029519659552975" y="125" type="line"/>
      <point x="-64.97048034044703" y="-250" type="line"/>
      <point x="-24.970480340447025" y="-250" type="line"/>
      <point x="68.02951965955297" y="125" type="line"/>
    </contour>
  </outline>
</glyph>
<glyph name="section" format="1">
  <advance width="448.3911784501503"/>
  <unicode hex="00A7"/>
  <outline>
    <contour>
      <point x="454.029519659553" y="600" type="line"/>
      <point x="500.029519659553" y="760" type="line"/>
      <point x="464.029519659553" y="760" type="line"/>
      <point x="458.029519659553" y="740" type="line"/>
      <point x="448.029519659553" y="740" type="line"/>
      <point x="431.029519659553" y="746"/>
      <point x="398.029519659553" y="760"/>
      <point x="347.029519659553" y="760" type="curve" smooth="yes"/>
      <point x="245.029519659553" y="760"/>
      <point x="159.029519659553" y="691"/>
      <point x="159.029519659553" y="596" type="curve"/>
      <point x="159.029519659553" y="546"/>
      <point x="182.029519659553" y="517"/>
      <point x="213.029519659553" y="492" type="curve"/>
      <point x="211.029519659553" y="482" type="line"/>
      <point x="148.029519659553" y="460"/>
      <point x="96.02951965955297" y="418"/>
      <point x="96.02951965955297" y="340" type="curve"/>
      <point x="96.02951965955297" y="278"/>
      <point x="135.029519659553" y="255"/>
      <point x="188.029519659553" y="214" type="curve" smooth="yes"/>
      <point x="259.029519659553" y="159"/>
      <point x="282.029519659553" y="143"/>
      <point x="282.029519659553" y="105" type="curve" smooth="yes"/>
      <point x="282.029519659553" y="56"/>
      <point x="242.029519659553" y="28"/>
      <point x="187.029519659553" y="28" type="curve" smooth="yes"/>
      <point x="103.02951965955297" y="28"/>
      <point x="61.029519659552975" y="87"/>
      <point x="81.02951965955297" y="160" type="curve" smooth="yes"/>
      <point x="87.02951965955297" y="182" type="line"/>
      <point x="51.029519659552975" y="182" type="line"/>
      <point x="-0.9704803404470255" y="0" type="line"/>
      <point x="35.029519659552975" y="0" type="line"/>
      <point x="43.029519659552975" y="28" type="line"/>
      <point x="53.029519659552975" y="28" type="line"/>
      <point x="66.02951965955297" y="18"/>
      <point x="108.02951965955297" y="-10"/>
      <point x="178.029519659553" y="-10" type="curve" smooth="yes"/>
      <point x="290.029519659553" y="-10"/>
      <point x="381.029519659553" y="58"/>
      <point x="381.029519659553" y="156" type="curve"/>
      <point x="381.029519659553" y="203"/>
      <point x="358.029519659553" y="232"/>
      <point x="330.029519659553" y="258" type="curve"/>
      <point x="332.029519659553" y="268" type="line"/>
      <point x="390.029519659553" y="292"/>
      <point x="443.029519659553" y="337"/>
      <point x="443.029519659553" y="407" type="curve"/>
      <point x="443.029519659553" y="481"/>
      <point x="394.029519659553" y="516"/>
      <point x="315.029519659553" y="562" type="curve" smooth="yes"/>
      <point x="272.029519659553" y="588"/>
      <point x="249.029519659553" y="607"/>
      <point x="249.029519659553" y="645" type="curve" smooth="yes"/>
      <point x="249.029519659553" y="688"/>
      <point x="281.029519659553" y="722"/>
      <point x="339.029519659553" y="722" type="curve"/>
      <point x="407.029519659553" y="722"/>
      <point x="439.029519659553" y="683"/>
      <point x="427.029519659553" y="635" type="curve" smooth="yes"/>
      <point x="418.029519659553" y="600" type="line"/>
    </contour>
    <contour>
      <point x="256.029519659553" y="298" type="curve" smooth="yes"/>
      <point x="193.029519659553" y="354"/>
      <point x="180.029519659553" y="361"/>
      <point x="180.029519659553" y="396" type="curve"/>
      <point x="180.029519659553" y="428"/>
      <point x="212.029519659553" y="466"/>
      <point x="249.029519659553" y="466" type="curve" smooth="yes"/>
      <point x="264.029519659553" y="466"/>
      <point x="273.029519659553" y="463"/>
      <point x="283.029519659553" y="454" type="curve" smooth="yes"/>
      <point x="345.029519659553" y="398"/>
      <point x="360.029519659553" y="392"/>
      <point x="360.029519659553" y="360" type="curve" smooth="yes"/>
      <point x="360.029519659553" y="330"/>
      <point x="328.029519659553" y="287"/>
      <point x="288.029519659553" y="287" type="curve" smooth="yes"/>
      <point x="276.029519659553" y="287"/>
      <point x="265.029519659553" y="290"/>
    </contour>
  </outline>
</glyph>
<glyph name="dieresis" format="1">
  <advance width="280"/>
  <unicode hex="00A8"/>
  <outline>
    <contour>
      <point x="-61.970480340447025" y="610" type="line"/>
      <point x="38.029519659552975" y="610" type="line"/>
      <point x="38.029519659552975" y="710" type="line"/>
      <point x="-61.970480340447025" y="710" type="line"/>
    </contour>
    <contour>
      <point x="98.02951965955297" y="610" type="line"/>
      <point x="198.029519659553" y="610" type="line"/>
      <point x="198.029519659553" y="710" type="line"/>
      <point x="98.02951965955297" y="710" type="line"/>
    </contour>
    <contour>
      <point x="68.02951965955297" y="520.0" type="move" name="_top"/>
    </contour>
  </outline>
</glyph>
<glyph name="copyright" format="1">
  <advance width="893.8689609266233"/>
  <unicode hex="00A9"/>
  <outline>
    <contour>
      <point x="103.02951965955297" y="375" type="curve" smooth="yes"/>
      <point x="103.02951965955297" y="155"/>
      <point x="262.029519659553" y="-10"/>
      <point x="482.029519659553" y="-10" type="curve" smooth="yes"/>
      <point x="702.029519659553" y="-10"/>
      <point x="862.029519659553" y="155"/>
      <point x="862.029519659553" y="375" type="curve" smooth="yes"/>
      <point x="862.029519659553" y="595"/>
      <point x="702.029519659553" y="760"/>
      <point x="482.029519659553" y="760" type="curve" smooth="yes"/>
      <point x="262.029519659553" y="760"/>
      <point x="103.02951965955297" y="595"/>
    </contour>
    <contour>
      <point x="141.029519659553" y="375" type="curve" smooth="yes"/>
      <point x="141.029519659553" y="575"/>
      <point x="282.029519659553" y="726"/>
      <point x="482.029519659553" y="726" type="curve" smooth="yes"/>
      <point x="682.029519659553" y="726"/>
      <point x="824.029519659553" y="575"/>
      <point x="824.029519659553" y="375" type="curve" smooth="yes"/>
      <point x="824.029519659553" y="175"/>
      <point x="682.029519659553" y="24"/>
      <point x="482.029519659553" y="24" type="curve" smooth="yes"/>
      <point x="282.029519659553" y="24"/>
      <point x="141.029519659553" y="175"/>
    </contour>
    <contour>
      <point x="700.029519659553" y="224" type="curve"/>
      <point x="681.029519659553" y="242" type="line"/>
      <point x="639.029519659553" y="188"/>
      <point x="586.029519659553" y="157"/>
      <point x="510.029519659553" y="157" type="curve"/>
      <point x="384.029519659553" y="157"/>
      <point x="311.029519659553" y="250"/>
      <point x="311.029519659553" y="376" type="curve"/>
      <point x="311.029519659553" y="496"/>
      <point x="370.029519659553" y="595"/>
      <point x="497.029519659553" y="595" type="curve"/>
      <point x="576.029519659553" y="595"/>
      <point x="656.029519659553" y="558"/>
      <point x="656.029519659553" y="474" type="curve" smooth="yes"/>
      <point x="656.029519659553" y="448" type="line"/>
      <point x="681.029519659553" y="448" type="line"/>
      <point x="681.029519659553" y="622" type="line"/>
      <point x="681.029519659553" y="622"/>
      <point x="656.029519659553" y="622"/>
      <point x="656.029519659553" y="622" type="curve"/>
      <point x="656.029519659553" y="592" type="line"/>
      <point x="649.029519659553" y="592" type="line"/>
      <point x="631.029519659553" y="602"/>
      <point x="572.029519659553" y="628"/>
      <point x="497.029519659553" y="628" type="curve"/>
      <point x="335.029519659553" y="628"/>
      <point x="231.029519659553" y="518"/>
      <point x="231.029519659553" y="366" type="curve"/>
      <point x="231.029519659553" y="220"/>
      <point x="339.029519659553" y="117"/>
      <point x="487.029519659553" y="117" type="curve"/>
      <point x="588.029519659553" y="117"/>
      <point x="653.029519659553" y="161"/>
    </contour>
  </outline>
</glyph>
<glyph name="ordfeminine" format="1">
  <advance width="389"/>
  <unicode hex="00AA"/>
  <outline>
    <contour>
      <point x="377.029519659553" y="663" type="curve" smooth="yes"/>
      <point x="364.029519659553" y="619" type="line"/>
      <point x="205.029519659553" y="568"/>
      <point x="103.02951965955297" y="526"/>
      <point x="103.02951965955297" y="442" type="curve" smooth="yes"/>
      <point x="103.02951965955297" y="400"/>
      <point x="129.029519659553" y="375"/>
      <point x="174.029519659553" y="375" type="curve"/>
      <point x="236.029519659553" y="375"/>
      <point x="288.029519659553" y="425"/>
      <point x="308.029519659553" y="446" type="curve"/>
      <point x="315.029519659553" y="446" type="line"/>
      <point x="310.029519659553" y="429" type="line" smooth="yes"/>
      <point x="307.029519659553" y="419"/>
      <point x="305.029519659553" y="410"/>
      <point x="305.029519659553" y="402" type="curve" smooth="yes"/>
      <point x="305.029519659553" y="386"/>
      <point x="314.029519659553" y="375"/>
      <point x="334.029519659553" y="375" type="curve" smooth="yes"/>
      <point x="360.029519659553" y="375"/>
      <point x="392.029519659553" y="396"/>
      <point x="432.029519659553" y="436" type="curve"/>
      <point x="427.029519659553" y="455" type="line"/>
      <point x="409.029519659553" y="439"/>
      <point x="390.029519659553" y="420"/>
      <point x="376.029519659553" y="420" type="curve"/>
      <point x="366.029519659553" y="420"/>
      <point x="361.029519659553" y="425"/>
      <point x="361.029519659553" y="437" type="curve" smooth="yes"/>
      <point x="361.029519659553" y="443"/>
      <point x="363.029519659553" y="451"/>
      <point x="366.029519659553" y="461" type="curve" smooth="yes"/>
      <point x="427.029519659553" y="646" type="line" smooth="yes"/>
      <point x="447.029519659553" y="708"/>
      <point x="427.029519659553" y="760"/>
      <point x="338.029519659553" y="760" type="curve"/>
      <point x="263.029519659553" y="760"/>
      <point x="191.029519659553" y="726"/>
      <point x="166.029519659553" y="657" type="curve"/>
      <point x="171.029519659553" y="649" type="line"/>
      <point x="230.029519659553" y="659" type="line"/>
      <point x="251.029519659553" y="702" type="line" smooth="yes"/>
      <point x="260.029519659553" y="721"/>
      <point x="278.029519659553" y="735"/>
      <point x="322.029519659553" y="735" type="curve" smooth="yes"/>
      <point x="366.029519659553" y="735"/>
      <point x="392.029519659553" y="713"/>
    </contour>
    <contour>
      <point x="354.029519659553" y="582" type="line"/>
      <point x="325.029519659553" y="483" type="line"/>
      <point x="300.029519659553" y="454"/>
      <point x="251.029519659553" y="420"/>
      <point x="204.029519659553" y="420" type="curve"/>
      <point x="178.029519659553" y="420"/>
      <point x="163.029519659553" y="435"/>
      <point x="163.029519659553" y="462" type="curve" smooth="yes"/>
      <point x="163.029519659553" y="521"/>
      <point x="251.029519659553" y="560"/>
      <point x="349.029519659553" y="589" type="curve"/>
    </contour>
    <contour>
      <point x="343.029519659553" y="540" type="move" name="top"/>
    </contour>
  </outline>
</glyph>
<glyph name="registered" format="1">
  <advance width="893.8689609266233"/>
  <unicode hex="00AE"/>
  <outline>
    <contour>
      <point x="103.02951965955297" y="375" type="curve" smooth="yes"/>
      <point x="103.02951965955297" y="155"/>
      <point x="262.029519659553" y="-10"/>
      <point x="482.029519659553" y="-10" type="curve" smooth="yes"/>
      <point x="702.029519659553" y="-10"/>
      <point x="862.029519659553" y="155"/>
      <point x="862.029519659553" y="375" type="curve" smooth="yes"/>
      <point x="862.029519659553" y="595"/>
      <point x="702.029519659553" y="760"/>
      <point x="482.029519659553" y="760" type="curve" smooth="yes"/>
      <point x="262.029519659553" y="760"/>
      <point x="103.02951965955297" y="595"/>
    </contour>
    <contour>
      <point x="141.029519659553" y="375" type="curve" smooth="yes"/>
      <point x="141.029519659553" y="575"/>
      <point x="282.029519659553" y="726"/>
      <point x="482.029519659553" y="726" type="curve" smooth="yes"/>
      <point x="682.029519659553" y="726"/>
      <point x="824.029519659553" y="575"/>
      <point x="824.029519659553" y="375" type="curve" smooth="yes"/>
      <point x="824.029519659553" y="175"/>
      <point x="682.029519659553" y="24"/>
      <point x="482.029519659553" y="24" type="curve" smooth="yes"/>
      <point x="282.029519659553" y="24"/>
      <point x="141.029519659553" y="175"/>
    </contour>
    <contour>
      <point x="409.029519659553" y="365" type="line"/>
      <point x="460.029519659553" y="365" type="line"/>
      <point x="650.029519659553" y="125" type="line"/>
      <point x="767.029519659553" y="125" type="line"/>
      <point x="767.029519659553" y="148" type="line"/>
      <point x="720.029519659553" y="148" type="line"/>
      <point x="540.029519659553" y="365" type="line"/>
      <point x="540.029519659553" y="372" type="line"/>
      <point x="604.029519659553" y="381"/>
      <point x="671.029519659553" y="421"/>
      <point x="671.029519659553" y="496" type="curve"/>
      <point x="671.029519659553" y="572"/>
      <point x="608.029519659553" y="625"/>
      <point x="494.029519659553" y="625" type="curve" smooth="yes"/>
      <point x="273.029519659553" y="625" type="line"/>
      <point x="273.029519659553" y="603" type="line"/>
      <point x="333.029519659553" y="603" type="line"/>
      <point x="340.029519659553" y="596" type="line"/>
      <point x="340.029519659553" y="154" type="line"/>
      <point x="333.029519659553" y="148" type="line"/>
      <point x="273.029519659553" y="148" type="line"/>
      <point x="273.029519659553" y="125" type="line"/>
      <point x="481.029519659553" y="125" type="line"/>
      <point x="481.029519659553" y="148" type="line"/>
      <point x="416.029519659553" y="148" type="line"/>
      <point x="409.029519659553" y="154" type="line"/>
    </contour>
    <contour>
      <point x="409.029519659553" y="589" type="line"/>
      <point x="476.029519659553" y="589" type="line" smooth="yes"/>
      <point x="544.029519659553" y="589"/>
      <point x="590.029519659553" y="564"/>
      <point x="590.029519659553" y="498" type="curve" smooth="yes"/>
      <point x="590.029519659553" y="422"/>
      <point x="521.029519659553" y="388"/>
      <point x="409.029519659553" y="388" type="curve"/>
    </contour>
  </outline>
</glyph>
<glyph name="degree" format="1">
  <advance width="392"/>
  <unicode hex="00B0"/>
  <outline>
    <contour>
      <point x="360.029519659553" y="522"/>
      <point x="399.029519659553" y="563"/>
      <point x="399.029519659553" y="624" type="curve" smooth="yes"/>
      <point x="399.029519659553" y="685"/>
      <point x="360.029519659553" y="726"/>
      <point x="303.029519659553" y="726" type="curve" smooth="yes"/>
      <point x="246.029519659553" y="726"/>
      <point x="207.029519659553" y="685"/>
      <point x="207.029519659553" y="624" type="curve" smooth="yes"/>
      <point x="207.029519659553" y="563"/>
      <point x="246.029519659553" y="522"/>
      <point x="303.029519659553" y="522" type="curve" smooth="yes"/>
    </contour>
    <contour>
      <point x="303.029519659553" y="760" type="curve" smooth="yes"/>
      <point x="385.029519659553" y="760"/>
      <point x="439.029519659553" y="696"/>
      <point x="439.029519659553" y="624" type="curve" smooth="yes"/>
      <point x="439.029519659553" y="552"/>
      <point x="385.029519659553" y="488"/>
      <point x="303.029519659553" y="488" type="curve" smooth="yes"/>
      <point x="221.029519659553" y="488"/>
      <point x="167.029519659553" y="552"/>
      <point x="167.029519659553" y="624" type="curve" smooth="yes"/>
      <point x="167.029519659553" y="696"/>
      <point x="221.029519659553" y="760"/>
    </contour>
  </outline>
</glyph>
<glyph name="acute" format="1">
  <advance width="280"/>
  <unicode hex="00B4"/>
  <outline>
    <contour>
      <point x="105.02951965955297" y="540" type="line"/>
      <point x="84.02951965955297" y="554" type="line"/>
      <point x="337.029519659553" y="750" type="line"/>
      <point x="410.029519659553" y="696" type="line"/>
    </contour>
    <contour>
      <point x="217.029519659553" y="520" type="move" name="_top"/>
    </contour>
  </outline>
</glyph>
<glyph name="paragraph" format="1">
  <advance width="560"/>
  <unicode hex="00B6"/>
  <outline>
    <contour>
      <point x="188.029519659553" y="34" type="line"/>
      <point x="98.02951965955297" y="34" type="line"/>
      <point x="90.02951965955297" y="0" type="line"/>
      <point x="434.029519659553" y="0" type="line"/>
      <point x="442.029519659553" y="34" type="line"/>
      <point x="358.029519659553" y="34" type="line"/>
      <point x="351.029519659553" y="44" type="line"/>
      <point x="351.029519659553" y="44" type="line"/>
      <point x="516.029519659553" y="706" type="line"/>
      <point x="529.029519659553" y="716" type="line"/>
      <point x="613.029519659553" y="716" type="line"/>
      <point x="621.029519659553" y="750" type="line"/>
      <point x="387.029519659553" y="750" type="line" smooth="yes"/>
      <point x="211.029519659553" y="750"/>
      <point x="92.02951965955297" y="630"/>
      <point x="92.02951965955297" y="485" type="curve"/>
      <point x="92.02951965955297" y="374"/>
      <point x="163.029519659553" y="318"/>
      <point x="269.029519659553" y="318" type="curve"/>
      <point x="201.029519659553" y="44" type="line"/>
    </contour>
    <contour>
      <point x="246.029519659553" y="34" type="line"/>
      <point x="239.029519659553" y="44" type="line"/>
      <point x="239.029519659553" y="44" type="line"/>
      <point x="404.029519659553" y="706" type="line"/>
      <point x="417.029519659553" y="716" type="line"/>
      <point x="471.029519659553" y="716" type="line"/>
      <point x="478.029519659553" y="706" type="line"/>
      <point x="478.029519659553" y="706" type="line"/>
      <point x="313.029519659553" y="44" type="line"/>
      <point x="300.029519659553" y="34" type="line"/>
    </contour>
  </outline>
</glyph>
<glyph name="cedilla" format="1">
  <advance width="280"/>
  <unicode hex="00B8"/>
  <outline>
    <contour>
      <point x="89.02951965955297" y="0" type="line"/>
      <point x="51.029519659552975" y="0" type="line"/>
      <point x="-24.970480340447025" y="-108" type="line"/>
      <point x="-17.970480340447025" y="-118" type="line"/>
      <point x="-10.970480340447025" y="-115"/>
      <point x="9.029519659552975" y="-110"/>
      <point x="31.029519659552975" y="-110" type="curve" smooth="yes"/>
      <point x="56.029519659552975" y="-110"/>
      <point x="75.02951965955297" y="-126"/>
      <point x="75.02951965955297" y="-148" type="curve" smooth="yes"/>
      <point x="75.02951965955297" y="-183"/>
      <point x="37.029519659552975" y="-210"/>
      <point x="-13.970480340447025" y="-210" type="curve"/>
      <point x="-41.970480340447025" y="-210"/>
      <point x="-60.970480340447025" y="-204"/>
      <point x="-79.97048034044703" y="-192" type="curve"/>
      <point x="-100.97048034044703" y="-216" type="line"/>
      <point x="-81.97048034044703" y="-230"/>
      <point x="-49.970480340447025" y="-240"/>
      <point x="-11.970480340447025" y="-240" type="curve"/>
      <point x="89.02951965955297" y="-240"/>
      <point x="150.029519659553" y="-186"/>
      <point x="150.029519659553" y="-129" type="curve"/>
      <point x="150.029519659553" y="-87"/>
      <point x="122.02951965955297" y="-66"/>
      <point x="86.02951965955297" y="-66" type="curve" smooth="yes"/>
      <point x="74.02951965955297" y="-66"/>
      <point x="64.02951965955297" y="-68"/>
      <point x="56.029519659552975" y="-70" type="curve"/>
      <point x="49.029519659552975" y="-60" type="line"/>
    </contour>
    <contour>
      <point x="66.02951965955297" y="-10" type="move" name="_bottom"/>
    </contour>
  </outline>
</glyph>
<glyph name="ordmasculine" format="1">
  <advance width="459.87277316084646"/>
  <unicode hex="00BA"/>
  <outline>
    <contour>
      <point x="265.029519659553" y="409" type="curve"/>
      <point x="212.029519659553" y="409"/>
      <point x="189.029519659553" y="445"/>
      <point x="189.029519659553" y="512" type="curve" smooth="yes"/>
      <point x="189.029519659553" y="610"/>
      <point x="271.029519659553" y="726"/>
      <point x="376.029519659553" y="726" type="curve"/>
      <point x="430.029519659553" y="726"/>
      <point x="453.029519659553" y="690"/>
      <point x="453.029519659553" y="623" type="curve" smooth="yes"/>
      <point x="453.029519659553" y="525"/>
      <point x="370.029519659553" y="409"/>
    </contour>
    <contour>
      <point x="246.029519659553" y="375" type="curve"/>
      <point x="390.029519659553" y="375"/>
      <point x="512.029519659553" y="522"/>
      <point x="512.029519659553" y="637" type="curve" smooth="yes"/>
      <point x="512.029519659553" y="704"/>
      <point x="482.029519659553" y="760"/>
      <point x="396.029519659553" y="760" type="curve"/>
      <point x="251.029519659553" y="760"/>
      <point x="129.029519659553" y="612"/>
      <point x="129.029519659553" y="497" type="curve" smooth="yes"/>
      <point x="129.029519659553" y="431"/>
      <point x="159.029519659553" y="375"/>
    </contour>
  </outline>
</glyph>
<glyph name="AE" format="1">
  <advance width="982.0"/>
  <unicode hex="00C6"/>
  <outline>
    <contour>
      <point x="447.029519659553" y="45" type="line"/>
      <point x="433.029519659553" y="34" type="line"/>
      <point x="343.029519659553" y="34" type="line"/>
      <point x="335.029519659553" y="0" type="line"/>
      <point x="890.029519659553" y="0" type="line"/>
      <point x="945.029519659553" y="220" type="line"/>
      <point x="907.029519659553" y="220" type="line"/>
      <point x="894.029519659553" y="170" type="line" smooth="yes"/>
      <point x="872.029519659553" y="84"/>
      <point x="845.029519659553" y="62"/>
      <point x="759.029519659553" y="62" type="curve" smooth="yes"/>
      <point x="555.029519659553" y="62" type="line"/>
      <point x="630.029519659553" y="360" type="line"/>
      <point x="822.029519659553" y="360" type="line"/>
      <point x="829.029519659553" y="350" type="line"/>
      <point x="811.029519659553" y="278" type="line"/>
      <point x="849.029519659553" y="278" type="line"/>
      <point x="904.029519659553" y="496" type="line"/>
      <point x="866.029519659553" y="496" type="line"/>
      <point x="848.029519659553" y="424" type="line"/>
      <point x="835.029519659553" y="414" type="line"/>
      <point x="643.029519659553" y="414" type="line"/>
      <point x="712.029519659553" y="688" type="line"/>
      <point x="888.029519659553" y="688" type="line" smooth="yes"/>
      <point x="952.029519659553" y="688"/>
      <point x="977.029519659553" y="676"/>
      <point x="977.029519659553" y="634" type="curve" smooth="yes"/>
      <point x="977.029519659553" y="620"/>
      <point x="974.029519659553" y="602"/>
      <point x="969.029519659553" y="580" type="curve" smooth="yes"/>
      <point x="959.029519659553" y="540" type="line"/>
      <point x="997.029519659553" y="540" type="line"/>
      <point x="1049.029519659553" y="750" type="line"/>
      <point x="647.029519659553" y="750" type="line"/>
      <point x="-12.970480340447025" y="44" type="line"/>
      <point x="-25.970480340447025" y="34" type="line"/>
      <point x="-81.97048034044703" y="34" type="line"/>
      <point x="-89.97048034044703" y="0" type="line"/>
      <point x="146.029519659553" y="0" type="line"/>
      <point x="154.029519659553" y="34" type="line"/>
      <point x="66.02951965955297" y="34" type="line"/>
      <point x="59.029519659552975" y="44" type="line"/>
      <point x="581.029519659553" y="612" type="line"/>
      <point x="591.029519659553" y="612" type="line"/>
    </contour>
    <contour>
      <point x="228.029519659553" y="235" type="line"/>
      <point x="516.029519659553" y="235" type="line"/>
      <point x="516.029519659553" y="289" type="line"/>
      <point x="235.029519659553" y="289" type="line"/>
    </contour>
  </outline>
</glyph>
<glyph name="multiply" format="1">
  <advance width="582"/>
  <unicode hex="00D7"/>
  <outline>
    <contour>
      <point x="458.029519659553" y="147" type="line"/>
      <point x="339.029519659553" y="304" type="line"/>
      <point x="342.029519659553" y="318" type="line"/>
      <point x="540.029519659553" y="476" type="line"/>
      <point x="520.029519659553" y="502" type="line"/>
      <point x="323.029519659553" y="344" type="line"/>
      <point x="309.029519659553" y="344" type="line"/>
      <point x="191.029519659553" y="502" type="line"/>
      <point x="160.029519659553" y="477" type="line"/>
      <point x="279.029519659553" y="320" type="line"/>
      <point x="275.029519659553" y="306" type="line"/>
      <point x="78.02951965955297" y="148" type="line"/>
      <point x="97.02951965955297" y="122" type="line"/>
      <point x="295.029519659553" y="280" type="line"/>
      <point x="309.029519659553" y="280" type="line"/>
      <point x="426.029519659553" y="122" type="line"/>
    </contour>
  </outline>
</glyph>
<glyph name="germandbls" format="1">
  <advance width="619"/>
  <unicode hex="00DF"/>
  <outline>
    <contour>
      <point x="173.029519659553" y="70" type="curve" smooth="yes"/>
      <point x="309.029519659553" y="602" type="line" smooth="yes"/>
      <point x="327.029519659553" y="666"/>
      <point x="372.029519659553" y="712"/>
      <point x="438.029519659553" y="712" type="curve" smooth="yes"/>
      <point x="489.029519659553" y="712"/>
      <point x="509.029519659553" y="685"/>
      <point x="509.029519659553" y="648" type="curve" smooth="yes"/>
      <point x="509.029519659553" y="588"/>
      <point x="441.029519659553" y="520"/>
      <point x="394.029519659553" y="468" type="curve" smooth="yes"/>
      <point x="365.029519659553" y="435"/>
      <point x="349.029519659553" y="402"/>
      <point x="349.029519659553" y="358" type="curve" smooth="yes"/>
      <point x="349.029519659553" y="314"/>
      <point x="365.029519659553" y="286"/>
      <point x="414.029519659553" y="230" type="curve" smooth="yes"/>
      <point x="446.029519659553" y="194"/>
      <point x="487.029519659553" y="155"/>
      <point x="487.029519659553" y="111" type="curve" smooth="yes"/>
      <point x="487.029519659553" y="61"/>
      <point x="454.029519659553" y="22"/>
      <point x="400.029519659553" y="22" type="curve" smooth="yes"/>
      <point x="349.029519659553" y="22"/>
      <point x="302.029519659553" y="60"/>
      <point x="302.029519659553" y="105" type="curve" smooth="yes"/>
      <point x="302.029519659553" y="122"/>
      <point x="305.029519659553" y="140"/>
      <point x="310.029519659553" y="158" type="curve" smooth="yes"/>
      <point x="316.029519659553" y="180" type="line"/>
      <point x="280.029519659553" y="180" type="line"/>
      <point x="228.029519659553" y="0" type="line"/>
      <point x="264.029519659553" y="0" type="line"/>
      <point x="272.029519659553" y="28" type="line"/>
      <point x="282.029519659553" y="28" type="line"/>
      <point x="295.029519659553" y="18"/>
      <point x="335.029519659553" y="-10"/>
      <point x="405.029519659553" y="-10" type="curve"/>
      <point x="510.029519659553" y="-10"/>
      <point x="581.029519659553" y="56"/>
      <point x="581.029519659553" y="138" type="curve" smooth="yes"/>
      <point x="581.029519659553" y="197"/>
      <point x="533.029519659553" y="245"/>
      <point x="479.029519659553" y="308" type="curve" smooth="yes"/>
      <point x="442.029519659553" y="351"/>
      <point x="432.029519659553" y="369"/>
      <point x="432.029519659553" y="399" type="curve" smooth="yes"/>
      <point x="432.029519659553" y="431"/>
      <point x="449.029519659553" y="460"/>
      <point x="471.029519659553" y="483" type="curve" smooth="yes"/>
      <point x="528.029519659553" y="542"/>
      <point x="602.029519659553" y="593"/>
      <point x="602.029519659553" y="666" type="curve" smooth="yes"/>
      <point x="602.029519659553" y="717"/>
      <point x="566.029519659553" y="760"/>
      <point x="480.029519659553" y="760" type="curve" smooth="yes"/>
      <point x="344.029519659553" y="760"/>
      <point x="267.029519659553" y="624"/>
      <point x="189.029519659553" y="500" type="curve"/>
      <point x="45.029519659552975" y="500" type="line"/>
      <point x="34.029519659552975" y="460" type="line"/>
      <point x="173.029519659553" y="460" type="line"/>
      <point x="60.029519659552975" y="-73" type="line" smooth="yes"/>
      <point x="46.029519659552975" y="-138"/>
      <point x="14.029519659552975" y="-161"/>
      <point x="-40.970480340447025" y="-161" type="curve" smooth="yes"/>
      <point x="-126.97048034044703" y="-161" type="line"/>
      <point x="-149.970480340447" y="-240" type="line"/>
      <point x="-141.970480340447" y="-250" type="line"/>
      <point x="-114.97048034044703" y="-248" type="line"/>
      <point x="25.029519659552975" y="-243"/>
      <point x="136.029519659553" y="-73"/>
    </contour>
  </outline>
</glyph>
<glyph name="ae" format="1">
  <advance width="821.6942290501083"/>
  <unicode hex="00E6"/>
  <outline>
    <contour>
      <point x="549.029519659553" y="510" type="line"/>
      <point x="463.029519659553" y="510" type="line"/>
      <point x="456.029519659553" y="488" type="line"/>
      <point x="446.029519659553" y="488" type="line"/>
      <point x="440.029519659553" y="494"/>
      <point x="421.029519659553" y="510"/>
      <point x="377.029519659553" y="510" type="curve"/>
      <point x="206.029519659553" y="510"/>
      <point x="19.029519659552975" y="246"/>
      <point x="19.029519659552975" y="88" type="curve"/>
      <point x="19.029519659552975" y="16"/>
      <point x="61.029519659552975" y="-10"/>
      <point x="119.02951965955297" y="-10" type="curve"/>
      <point x="214.029519659553" y="-10"/>
      <point x="280.029519659553" y="70"/>
      <point x="314.029519659553" y="120" type="curve"/>
      <point x="328.029519659553" y="120" type="line"/>
      <point x="278.029519659553" y="0" type="line"/>
      <point x="362.029519659553" y="0" type="line"/>
      <point x="384.029519659553" y="60" type="line"/>
      <point x="394.029519659553" y="60" type="line"/>
      <point x="411.029519659553" y="9"/>
      <point x="452.029519659553" y="-10"/>
      <point x="514.029519659553" y="-10" type="curve"/>
      <point x="643.029519659553" y="-10"/>
      <point x="725.029519659553" y="106"/>
      <point x="765.029519659553" y="158" type="curve"/>
      <point x="725.029519659553" y="158" type="line"/>
      <point x="692.029519659553" y="118"/>
      <point x="623.029519659553" y="38"/>
      <point x="549.029519659553" y="38" type="curve" smooth="yes"/>
      <point x="496.029519659553" y="38"/>
      <point x="469.029519659553" y="71"/>
      <point x="469.029519659553" y="138" type="curve"/>
      <point x="468.029519659553" y="309"/>
      <point x="580.029519659553" y="480"/>
      <point x="673.029519659553" y="480" type="curve" smooth="yes"/>
      <point x="707.029519659553" y="480"/>
      <point x="723.029519659553" y="460"/>
      <point x="723.029519659553" y="428" type="curve" smooth="yes"/>
      <point x="723.029519659553" y="372"/>
      <point x="697.029519659553" y="320"/>
      <point x="499.029519659553" y="264" type="curve"/>
      <point x="488.029519659553" y="274" type="line"/>
      <point x="479.029519659553" y="236" type="line"/>
      <point x="726.029519659553" y="282"/>
      <point x="807.029519659553" y="330"/>
      <point x="807.029519659553" y="418" type="curve" smooth="yes"/>
      <point x="807.029519659553" y="468"/>
      <point x="773.029519659553" y="510"/>
      <point x="695.029519659553" y="510" type="curve" smooth="yes"/>
      <point x="626.029519659553" y="510"/>
      <point x="573.029519659553" y="472"/>
      <point x="527.029519659553" y="422" type="curve"/>
      <point x="517.029519659553" y="422" type="line"/>
    </contour>
    <contour>
      <point x="119.02951965955297" y="102" type="curve"/>
      <point x="119.02951965955297" y="216"/>
      <point x="263.029519659553" y="478"/>
      <point x="375.029519659553" y="478" type="curve"/>
      <point x="407.029519659553" y="478"/>
      <point x="436.029519659553" y="462"/>
      <point x="436.029519659553" y="420" type="curve" smooth="yes"/>
      <point x="436.029519659553" y="310"/>
      <point x="257.029519659553" y="52"/>
      <point x="163.029519659553" y="52" type="curve"/>
      <point x="138.029519659553" y="52"/>
      <point x="119.02951965955297" y="65"/>
    </contour>
  </outline>
</glyph>
